<?xml version="1.0" encoding="UTF-8" standalone="no"?>
<!DOCTYPE svg PUBLIC "-//W3C//DTD SVG 1.1//EN" "http://www.w3.org/Graphics/SVG/1.1/DTD/svg11.dtd">
<svg xmlns="http://www.w3.org/2000/svg" version="1.1" viewBox="0.00 0.00 195.00 210.00">
<g stroke-width="2.00" fill="none" stroke-linecap="butt">
<path stroke="#95af9b" vector-effect="non-scaling-stroke" d="
  M 81.15 26.66
  Q 78.49 30.55 73.59 32.97"
/>
<path stroke="#95af9b" vector-effect="non-scaling-stroke" d="
  M 127.97 32.81
  Q 123.39 30.68 120.27 26.71"
/>
<path stroke="#7c8984" vector-effect="non-scaling-stroke" d="
  M 124.64 27.95
  Q 124.50 27.14 123.89 26.54
  A 0.25 0.25 0.0 0 0 123.50 26.84
  Q 123.90 27.53 124.54 28.02
  Q 124.67 28.13 124.64 27.95"
/>
<path stroke="#7c7661" vector-effect="non-scaling-stroke" d="
  M 112.10 22.98
  Q 111.71 24.49 110.95 24.85
  A 0.63 0.63 0.0 0 1 110.05 24.25
  Q 110.27 19.89 105.99 19.13
  C 101.86 18.39 98.81 20.20 96.22 15.47
  Q 95.92 14.92 95.74 15.51
  Q 95.23 17.15 95.44 18.87
  Q 95.76 21.59 94.16 19.37
  L 93.60 18.58
  Q 92.89 17.59 92.80 18.80
  L 92.40 24.35
  A 0.62 0.62 0.0 0 1 91.65 24.91
  Q 91.02 24.78 90.42 23.98"
/>
<path stroke="#95af9b" vector-effect="non-scaling-stroke" d="
  M 106.77 37.03
  C 106.09 38.90 105.10 40.00 102.96 40.14
  C 99.65 40.35 96.90 40.63 95.44 37.38"
/>
<path stroke="#7c7661" vector-effect="non-scaling-stroke" d="
  M 95.74 36.86
  Q 101.84 39.32 106.63 34.90
  Q 107.02 34.53 106.53 34.32
  L 106.24 34.20
  A 1.00 0.98 -50.0 0 0 105.30 34.29
  Q 101.52 36.87 95.46 33.57"
/>
<path stroke="#7c8984" vector-effect="non-scaling-stroke" d="
  M 93.71 31.20
  Q 93.72 30.65 93.58 30.29
  Q 93.42 29.88 93.16 30.24
  Q 92.76 30.79 92.21 30.54"
/>
<path stroke="#7c7661" vector-effect="non-scaling-stroke" d="
  M 95.39 22.23
  Q 97.71 21.37 99.45 23.02
  Q 99.69 23.25 100.00 23.12
  Q 100.22 23.03 100.31 22.80
  Q 100.42 22.55 100.25 22.19
  Q 98.99 19.40 95.50 20.61
  Q 94.83 20.84 94.87 21.56
  L 94.89 21.90
  A 0.38 0.37 -11.1 0 0 95.39 22.23"
/>
<path stroke="#7c7661" vector-effect="non-scaling-stroke" d="
  M 107.25 22.19
  Q 107.66 22.33 107.90 21.96
  Q 108.18 21.51 107.46 21.06
  Q 104.32 19.11 102.23 22.01
  A 0.68 0.68 0.0 0 0 102.32 22.91
  L 102.50 23.08
  A 0.38 0.38 0.0 0 0 103.02 23.09
  Q 104.85 21.42 107.25 22.19"
/>
<path stroke="#7c7661" vector-effect="non-scaling-stroke" d="
  M 97.93 24.92
  L 98.45 25.17
  Q 99.06 25.46 98.93 24.79
  Q 98.83 24.26 98.27 24.00
  Q 96.83 23.34 95.64 24.25
  A 0.36 0.36 0.0 0 0 95.89 24.90
  L 97.08 24.78
  Q 97.53 24.73 97.93 24.92"
/>
<path stroke="#7c7661" vector-effect="non-scaling-stroke" d="
  M 105.60 24.68
  L 106.53 24.76
  Q 107.89 24.88 106.76 24.11
  Q 105.07 22.97 103.88 24.64
  Q 103.53 25.12 104.12 25.16
  Q 104.49 25.18 104.80 24.92
  Q 105.15 24.64 105.60 24.68"
/>
<path stroke="#f8d6bf" vector-effect="non-scaling-stroke" d="
  M 105.36 28.45
  L 97.31 28.33
  A 0.20 0.20 0.0 0 0 97.10 28.52
  L 97.10 28.62
  A 4.16 4.16 0.0 0 0 101.19 32.85
  L 101.33 32.85
  A 4.16 4.16 0.0 0 0 105.56 28.76
  L 105.56 28.66
  A 0.20 0.20 0.0 0 0 105.36 28.45"
/>
<path stroke="#7c7661" vector-effect="non-scaling-stroke" d="
  M 50.75 27.47
  Q 50.29 28.08 49.71 28.33
  A 0.78 0.77 60.4 0 1 48.76 28.06
  L 47.24 25.85
  A 0.89 0.87 73.5 0 0 46.56 25.47
  Q 43.67 25.30 41.87 23.15
  Q 41.50 22.70 41.38 23.27
  Q 40.25 28.45 34.98 29.35
  Q 34.45 29.43 34.28 29.94
  L 32.97 33.88
  A 0.93 0.91 -50.5 0 0 33.03 34.57
  L 33.96 36.28
  A 0.50 0.50 0.0 0 1 33.70 36.98
  Q 32.50 37.45 31.99 38.18"
/>
<path stroke="#6b845e" vector-effect="non-scaling-stroke" d="
  M 172.22 57.64
  Q 170.09 55.25 167.69 53.07
  Q 163.85 49.57 159.43 48.15"
/>
<path stroke="#7c7661" vector-effect="non-scaling-stroke" d="
  M 158.96 48.20
  Q 159.88 47.42 160.00 46.54
  Q 160.08 45.97 159.50 46.00
  C 156.22 46.19 153.26 46.73 151.83 42.96
  Q 151.66 42.50 151.40 42.29
  Q 150.70 41.71 150.49 42.44"
/>
<path stroke="#6b845e" vector-effect="non-scaling-stroke" d="
  M 148.26 42.42
  L 142.74 40.50"
/>
<path stroke="#7c7661" vector-effect="non-scaling-stroke" d="
  M 151.17 37.13
  C 151.90 43.21 158.93 46.37 163.92 42.88
  A 1.56 1.51 -61.8 0 1 164.80 42.60
  C 167.65 42.59 171.44 39.86 168.69 36.87
  A 0.87 0.86 -58.0 0 1 168.50 36.04
  Q 169.27 33.41 168.19 30.97
  C 167.43 29.26 166.41 29.31 164.79 28.70
  Q 161.84 27.60 160.10 23.55
  A 0.37 0.37 0.0 0 0 159.45 23.49
  Q 157.70 26.10 154.73 27.21
  A 1.42 1.40 0.4 0 0 153.93 27.99
  Q 153.23 29.75 151.30 29.73
  A 1.20 1.19 -71.9 0 0 150.33 30.23
  Q 148.04 33.42 150.78 36.31
  Q 151.11 36.65 151.17 37.13"
/>
<path stroke="#7c7661" vector-effect="non-scaling-stroke" d="
  M 51.24 37.70
  Q 47.92 43.74 40.78 43.85"
/>
<path stroke="#7c7661" vector-effect="non-scaling-stroke" d="
  M 41.89 29.94
  L 46.58 27.94
  A 0.10 0.10 0.0 0 0 46.63 27.81
  L 46.63 27.80
  A 2.50 1.69 -23.1 0 0 43.66 27.22
  L 43.39 27.34
  A 2.50 1.69 -23.1 0 0 41.75 29.88
  L 41.76 29.89
  A 0.10 0.10 0.0 0 0 41.89 29.94"
/>
<path stroke="#7c7661" vector-effect="non-scaling-stroke" d="
  M 45.9584 32.4222
  A 1.30 1.09 66.5 0 0 46.4396 30.7954
  A 1.30 1.09 66.5 0 0 44.9216 30.0378
  A 1.30 1.09 66.5 0 0 44.4404 31.6646
  A 1.30 1.09 66.5 0 0 45.9584 32.4222"
/>
<path stroke="#7c7661" vector-effect="non-scaling-stroke" d="
  M 35.79 34.95
  L 39.34 31.29
  A 0.11 0.11 0.0 0 0 39.34 31.13
  L 39.33 31.13
  A 2.50 1.68 -45.8 0 0 36.39 31.75
  L 36.16 31.98
  A 2.50 1.68 -45.8 0 0 35.62 34.94
  L 35.63 34.95
  A 0.11 0.11 0.0 0 0 35.79 34.95"
/>
<path stroke="#7c8984" vector-effect="non-scaling-stroke" d="
  M 42.37 34.50
  Q 43.26 35.67 43.06 34.21
  Q 43.00 33.77 42.23 33.37
  Q 41.76 33.13 41.92 33.63
  Q 42.07 34.10 42.37 34.50"
/>
<path stroke="#7c7661" vector-effect="non-scaling-stroke" d="
  M 40.0325 36.2144
  A 1.32 1.08 50.9 0 0 40.0381 34.5089
  A 1.32 1.08 50.9 0 0 38.3675 34.1656
  A 1.32 1.08 50.9 0 0 38.3619 35.8711
  A 1.32 1.08 50.9 0 0 40.0325 36.2144"
/>
<path stroke="#f8d6bf" vector-effect="non-scaling-stroke" d="
  M 47.35 34.38
  L 40.91 38.38
  A 0.13 0.13 0.0 0 0 40.86 38.56
  L 40.91 38.63
  A 3.74 3.41 -31.8 0 0 45.88 39.55
  L 46.19 39.36
  A 3.74 3.41 -31.8 0 0 47.57 34.49
  L 47.53 34.43
  A 0.13 0.13 0.0 0 0 47.35 34.38"
/>
<path stroke="#7c8984" vector-effect="non-scaling-stroke" d="
  M 37.5520 41.6285
  A 1.58 0.26 53.4 0 0 36.8187 40.2050
  A 1.58 0.26 53.4 0 0 35.6680 39.0915
  A 1.58 0.26 53.4 0 0 36.4013 40.5150
  A 1.58 0.26 53.4 0 0 37.5520 41.6285"
/>
<path stroke="#7c7661" vector-effect="non-scaling-stroke" d="
  M 156.63 28.52
  L 160.52 30.76
  A 0.12 0.12 0.0 0 0 160.68 30.71
  L 160.72 30.64
  A 2.24 1.74 29.9 0 0 159.65 28.02
  L 159.44 27.90
  A 2.24 1.74 29.9 0 0 156.63 28.29
  L 156.59 28.36
  A 0.12 0.12 0.0 0 0 156.63 28.52"
/>
<path stroke="#7c7661" vector-effect="non-scaling-stroke" d="
  M 162.95 31.70
  L 167.17 33.68
  A 0.11 0.11 0.0 0 0 167.32 33.63
  L 167.32 33.61
  A 2.26 1.71 25.1 0 0 166.00 31.10
  L 165.68 30.95
  A 2.26 1.71 25.1 0 0 162.91 31.54
  L 162.90 31.56
  A 0.11 0.11 0.0 0 0 162.95 31.70"
/>
<path stroke="#7c7661" vector-effect="non-scaling-stroke" d="
  M 156.7307 33.5182
  A 1.38 1.01 116.2 0 0 158.2462 32.7259
  A 1.38 1.01 116.2 0 0 157.9493 31.0418
  A 1.38 1.01 116.2 0 0 156.4338 31.8341
  A 1.38 1.01 116.2 0 0 156.7307 33.5182"
/>
<path stroke="#7c8984" vector-effect="non-scaling-stroke" d="
  M 151.23 35.22
  Q 151.30 36.15 151.67 35.30
  Q 152.13 34.25 151.98 32.82
  Q 151.90 32.10 151.59 32.76
  Q 151.11 33.73 151.23 35.22"
/>
<path stroke="#7c8984" vector-effect="non-scaling-stroke" d="
  M 159.95 34.15
  Q 159.61 34.72 159.07 35.17
  A 0.10 0.10 0.0 0 0 159.06 35.32
  Q 159.16 35.41 159.25 35.51
  Q 159.44 35.71 159.66 35.55
  Q 160.50 34.93 160.52 34.32
  A 0.31 0.31 0.0 0 0 159.95 34.15"
/>
<path stroke="#7c7661" vector-effect="non-scaling-stroke" d="
  M 162.9826 36.8572
  A 1.36 1.00 110.1 0 0 164.3891 35.9237
  A 1.36 1.00 110.1 0 0 163.9174 34.3028
  A 1.36 1.00 110.1 0 0 162.5109 35.2363
  A 1.36 1.00 110.1 0 0 162.9826 36.8572"
/>
<path stroke="#f8d6bf" vector-effect="non-scaling-stroke" d="
  M 161.91 39.09
  L 154.95 35.26
  A 0.25 0.25 0.0 0 0 154.61 35.36
  L 154.55 35.47
  A 4.07 4.07 0.0 0 0 156.16 40.99
  L 156.42 41.14
  A 4.07 4.07 0.0 0 0 161.95 39.53
  L 162.01 39.43
  A 0.25 0.25 0.0 0 0 161.91 39.09"
/>
<path stroke="#7c8984" vector-effect="non-scaling-stroke" d="
  M 164.81 41.50
  Q 164.53 41.90 164.97 41.69
  Q 166.41 40.99 166.70 39.38
  Q 166.84 38.60 166.39 39.25
  L 164.81 41.50"
/>
<path stroke="#84be98" vector-effect="non-scaling-stroke" d="
  M 123.79 42.25
  Q 119.24 49.56 117.97 53.47
  Q 117.33 55.43 118.62 55.53"
/>
<path stroke="#84be98" vector-effect="non-scaling-stroke" d="
  M 126.72 71.60
  C 130.82 74.30 134.42 76.32 139.15 79.50
  Q 145.59 83.84 153.18 85.79"
/>
<path stroke="#69b469" vector-effect="non-scaling-stroke" d="
  M 149.72 96.76
  Q 141.48 87.41 130.46 81.58"
/>
<path stroke="#19808a" vector-effect="non-scaling-stroke" d="
  M 130.46 81.58
  Q 107.03 69.55 81.03 76.13"
/>
<path stroke="#84be98" vector-effect="non-scaling-stroke" d="
  M 81.03 76.13
  L 80.55 72.95"
/>
<path stroke="#84be98" vector-effect="non-scaling-stroke" d="
  M 83.02 56.34
  C 85.16 55.25 82.67 50.91 81.99 49.50
  Q 80.07 45.50 77.88 42.89"
/>
<path stroke="#7c7661" vector-effect="non-scaling-stroke" d="
  M 52.15 39.95
  C 49.77 44.45 46.78 44.94 42.23 45.11"
/>
<path stroke="#6b9881" vector-effect="non-scaling-stroke" d="
  M 81.03 76.13
  Q 67.20 79.95 55.90 89.04"
/>
<path stroke="#bbcb60" vector-effect="non-scaling-stroke" d="
  M 55.90 89.04
  L 49.38 94.77"
/>
<path stroke="#e8e4bc" vector-effect="non-scaling-stroke" d="
  M 17.22 70.02
  L 20.49 61.31"
/>
<path stroke="#84be98" vector-effect="non-scaling-stroke" d="
  M 38.51 49.14
  Q 41.76 53.15 46.48 53.05
  C 55.43 52.87 57.44 47.00 57.90 39.27"
/>
<path stroke="#96cdc6" vector-effect="non-scaling-stroke" d="
  M 41.97 47.50
  Q 42.04 48.25 42.74 48.27
  Q 44.29 49.54 45.59 50.66
  A 1.81 1.80 41.0 0 0 48.11 50.49
  Q 50.20 48.16 53.34 47.79
  A 1.30 1.30 0.0 0 0 54.37 45.95
  C 53.58 44.23 54.85 42.98 54.55 41.19"
/>
<path stroke="#f8d6bf" vector-effect="non-scaling-stroke" d="
  M 52.70 42.04
  L 50.91 46.36
  Q 50.72 46.82 50.25 46.98
  Q 46.69 48.19 42.80 46.89"
/>
<path stroke="#6b9881" vector-effect="non-scaling-stroke" d="
  M 153.92 52.59
  Q 154.63 52.75 155.25 52.36"
/>
<path stroke="#e7c791" vector-effect="non-scaling-stroke" d="
  M 177.01 67.10
  Q 175.22 66.68 172.11 69.61
  Q 170.06 71.54 169.42 73.20"
/>
<path stroke="#6b845e" vector-effect="non-scaling-stroke" d="
  M 169.42 73.20
  L 166.51 76.36"
/>
<path stroke="#6b845e" vector-effect="non-scaling-stroke" d="
  M 121.78 57.39
  L 121.78 54.69
  Q 121.78 54.16 121.25 54.11
  L 119.72 53.97
  Q 119.18 53.92 118.94 54.41
  Q 118.78 54.74 119.07 55.03"
/>
<path stroke="#f8d6bf" vector-effect="non-scaling-stroke" d="
  M 16.05 60.32
  L 13.43 68.04"
/>
<path stroke="#7c7661" vector-effect="non-scaling-stroke" d="
  M 170.39 75.16
  L 169.42 73.20"
/>
<path stroke="#7c8984" vector-effect="non-scaling-stroke" d="
  M 188.4399 88.5739
  A 0.92 0.33 -1.0 0 0 187.5142 88.2601
  A 0.92 0.33 -1.0 0 0 186.6001 88.6061
  A 0.92 0.33 -1.0 0 0 187.5258 88.9199
  A 0.92 0.33 -1.0 0 0 188.4399 88.5739"
/>
<path stroke="#508e52" vector-effect="non-scaling-stroke" d="
  M 130.46 81.58
  Q 128.01 83.02 125.58 84.43
  C 122.82 86.03 119.76 85.47 116.71 85.45
  A 1.46 1.45 24.1 0 0 115.75 85.81
  L 113.89 87.46
  Q 113.48 87.83 112.93 87.95
  L 107.70 89.03
  Q 107.15 89.14 106.67 88.86
  Q 104.27 87.45 101.83 88.69
  A 1.70 1.66 -51.4 0 1 100.71 88.83
  L 91.76 86.85
  A 6.93 6.87 -48.0 0 0 88.03 87.06
  L 79.62 89.95
  Q 79.08 90.13 79.10 90.70
  L 79.19 93.13
  Q 79.21 93.66 78.75 93.95
  L 73.51 97.23
  A 1.12 1.11 -33.3 0 0 73.18 98.80
  L 74.23 100.35
  A 0.75 0.74 55.2 0 1 74.05 101.37
  L 71.73 103.03
  Q 71.31 103.33 70.92 103.00
  C 66.94 99.64 62.29 102.73 58.32 104.45
  Q 57.81 104.68 58.04 105.18
  L 59.21 107.66
  Q 59.42 108.10 59.90 108.07
  C 65.72 107.70 66.29 116.07 60.92 114.30
  A 0.67 0.66 -73.8 0 0 60.08 114.77
  L 58.93 119.21
  Q 58.81 119.69 59.11 120.08
  L 60.82 122.30
  Q 61.14 122.73 60.73 123.07
  C 58.52 124.91 56.54 126.28 55.23 128.98
  Q 53.38 132.75 51.50 136.55
  A 1.10 1.07 -40.2 0 0 51.43 137.29
  L 52.55 141.51
  Q 52.68 142.03 52.56 142.55
  L 51.50 147.19
  Q 51.37 147.76 51.76 148.19
  L 58.23 155.52
  A 1.39 1.33 -20.1 0 0 59.25 155.97
  L 69.29 155.97
  Q 69.73 155.97 70.01 156.31
  L 72.29 159.10
  Q 72.60 159.48 73.10 159.47
  L 74.97 159.43
  Q 75.50 159.42 75.54 159.94
  C 75.70 162.26 75.45 164.28 76.54 166.43
  Q 77.51 168.35 78.50 170.28
  C 79.65 172.53 79.20 174.34 79.08 176.71
  Q 78.97 179.05 79.85 181.14
  Q 83.13 189.01 86.42 196.93
  Q 86.65 197.50 87.26 197.49
  L 91.89 197.47
  Q 92.48 197.47 92.87 197.02
  L 102.74 185.67
  Q 103.10 185.25 103.08 184.69
  L 102.95 181.91
  Q 102.93 181.34 103.32 180.93
  L 107.09 177.03
  Q 107.45 176.65 107.40 176.14
  L 106.58 167.78
  Q 106.53 167.27 106.84 166.87
  L 117.63 152.78
  A 2.34 2.34 0.0 0 0 115.84 149.02
  L 110.48 148.87
  Q 109.90 148.85 109.63 148.34
  L 102.41 134.30
  Q 102.31 134.11 102.46 134.12
  Q 102.53 134.12 102.56 134.17
  Q 106.54 140.27 110.64 146.35
  Q 110.93 146.79 111.47 146.79
  L 118.35 146.81
  A 0.92 0.91 14.4 0 0 119.15 146.34
  L 123.27 138.99
  A 1.03 1.02 45.8 0 0 123.28 137.98
  L 121.63 135.00
  A 0.30 0.29 -8.9 0 1 121.95 134.57
  L 130.06 136.15
  A 1.20 1.16 -8.5 0 1 130.84 136.71
  Q 133.24 140.79 137.28 143.23
  A 1.89 1.88 -87.2 0 1 137.99 144.02
  L 142.50 153.74
  Q 142.78 154.34 143.17 153.80
  Q 145.73 150.16 145.00 145.70
  A 1.46 1.45 -23.3 0 1 145.56 144.31
  L 152.65 138.92
  Q 153.14 138.54 153.33 139.13
  L 154.67 143.36
  A 1.29 1.27 -85.2 0 0 155.27 144.08
  L 159.08 146.19
  A 1.44 1.43 -84.1 0 1 159.75 147.02
  L 160.84 150.42
  A 1.58 1.55 -79.3 0 0 161.35 151.18
  L 165.44 154.66"
/>
<path stroke="#508e52" vector-effect="non-scaling-stroke" d="
  M 165.09 155.90
  L 160.45 153.69
  Q 159.91 153.44 159.69 153.99
  L 158.79 156.28
  Q 158.61 156.73 158.72 157.20
  Q 159.71 161.55 162.76 164.79"
/>
<path stroke="#7da7af" vector-effect="non-scaling-stroke" d="
  M 51.80 191.44
  Q 54.05 189.26 55.76 189.62
  Q 60.75 190.69 64.34 187.58
  Q 64.84 187.15 64.18 187.22
  Q 60.40 187.63 57.40 185.35
  A 1.05 1.04 -34.1 0 0 56.49 185.18
  Q 55.03 185.61 53.90 186.62
  Q 53.53 186.96 53.15 186.64
  Q 50.02 183.99 45.82 185.49"
/>
<path stroke="#7da7af" vector-effect="non-scaling-stroke" d="
  M 42.81 181.21
  C 45.93 180.27 48.27 179.24 51.82 179.41
  Q 56.13 179.61 60.33 177.12
  A 0.36 0.36 0.0 0 0 60.25 176.47
  L 56.77 175.44
  Q 56.29 175.29 56.10 174.82
  Q 55.11 172.29 52.52 171.77
  Q 51.97 171.66 51.54 171.31
  Q 48.53 168.83 44.85 170.48
  Q 44.36 170.70 43.94 170.38
  Q 40.35 167.61 35.90 169.06"
/>
<path stroke="#7da7af" vector-effect="non-scaling-stroke" d="
  M 33.91 120.28
  Q 33.69 117.98 35.51 118.41
  Q 41.38 119.79 46.38 117.97
  Q 46.99 117.75 46.40 117.46
  C 44.12 116.33 43.65 114.21 41.73 113.14
  Q 39.87 112.09 37.76 111.66"
/>
<path stroke="#508e52" vector-effect="non-scaling-stroke" d="
  M 48.16 96.44
  L 54.41 95.00
  A 0.73 0.72 -20.7 0 1 55.19 95.35
  L 56.01 96.83
  Q 56.33 97.41 56.91 97.07
  L 58.83 95.96
  Q 59.30 95.68 59.21 95.14
  L 58.49 91.15
  A 0.74 0.74 0.0 0 0 58.18 90.66
  L 55.90 89.04"
/>
<path stroke="#508e52" vector-effect="non-scaling-stroke" d="
  M 109.84 182.94
  Q 109.17 186.04 108.55 189.20
  Q 108.45 189.75 109.01 189.75
  L 113.50 189.77
  Q 113.94 189.77 114.16 189.39
  L 117.10 184.44
  Q 117.42 183.90 117.20 183.31
  L 116.23 180.76
  A 1.18 1.15 -46.4 0 1 116.22 179.99
  L 117.26 176.88
  A 0.93 0.92 35.6 0 0 117.11 176.03
  L 115.42 173.84
  Q 115.02 173.32 114.49 173.72
  L 109.48 177.52
  A 0.78 0.78 0.0 0 0 109.20 178.35
  C 109.74 180.16 110.26 181.00 109.84 182.94"
/>
<path stroke="#ccda8e" vector-effect="non-scaling-stroke" d="
  M 163.43 121.26
  Q 157.26 119.11 152.45 123.16
  Q 152.02 123.52 151.46 123.47
  Q 149.88 123.32 148.47 124.31
  A 3.59 3.50 -88.2 0 0 147.70 125.05
  L 144.78 128.88
  Q 143.95 129.97 145.32 129.85
  C 149.71 129.45 154.79 129.62 158.44 132.44
  C 161.64 134.90 163.22 133.35 166.31 132.14"
/>
<path stroke="#508e52" vector-effect="non-scaling-stroke" d="
  M 74.28 117.60
  Q 74.86 116.83 75.00 116.54
  Q 75.98 114.50 73.86 115.39
  Q 69.76 117.13 67.67 120.99
  A 0.35 0.35 0.0 0 0 68.03 121.50
  Q 69.98 121.21 71.72 120.23
  A 1.62 1.59 32.5 0 1 72.67 120.03
  Q 76.33 120.37 78.10 123.38
  Q 78.39 123.88 78.92 124.11
  L 84.32 126.43
  Q 84.76 126.62 85.15 126.34
  L 87.32 124.80
  A 1.13 1.12 49.8 0 1 88.78 124.93
  C 91.11 127.27 94.11 127.09 97.21 127.47
  Q 97.77 127.54 97.98 127.01
  L 99.55 123.25
  Q 99.86 122.51 99.11 122.81
  Q 97.85 123.32 96.50 123.28
  Q 96.01 123.26 95.56 123.05
  Q 94.09 122.36 92.55 121.89
  C 91.11 121.44 89.84 121.96 88.34 122.04
  A 1.04 1.03 -19.2 0 1 87.44 121.61
  L 85.95 119.53
  Q 85.68 119.16 85.23 119.25
  L 83.78 119.54
  Q 83.31 119.64 82.92 119.37
  L 79.59 117.14
  A 0.94 0.94 0.0 0 0 78.49 117.17
  Q 76.81 118.42 74.72 118.47
  A 0.54 0.54 0.0 0 1 74.28 117.60"
/>
</g>
<path fill="#f7b894" d="
  M 61.76 0.00
  L 67.34 0.00
  Q 68.15 1.36 67.90 3.26
  A 1.08 1.07 -86.8 0 0 68.99 4.48
  Q 70.12 4.45 70.97 3.92
  A 0.91 0.91 0.0 0 1 72.35 4.85
  C 71.90 7.31 70.37 9.59 72.03 12.08
  Q 76.69 19.11 81.15 26.66
  Q 78.49 30.55 73.59 32.97
  Q 69.80 24.92 66.83 16.43
  C 65.63 12.97 64.34 10.98 61.70 8.81
  C 60.65 7.95 60.02 6.99 60.05 5.56
  Q 60.13 1.75 61.76 0.00
  Z"
/>
<path fill="#f7b894" d="
  M 134.62 0.00
  L 140.27 0.00
  Q 140.55 0.72 141.14 1.24
  Q 141.19 1.29 141.12 1.32
  L 140.82 1.43
  Q 140.58 1.52 140.69 1.75
  Q 141.83 4.23 141.31 6.96
  Q 141.21 7.47 140.82 7.83
  Q 136.04 12.21 135.41 13.97
  Q 132.05 23.44 127.97 32.81
  Q 123.39 30.68 120.27 26.71
  Q 124.34 19.57 129.16 12.90
  C 131.06 10.27 129.99 7.62 129.36 5.06
  Q 128.84 2.96 130.66 4.11
  Q 130.97 4.30 131.65 4.99
  Q 131.91 5.25 132.15 4.97
  L 133.57 3.25
  A 0.87 0.87 0.0 0 0 133.72 2.38
  Q 133.00 0.47 134.62 0.00
  Z
  M 124.64 27.95
  Q 124.50 27.14 123.89 26.54
  A 0.25 0.25 0.0 0 0 123.50 26.84
  Q 123.90 27.53 124.54 28.02
  Q 124.67 28.13 124.64 27.95
  Z"
/>
<path fill="#00332e" d="
  M 112.10 22.98
  Q 111.71 24.49 110.95 24.85
  A 0.63 0.63 0.0 0 1 110.05 24.25
  Q 110.27 19.89 105.99 19.13
  C 101.86 18.39 98.81 20.20 96.22 15.47
  Q 95.92 14.92 95.74 15.51
  Q 95.23 17.15 95.44 18.87
  Q 95.76 21.59 94.16 19.37
  L 93.60 18.58
  Q 92.89 17.59 92.80 18.80
  L 92.40 24.35
  A 0.62 0.62 0.0 0 1 91.65 24.91
  Q 91.02 24.78 90.42 23.98
  Q 87.99 17.57 91.26 12.04
  C 92.74 9.52 95.01 6.75 97.96 6.89
  C 100.75 7.03 104.22 6.95 106.58 8.03
  C 112.21 10.61 112.92 17.51 112.10 22.98
  Z"
/>
<path fill="#f7b894" d="
  M 112.10 22.98
  C 112.50 26.19 112.85 30.24 109.28 31.45
  Q 108.82 31.60 108.63 32.04
  C 107.76 33.91 106.38 34.72 106.77 37.03
  C 106.09 38.90 105.10 40.00 102.96 40.14
  C 99.65 40.35 96.90 40.63 95.44 37.38
  Q 95.55 37.08 95.74 36.86
  Q 101.84 39.32 106.63 34.90
  Q 107.02 34.53 106.53 34.32
  L 106.24 34.20
  A 1.00 0.98 -50.0 0 0 105.30 34.29
  Q 101.52 36.87 95.46 33.57
  L 93.71 31.20
  Q 93.72 30.65 93.58 30.29
  Q 93.42 29.88 93.16 30.24
  Q 92.76 30.79 92.21 30.54
  Q 89.50 28.40 90.42 23.98
  Q 91.02 24.78 91.65 24.91
  A 0.62 0.62 0.0 0 0 92.40 24.35
  L 92.80 18.80
  Q 92.89 17.59 93.60 18.58
  L 94.16 19.37
  Q 95.76 21.59 95.44 18.87
  Q 95.23 17.15 95.74 15.51
  Q 95.92 14.92 96.22 15.47
  C 98.81 20.20 101.86 18.39 105.99 19.13
  Q 110.27 19.89 110.05 24.25
  A 0.63 0.63 0.0 0 0 110.95 24.85
  Q 111.71 24.49 112.10 22.98
  Z
  M 95.39 22.23
  Q 97.71 21.37 99.45 23.02
  Q 99.69 23.25 100.00 23.12
  Q 100.22 23.03 100.31 22.80
  Q 100.42 22.55 100.25 22.19
  Q 98.99 19.40 95.50 20.61
  Q 94.83 20.84 94.87 21.56
  L 94.89 21.90
  A 0.38 0.37 -11.1 0 0 95.39 22.23
  Z
  M 107.25 22.19
  Q 107.66 22.33 107.90 21.96
  Q 108.18 21.51 107.46 21.06
  Q 104.32 19.11 102.23 22.01
  A 0.68 0.68 0.0 0 0 102.32 22.91
  L 102.50 23.08
  A 0.38 0.38 0.0 0 0 103.02 23.09
  Q 104.85 21.42 107.25 22.19
  Z
  M 97.93 24.92
  L 98.45 25.17
  Q 99.06 25.46 98.93 24.79
  Q 98.83 24.26 98.27 24.00
  Q 96.83 23.34 95.64 24.25
  A 0.36 0.36 0.0 0 0 95.89 24.90
  L 97.08 24.78
  Q 97.53 24.73 97.93 24.92
  Z
  M 105.60 24.68
  L 106.53 24.76
  Q 107.89 24.88 106.76 24.11
  Q 105.07 22.97 103.88 24.64
  Q 103.53 25.12 104.12 25.16
  Q 104.49 25.18 104.80 24.92
  Q 105.15 24.64 105.60 24.68
  Z
  M 105.36 28.45
  L 97.31 28.33
  A 0.20 0.20 0.0 0 0 97.10 28.52
  L 97.10 28.62
  A 4.16 4.16 0.0 0 0 101.19 32.85
  L 101.33 32.85
  A 4.16 4.16 0.0 0 0 105.56 28.76
  L 105.56 28.66
  A 0.20 0.20 0.0 0 0 105.36 28.45
  Z"
/>
<path fill="#00332e" d="
  M 50.75 27.47
  Q 50.29 28.08 49.71 28.33
  A 0.78 0.77 60.4 0 1 48.76 28.06
  L 47.24 25.85
  A 0.89 0.87 73.5 0 0 46.56 25.47
  Q 43.67 25.30 41.87 23.15
  Q 41.50 22.70 41.38 23.27
  Q 40.25 28.45 34.98 29.35
  Q 34.45 29.43 34.28 29.94
  L 32.97 33.88
  A 0.93 0.91 -50.5 0 0 33.03 34.57
  L 33.96 36.28
  A 0.50 0.50 0.0 0 1 33.70 36.98
  Q 32.50 37.45 31.99 38.18
  C 30.49 35.70 28.10 35.00 27.95 31.27
  C 27.79 27.11 27.77 22.40 30.69 19.22
  C 35.02 14.49 44.22 13.75 48.21 19.75
  Q 49.62 21.86 50.75 27.47
  Z"
/>
<path fill="#00332e" d="
  M 172.22 57.64
  Q 170.09 55.25 167.69 53.07
  Q 163.85 49.57 159.43 48.15
  Q 159.20 48.17 158.96 48.20
  Q 159.88 47.42 160.00 46.54
  Q 160.08 45.97 159.50 46.00
  C 156.22 46.19 153.26 46.73 151.83 42.96
  Q 151.66 42.50 151.40 42.29
  Q 150.70 41.71 150.49 42.44
  L 148.26 42.42
  L 142.74 40.50
  Q 143.35 38.87 143.94 37.35
  C 144.94 34.80 146.77 32.60 148.32 30.34
  A 1.68 1.62 65.8 0 0 148.60 29.56
  C 149.34 21.24 154.59 19.16 161.99 17.79
  C 167.57 16.76 172.48 22.08 173.61 27.23
  Q 174.91 33.19 172.72 42.75
  Q 172.43 43.98 173.43 46.03
  C 175.56 50.42 176.37 53.97 172.22 57.64
  Z
  M 151.17 37.13
  C 151.90 43.21 158.93 46.37 163.92 42.88
  A 1.56 1.51 -61.8 0 1 164.80 42.60
  C 167.65 42.59 171.44 39.86 168.69 36.87
  A 0.87 0.86 -58.0 0 1 168.50 36.04
  Q 169.27 33.41 168.19 30.97
  C 167.43 29.26 166.41 29.31 164.79 28.70
  Q 161.84 27.60 160.10 23.55
  A 0.37 0.37 0.0 0 0 159.45 23.49
  Q 157.70 26.10 154.73 27.21
  A 1.42 1.40 0.4 0 0 153.93 27.99
  Q 153.23 29.75 151.30 29.73
  A 1.20 1.19 -71.9 0 0 150.33 30.23
  Q 148.04 33.42 150.78 36.31
  Q 151.11 36.65 151.17 37.13
  Z"
/>
<path fill="#00332e" d="
  M 95.39 22.23
  A 0.38 0.37 -11.1 0 1 94.89 21.90
  L 94.87 21.56
  Q 94.83 20.84 95.50 20.61
  Q 98.99 19.40 100.25 22.19
  Q 100.42 22.55 100.31 22.80
  Q 100.22 23.03 100.00 23.12
  Q 99.69 23.25 99.45 23.02
  Q 97.71 21.37 95.39 22.23
  Z"
/>
<path fill="#00332e" d="
  M 107.25 22.19
  Q 104.85 21.42 103.02 23.09
  A 0.38 0.38 0.0 0 1 102.50 23.08
  L 102.32 22.91
  A 0.68 0.68 0.0 0 1 102.23 22.01
  Q 104.32 19.11 107.46 21.06
  Q 108.18 21.51 107.90 21.96
  Q 107.66 22.33 107.25 22.19
  Z"
/>
<path fill="#f7b894" d="
  M 50.75 27.47
  C 54.40 30.33 51.15 34.34 51.24 37.70
  Q 47.92 43.74 40.78 43.85
  C 39.09 43.03 38.36 42.40 36.28 42.23
  Q 32.62 41.92 31.99 38.18
  Q 32.50 37.45 33.70 36.98
  A 0.50 0.50 0.0 0 0 33.96 36.28
  L 33.03 34.57
  A 0.93 0.91 -50.5 0 1 32.97 33.88
  L 34.28 29.94
  Q 34.45 29.43 34.98 29.35
  Q 40.25 28.45 41.38 23.27
  Q 41.50 22.70 41.87 23.15
  Q 43.67 25.30 46.56 25.47
  A 0.89 0.87 73.5 0 1 47.24 25.85
  L 48.76 28.06
  A 0.78 0.77 60.4 0 0 49.71 28.33
  Q 50.29 28.08 50.75 27.47
  Z
  M 41.89 29.94
  L 46.58 27.94
  A 0.10 0.10 0.0 0 0 46.63 27.81
  L 46.63 27.80
  A 2.50 1.69 -23.1 0 0 43.66 27.22
  L 43.39 27.34
  A 2.50 1.69 -23.1 0 0 41.75 29.88
  L 41.76 29.89
  A 0.10 0.10 0.0 0 0 41.89 29.94
  Z
  M 45.9584 32.4222
  A 1.30 1.09 66.5 0 0 46.4396 30.7954
  A 1.30 1.09 66.5 0 0 44.9216 30.0378
  A 1.30 1.09 66.5 0 0 44.4404 31.6646
  A 1.30 1.09 66.5 0 0 45.9584 32.4222
  Z
  M 35.79 34.95
  L 39.34 31.29
  A 0.11 0.11 0.0 0 0 39.34 31.13
  L 39.33 31.13
  A 2.50 1.68 -45.8 0 0 36.39 31.75
  L 36.16 31.98
  A 2.50 1.68 -45.8 0 0 35.62 34.94
  L 35.63 34.95
  A 0.11 0.11 0.0 0 0 35.79 34.95
  Z
  M 42.37 34.50
  Q 43.26 35.67 43.06 34.21
  Q 43.00 33.77 42.23 33.37
  Q 41.76 33.13 41.92 33.63
  Q 42.07 34.10 42.37 34.50
  Z
  M 40.0325 36.2144
  A 1.32 1.08 50.9 0 0 40.0381 34.5089
  A 1.32 1.08 50.9 0 0 38.3675 34.1656
  A 1.32 1.08 50.9 0 0 38.3619 35.8711
  A 1.32 1.08 50.9 0 0 40.0325 36.2144
  Z
  M 47.35 34.38
  L 40.91 38.38
  A 0.13 0.13 0.0 0 0 40.86 38.56
  L 40.91 38.63
  A 3.74 3.41 -31.8 0 0 45.88 39.55
  L 46.19 39.36
  A 3.74 3.41 -31.8 0 0 47.57 34.49
  L 47.53 34.43
  A 0.13 0.13 0.0 0 0 47.35 34.38
  Z
  M 37.5520 41.6285
  A 1.58 0.26 53.4 0 0 36.8187 40.2050
  A 1.58 0.26 53.4 0 0 35.6680 39.0915
  A 1.58 0.26 53.4 0 0 36.4013 40.5150
  A 1.58 0.26 53.4 0 0 37.5520 41.6285
  Z"
/>
<path fill="#f7b894" d="
  M 150.78 36.31
  Q 148.04 33.42 150.33 30.23
  A 1.20 1.19 -71.9 0 1 151.30 29.73
  Q 153.23 29.75 153.93 27.99
  A 1.42 1.40 0.4 0 1 154.73 27.21
  Q 157.70 26.10 159.45 23.49
  A 0.37 0.37 0.0 0 1 160.10 23.55
  Q 161.84 27.60 164.79 28.70
  C 166.41 29.31 167.43 29.26 168.19 30.97
  Q 169.27 33.41 168.50 36.04
  A 0.87 0.86 -58.0 0 0 168.69 36.87
  C 171.44 39.86 167.65 42.59 164.80 42.60
  A 1.56 1.51 -61.8 0 0 163.92 42.88
  C 158.93 46.37 151.90 43.21 151.17 37.13
  Q 151.11 36.65 150.78 36.31
  Z
  M 156.63 28.52
  L 160.52 30.76
  A 0.12 0.12 0.0 0 0 160.68 30.71
  L 160.72 30.64
  A 2.24 1.74 29.9 0 0 159.65 28.02
  L 159.44 27.90
  A 2.24 1.74 29.9 0 0 156.63 28.29
  L 156.59 28.36
  A 0.12 0.12 0.0 0 0 156.63 28.52
  Z
  M 162.95 31.70
  L 167.17 33.68
  A 0.11 0.11 0.0 0 0 167.32 33.63
  L 167.32 33.61
  A 2.26 1.71 25.1 0 0 166.00 31.10
  L 165.68 30.95
  A 2.26 1.71 25.1 0 0 162.91 31.54
  L 162.90 31.56
  A 0.11 0.11 0.0 0 0 162.95 31.70
  Z
  M 156.7307 33.5182
  A 1.38 1.01 116.2 0 0 158.2462 32.7259
  A 1.38 1.01 116.2 0 0 157.9493 31.0418
  A 1.38 1.01 116.2 0 0 156.4338 31.8341
  A 1.38 1.01 116.2 0 0 156.7307 33.5182
  Z
  M 151.23 35.22
  Q 151.30 36.15 151.67 35.30
  Q 152.13 34.25 151.98 32.82
  Q 151.90 32.10 151.59 32.76
  Q 151.11 33.73 151.23 35.22
  Z
  M 159.95 34.15
  Q 159.61 34.72 159.07 35.17
  A 0.10 0.10 0.0 0 0 159.06 35.32
  Q 159.16 35.41 159.25 35.51
  Q 159.44 35.71 159.66 35.55
  Q 160.50 34.93 160.52 34.32
  A 0.31 0.31 0.0 0 0 159.95 34.15
  Z
  M 162.9826 36.8572
  A 1.36 1.00 110.1 0 0 164.3891 35.9237
  A 1.36 1.00 110.1 0 0 163.9174 34.3028
  A 1.36 1.00 110.1 0 0 162.5109 35.2363
  A 1.36 1.00 110.1 0 0 162.9826 36.8572
  Z
  M 161.91 39.09
  L 154.95 35.26
  A 0.25 0.25 0.0 0 0 154.61 35.36
  L 154.55 35.47
  A 4.07 4.07 0.0 0 0 156.16 40.99
  L 156.42 41.14
  A 4.07 4.07 0.0 0 0 161.95 39.53
  L 162.01 39.43
  A 0.25 0.25 0.0 0 0 161.91 39.09
  Z
  M 164.81 41.50
  Q 164.53 41.90 164.97 41.69
  Q 166.41 40.99 166.70 39.38
  Q 166.84 38.60 166.39 39.25
  L 164.81 41.50
  Z"
/>
<path fill="#00332e" d="
  M 97.08 24.78
  L 95.89 24.90
  A 0.36 0.36 0.0 0 1 95.64 24.25
  Q 96.83 23.34 98.27 24.00
  Q 98.83 24.26 98.93 24.79
  Q 99.06 25.46 98.45 25.17
  L 97.93 24.92
  Q 97.53 24.73 97.08 24.78
  Z"
/>
<path fill="#00332e" d="
  M 104.80 24.92
  Q 104.49 25.18 104.12 25.16
  Q 103.53 25.12 103.88 24.64
  Q 105.07 22.97 106.76 24.11
  Q 107.89 24.88 106.53 24.76
  L 105.60 24.68
  Q 105.15 24.64 104.80 24.92
  Z"
/>
<path fill="#005a73" d="
  M 124.64 27.95
  Q 124.67 28.13 124.54 28.02
  Q 123.90 27.53 123.50 26.84
  A 0.25 0.25 0.0 0 1 123.89 26.54
  Q 124.50 27.14 124.64 27.95
  Z"
/>
<path fill="#32a6a1" d="
  M 81.15 26.66
  C 85.61 31.04 88.44 35.76 95.44 37.38
  C 96.90 40.63 99.65 40.35 102.96 40.14
  C 105.10 40.00 106.09 38.90 106.77 37.03
  C 109.85 35.45 111.91 35.84 114.33 32.85
  Q 117.01 29.53 120.27 26.71
  Q 123.39 30.68 127.97 32.81
  L 123.79 42.25
  Q 119.24 49.56 117.97 53.47
  Q 117.33 55.43 118.62 55.53
  Q 118.09 57.52 118.29 59.00
  Q 119.44 67.48 120.60 75.28
  A 1.65 1.65 0.0 0 0 123.09 76.45
  Q 126.26 74.54 126.72 71.60
  C 130.82 74.30 134.42 76.32 139.15 79.50
  Q 145.59 83.84 153.18 85.79
  Q 151.58 88.39 151.28 89.75
  Q 150.58 92.93 149.72 96.76
  Q 141.48 87.41 130.46 81.58
  Q 107.03 69.55 81.03 76.13
  L 80.55 72.95
  C 82.27 68.10 82.75 62.11 83.29 57.01
  Q 83.34 56.59 83.02 56.34
  C 85.16 55.25 82.67 50.91 81.99 49.50
  Q 80.07 45.50 77.88 42.89
  L 73.59 32.97
  Q 78.49 30.55 81.15 26.66
  Z"
/>
<path fill="#00332e" d="
  M 41.89 29.94
  A 0.10 0.10 0.0 0 1 41.76 29.89
  L 41.75 29.88
  A 2.50 1.69 -23.1 0 1 43.39 27.34
  L 43.66 27.22
  A 2.50 1.69 -23.1 0 1 46.63 27.80
  L 46.63 27.81
  A 0.10 0.10 0.0 0 1 46.58 27.94
  L 41.89 29.94
  Z"
/>
<path fill="#00332e" d="
  M 156.63 28.52
  A 0.12 0.12 0.0 0 1 156.59 28.36
  L 156.63 28.29
  A 2.24 1.74 29.9 0 1 159.44 27.90
  L 159.65 28.02
  A 2.24 1.74 29.9 0 1 160.72 30.64
  L 160.68 30.71
  A 0.12 0.12 0.0 0 1 160.52 30.76
  L 156.63 28.52
  Z"
/>
<path fill="#f9f3ea" d="
  M 105.36 28.45
  A 0.20 0.20 0.0 0 1 105.56 28.66
  L 105.56 28.76
  A 4.16 4.16 0.0 0 1 101.33 32.85
  L 101.19 32.85
  A 4.16 4.16 0.0 0 1 97.10 28.62
  L 97.10 28.52
  A 0.20 0.20 0.0 0 1 97.31 28.33
  L 105.36 28.45
  Z"
/>
<path fill="#005a73" d="
  M 93.71 31.20
  Q 93.08 31.07 92.21 30.54
  Q 92.76 30.79 93.16 30.24
  Q 93.42 29.88 93.58 30.29
  Q 93.72 30.65 93.71 31.20
  Z"
/>
<ellipse fill="#00332e" cx="0.00" cy="0.00" transform="translate(45.44,31.23) rotate(66.5)" rx="1.30" ry="1.09"/>
<path fill="#00332e" d="
  M 35.79 34.95
  A 0.11 0.11 0.0 0 1 35.63 34.95
  L 35.62 34.94
  A 2.50 1.68 -45.8 0 1 36.16 31.98
  L 36.39 31.75
  A 2.50 1.68 -45.8 0 1 39.33 31.13
  L 39.34 31.13
  A 0.11 0.11 0.0 0 1 39.34 31.29
  L 35.79 34.95
  Z"
/>
<path fill="#00332e" d="
  M 162.95 31.70
  A 0.11 0.11 0.0 0 1 162.90 31.56
  L 162.91 31.54
  A 2.26 1.71 25.1 0 1 165.68 30.95
  L 166.00 31.10
  A 2.26 1.71 25.1 0 1 167.32 33.61
  L 167.32 33.63
  A 0.11 0.11 0.0 0 1 167.17 33.68
  L 162.95 31.70
  Z"
/>
<ellipse fill="#00332e" cx="0.00" cy="0.00" transform="translate(157.34,32.28) rotate(116.2)" rx="1.38" ry="1.01"/>
<path fill="#005a73" d="
  M 151.23 35.22
  Q 151.11 33.73 151.59 32.76
  Q 151.90 32.10 151.98 32.82
  Q 152.13 34.25 151.67 35.30
  Q 151.30 36.15 151.23 35.22
  Z"
/>
<path fill="#005a73" d="
  M 42.37 34.50
  Q 42.07 34.10 41.92 33.63
  Q 41.76 33.13 42.23 33.37
  Q 43.00 33.77 43.06 34.21
  Q 43.26 35.67 42.37 34.50
  Z"
/>
<path fill="#00332e" d="
  M 95.74 36.86
  L 95.46 33.57
  Q 101.52 36.87 105.30 34.29
  A 1.00 0.98 -50.0 0 1 106.24 34.20
  L 106.53 34.32
  Q 107.02 34.53 106.63 34.90
  Q 101.84 39.32 95.74 36.86
  Z"
/>
<path fill="#005a73" d="
  M 159.95 34.15
  A 0.31 0.31 0.0 0 1 160.52 34.32
  Q 160.50 34.93 159.66 35.55
  Q 159.44 35.71 159.25 35.51
  Q 159.16 35.41 159.06 35.32
  A 0.10 0.10 0.0 0 1 159.07 35.17
  Q 159.61 34.72 159.95 34.15
  Z"
/>
<ellipse fill="#00332e" cx="0.00" cy="0.00" transform="translate(39.20,35.19) rotate(50.9)" rx="1.32" ry="1.08"/>
<ellipse fill="#00332e" cx="0.00" cy="0.00" transform="translate(163.45,35.58) rotate(110.1)" rx="1.36" ry="1.00"/>
<path fill="#f9f3ea" d="
  M 47.35 34.38
  A 0.13 0.13 0.0 0 1 47.53 34.43
  L 47.57 34.49
  A 3.74 3.41 -31.8 0 1 46.19 39.36
  L 45.88 39.55
  A 3.74 3.41 -31.8 0 1 40.91 38.63
  L 40.86 38.56
  A 0.13 0.13 0.0 0 1 40.91 38.38
  L 47.35 34.38
  Z"
/>
<path fill="#f9f3ea" d="
  M 161.91 39.09
  A 0.25 0.25 0.0 0 1 162.01 39.43
  L 161.95 39.53
  A 4.07 4.07 0.0 0 1 156.42 41.14
  L 156.16 40.99
  A 4.07 4.07 0.0 0 1 154.55 35.47
  L 154.61 35.36
  A 0.25 0.25 0.0 0 1 154.95 35.26
  L 161.91 39.09
  Z"
/>
<path fill="#00332e" d="
  M 51.24 37.70
  L 52.15 39.95
  C 49.77 44.45 46.78 44.94 42.23 45.11
  Q 41.96 44.91 41.76 44.59
  Q 41.59 44.33 41.31 44.48
  L 40.97 44.66
  Q 40.89 44.70 40.87 44.62
  Q 40.77 44.34 40.78 43.85
  Q 47.92 43.74 51.24 37.70
  Z"
/>
<path fill="#005a73" d="
  M 164.81 41.50
  L 166.39 39.25
  Q 166.84 38.60 166.70 39.38
  Q 166.41 40.99 164.97 41.69
  Q 164.53 41.90 164.81 41.50
  Z"
/>
<ellipse fill="#005a73" cx="0.00" cy="0.00" transform="translate(36.61,40.36) rotate(53.4)" rx="1.58" ry="0.26"/>
<path fill="#d6d58e" d="
  M 77.88 42.89
  Q 80.07 45.50 81.99 49.50
  C 82.67 50.91 85.16 55.25 83.02 56.34
  C 79.59 54.63 73.88 54.24 70.18 53.57
  A 1.08 1.08 0.0 0 0 69.06 55.19
  L 79.92 73.30
  Q 80.10 73.60 80.30 73.31
  L 80.55 72.95
  L 81.03 76.13
  Q 67.20 79.95 55.90 89.04
  L 49.38 94.77
  L 39.22 67.52
  Q 39.03 67.02 38.66 67.40
  C 35.30 70.92 32.65 75.07 27.01 74.20
  Q 23.02 73.59 17.22 70.02
  L 20.49 61.31
  L 25.06 62.00
  A 2.63 2.63 0.0 0 0 27.72 60.75
  C 30.41 56.26 33.68 51.66 38.51 49.14
  Q 41.76 53.15 46.48 53.05
  C 55.43 52.87 57.44 47.00 57.90 39.27
  Q 67.50 38.28 77.88 42.89
  Z"
/>
<path fill="#32a6a1" d="
  M 57.90 39.27
  C 57.44 47.00 55.43 52.87 46.48 53.05
  Q 41.76 53.15 38.51 49.14
  C 39.66 47.88 40.63 48.53 41.52 47.95
  Q 41.76 47.79 41.97 47.50
  Q 42.04 48.25 42.74 48.27
  Q 44.29 49.54 45.59 50.66
  A 1.81 1.80 41.0 0 0 48.11 50.49
  Q 50.20 48.16 53.34 47.79
  A 1.30 1.30 0.0 0 0 54.37 45.95
  C 53.58 44.23 54.85 42.98 54.55 41.19
  Q 55.17 40.26 57.90 39.27
  Z"
/>
<path fill="#f7b894" d="
  M 52.15 39.95
  L 52.70 42.04
  L 50.91 46.36
  Q 50.72 46.82 50.25 46.98
  Q 46.69 48.19 42.80 46.89
  Q 43.21 46.84 43.34 46.60
  Q 43.49 46.32 43.17 46.26
  Q 42.21 46.10 42.23 45.11
  C 46.78 44.94 49.77 44.45 52.15 39.95
  Z"
/>
<path fill="#d6d58e" d="
  M 142.74 40.50
  L 148.26 42.42
  L 149.30 49.92
  A 0.69 0.69 0.0 0 0 150.31 50.44
  C 152.41 49.33 153.07 51.30 153.92 52.59
  Q 154.63 52.75 155.25 52.36
  L 159.01 49.97
  A 0.13 0.12 45.9 0 0 159.01 49.76
  Q 158.84 49.66 158.66 49.65
  Q 158.13 49.64 158.39 49.18
  Q 158.63 48.74 159.43 48.15
  Q 163.85 49.57 167.69 53.07
  Q 170.09 55.25 172.22 57.64
  Q 175.54 62.11 177.01 67.10
  Q 175.22 66.68 172.11 69.61
  Q 170.06 71.54 169.42 73.20
  L 166.51 76.36
  Q 165.12 74.58 164.47 72.37
  Q 164.34 71.95 163.97 71.73
  Q 163.64 71.54 163.25 71.49
  Q 162.57 71.41 163.12 70.87
  Q 163.37 70.64 163.27 70.35
  A 0.37 0.36 -43.9 0 0 162.59 70.34
  Q 160.32 75.88 157.88 81.38
  Q 156.36 84.80 153.18 85.79
  Q 145.59 83.84 139.15 79.50
  C 134.42 76.32 130.82 74.30 126.72 71.60
  C 126.23 66.40 129.37 62.46 131.72 57.81
  Q 132.52 56.21 130.75 56.41
  L 121.78 57.39
  L 121.78 54.69
  Q 121.78 54.16 121.25 54.11
  L 119.72 53.97
  Q 119.18 53.92 118.94 54.41
  Q 118.78 54.74 119.07 55.03
  Q 118.72 55.20 118.62 55.53
  Q 117.33 55.43 117.97 53.47
  Q 119.24 49.56 123.79 42.25
  Q 134.05 40.60 142.74 40.50
  Z"
/>
<path fill="#f9f3ea" d="
  M 54.55 41.19
  C 54.85 42.98 53.58 44.23 54.37 45.95
  A 1.30 1.30 0.0 0 1 53.34 47.79
  Q 50.20 48.16 48.11 50.49
  A 1.81 1.80 41.0 0 1 45.59 50.66
  Q 44.29 49.54 42.74 48.27
  Q 42.04 48.25 41.97 47.50
  Q 42.20 47.21 42.80 46.89
  Q 46.69 48.19 50.25 46.98
  Q 50.72 46.82 50.91 46.36
  L 52.70 42.04
  L 53.38 41.29
  Q 53.67 40.97 54.07 41.12
  Q 54.33 41.21 54.55 41.19
  Z"
/>
<path fill="#f7b894" d="
  M 158.96 48.20
  L 152.80 48.64
  Q 152.35 48.67 152.22 48.24
  L 150.49 42.44
  Q 150.70 41.71 151.40 42.29
  Q 151.66 42.50 151.83 42.96
  C 153.26 46.73 156.22 46.19 159.50 46.00
  Q 160.08 45.97 160.00 46.54
  Q 159.88 47.42 158.96 48.20
  Z"
/>
<path fill="#005a73" d="
  M 155.25 52.36
  Q 154.63 52.75 153.92 52.59
  L 154.31 52.24
  Q 154.49 52.07 154.36 51.86
  Q 154.23 51.66 154.33 51.44
  A 0.39 0.38 85.9 0 1 154.51 51.23
  Q 154.83 51.04 155.25 51.10
  Q 155.84 51.19 155.52 51.70
  Q 155.31 52.04 155.25 52.36
  Z"
/>
<path fill="#f7b894" d="
  M 16.05 60.32
  L 13.43 68.04
  L 1.61 64.03
  A 1.43 1.43 0.0 0 1 0.70 63.08
  Q -0.71 58.39 2.80 55.34
  Q 3.20 54.99 3.73 55.02
  Q 8.52 55.23 10.42 59.44
  Q 10.50 59.63 10.58 59.63
  Q 10.61 59.63 10.64 59.62
  A 0.10 0.06 64.5 0 0 10.65 59.49
  L 9.25 56.77
  Q 9.06 56.39 9.16 55.99
  L 9.47 54.79
  Q 10.24 51.72 11.50 54.62
  C 12.33 56.49 13.36 60.08 16.05 60.32
  Z"
/>
<path fill="#00332e" d="
  M 121.78 57.39
  Q 120.93 56.53 119.83 56.14
  Q 119.38 55.99 119.29 55.53
  Q 119.22 55.21 119.07 55.03
  Q 118.78 54.74 118.94 54.41
  Q 119.18 53.92 119.72 53.97
  L 121.25 54.11
  Q 121.78 54.16 121.78 54.69
  L 121.78 57.39
  Z"
/>
<path fill="#f9f3ea" d="
  M 16.05 60.32
  L 20.49 61.31
  L 17.22 70.02
  L 13.43 68.04
  L 16.05 60.32
  Z"
/>
<path fill="#f7b894" d="
  M 177.01 67.10
  Q 179.48 71.43 185.15 79.86
  Q 186.73 82.21 188.19 83.63
  C 189.24 84.65 190.84 84.77 192.22 85.26
  Q 192.58 85.39 192.93 85.24
  Q 193.17 85.13 193.17 84.88
  A 0.28 0.28 0.0 0 1 193.67 84.71
  C 195.37 87.05 193.47 89.71 195.00 92.88
  L 195.00 94.74
  L 194.22 97.75
  Q 194.07 98.32 193.59 97.98
  C 190.00 95.51 187.68 99.87 185.21 94.25
  Q 183.65 90.71 181.27 87.74
  Q 176.05 81.21 170.39 75.16
  L 169.42 73.20
  Q 170.06 71.54 172.11 69.61
  Q 175.22 66.68 177.01 67.10
  Z
  M 192.45 89.27
  L 192.68 90.03
  A 0.34 0.34 0.0 0 0 193.34 89.94
  L 193.36 88.43
  Q 193.37 87.92 192.88 87.77
  Q 192.45 87.64 192.02 87.70
  Q 191.49 87.78 191.63 88.30
  Q 191.72 88.61 192.02 88.76
  Q 192.35 88.92 192.45 89.27
  Z
  M 188.4399 88.5739
  A 0.92 0.33 -1.0 0 0 187.5142 88.2601
  A 0.92 0.33 -1.0 0 0 186.6001 88.6061
  A 0.92 0.33 -1.0 0 0 187.5258 88.9199
  A 0.92 0.33 -1.0 0 0 188.4399 88.5739
  Z"
/>
<path fill="#00332e" d="
  M 169.42 73.20
  L 170.39 75.16
  Q 169.76 75.20 169.40 75.70
  Q 169.12 76.10 168.67 76.28
  Q 167.72 76.66 166.51 76.36
  L 169.42 73.20
  Z"
/>
<path fill="#005a73" d="
  M 130.46 81.58
  Q 128.01 83.02 125.58 84.43
  C 122.82 86.03 119.76 85.47 116.71 85.45
  A 1.46 1.45 24.1 0 0 115.75 85.81
  L 113.89 87.46
  Q 113.48 87.83 112.93 87.95
  L 107.70 89.03
  Q 107.15 89.14 106.67 88.86
  Q 104.27 87.45 101.83 88.69
  A 1.70 1.66 -51.4 0 1 100.71 88.83
  L 91.76 86.85
  A 6.93 6.87 -48.0 0 0 88.03 87.06
  L 79.62 89.95
  Q 79.08 90.13 79.10 90.70
  L 79.19 93.13
  Q 79.21 93.66 78.75 93.95
  L 73.51 97.23
  A 1.12 1.11 -33.3 0 0 73.18 98.80
  L 74.23 100.35
  A 0.75 0.74 55.2 0 1 74.05 101.37
  L 71.73 103.03
  Q 71.31 103.33 70.92 103.00
  C 66.94 99.64 62.29 102.73 58.32 104.45
  Q 57.81 104.68 58.04 105.18
  L 59.21 107.66
  Q 59.42 108.10 59.90 108.07
  C 65.72 107.70 66.29 116.07 60.92 114.30
  A 0.67 0.66 -73.8 0 0 60.08 114.77
  L 58.93 119.21
  Q 58.81 119.69 59.11 120.08
  L 60.82 122.30
  Q 61.14 122.73 60.73 123.07
  C 58.52 124.91 56.54 126.28 55.23 128.98
  Q 53.38 132.75 51.50 136.55
  A 1.10 1.07 -40.2 0 0 51.43 137.29
  L 52.55 141.51
  Q 52.68 142.03 52.56 142.55
  L 51.50 147.19
  Q 51.37 147.76 51.76 148.19
  L 58.23 155.52
  A 1.39 1.33 -20.1 0 0 59.25 155.97
  L 69.29 155.97
  Q 69.73 155.97 70.01 156.31
  L 72.29 159.10
  Q 72.60 159.48 73.10 159.47
  L 74.97 159.43
  Q 75.50 159.42 75.54 159.94
  C 75.70 162.26 75.45 164.28 76.54 166.43
  Q 77.51 168.35 78.50 170.28
  C 79.65 172.53 79.20 174.34 79.08 176.71
  Q 78.97 179.05 79.85 181.14
  Q 83.13 189.01 86.42 196.93
  Q 86.65 197.50 87.26 197.49
  L 91.89 197.47
  Q 92.48 197.47 92.87 197.02
  L 102.74 185.67
  Q 103.10 185.25 103.08 184.69
  L 102.95 181.91
  Q 102.93 181.34 103.32 180.93
  L 107.09 177.03
  Q 107.45 176.65 107.40 176.14
  L 106.58 167.78
  Q 106.53 167.27 106.84 166.87
  L 117.63 152.78
  A 2.34 2.34 0.0 0 0 115.84 149.02
  L 110.48 148.87
  Q 109.90 148.85 109.63 148.34
  L 102.41 134.30
  Q 102.31 134.11 102.46 134.12
  Q 102.53 134.12 102.56 134.17
  Q 106.54 140.27 110.64 146.35
  Q 110.93 146.79 111.47 146.79
  L 118.35 146.81
  A 0.92 0.91 14.4 0 0 119.15 146.34
  L 123.27 138.99
  A 1.03 1.02 45.8 0 0 123.28 137.98
  L 121.63 135.00
  A 0.30 0.29 -8.9 0 1 121.95 134.57
  L 130.06 136.15
  A 1.20 1.16 -8.5 0 1 130.84 136.71
  Q 133.24 140.79 137.28 143.23
  A 1.89 1.88 -87.2 0 1 137.99 144.02
  L 142.50 153.74
  Q 142.78 154.34 143.17 153.80
  Q 145.73 150.16 145.00 145.70
  A 1.46 1.45 -23.3 0 1 145.56 144.31
  L 152.65 138.92
  Q 153.14 138.54 153.33 139.13
  L 154.67 143.36
  A 1.29 1.27 -85.2 0 0 155.27 144.08
  L 159.08 146.19
  A 1.44 1.43 -84.1 0 1 159.75 147.02
  L 160.84 150.42
  A 1.58 1.55 -79.3 0 0 161.35 151.18
  L 165.44 154.66
  Q 165.41 155.22 165.09 155.90
  L 160.45 153.69
  Q 159.91 153.44 159.69 153.99
  L 158.79 156.28
  Q 158.61 156.73 158.72 157.20
  Q 159.71 161.55 162.76 164.79
  Q 160.43 172.16 156.13 178.62
  C 155.49 179.57 154.78 179.70 153.73 180.00
  Q 148.58 181.43 145.35 185.97
  Q 145.04 186.41 144.58 186.13
  C 136.30 181.21 134.63 190.64 127.66 192.99
  C 126.88 193.26 125.86 193.18 125.01 193.60
  Q 124.53 193.84 124.93 194.20
  Q 125.27 194.51 125.13 195.00
  Q 124.98 195.53 125.42 195.87
  C 128.24 198.07 131.97 196.57 134.75 198.44
  Q 136.06 199.33 134.67 200.10
  Q 125.64 205.03 117.06 207.73
  C 113.53 208.84 109.46 209.20 105.61 210.00
  L 91.75 210.00
  C 89.42 209.35 86.86 209.30 84.78 208.82
  Q 66.88 204.61 52.87 192.64
  Q 52.13 192.01 51.80 191.44
  Q 54.05 189.26 55.76 189.62
  Q 60.75 190.69 64.34 187.58
  Q 64.84 187.15 64.18 187.22
  Q 60.40 187.63 57.40 185.35
  A 1.05 1.04 -34.1 0 0 56.49 185.18
  Q 55.03 185.61 53.90 186.62
  Q 53.53 186.96 53.15 186.64
  Q 50.02 183.99 45.82 185.49
  L 42.81 181.21
  C 45.93 180.27 48.27 179.24 51.82 179.41
  Q 56.13 179.61 60.33 177.12
  A 0.36 0.36 0.0 0 0 60.25 176.47
  L 56.77 175.44
  Q 56.29 175.29 56.10 174.82
  Q 55.11 172.29 52.52 171.77
  Q 51.97 171.66 51.54 171.31
  Q 48.53 168.83 44.85 170.48
  Q 44.36 170.70 43.94 170.38
  Q 40.35 167.61 35.90 169.06
  C 34.17 163.64 32.25 157.85 31.48 152.52
  Q 29.69 140.32 32.31 128.10
  Q 33.17 124.12 33.91 120.28
  Q 33.69 117.98 35.51 118.41
  Q 41.38 119.79 46.38 117.97
  Q 46.99 117.75 46.40 117.46
  C 44.12 116.33 43.65 114.21 41.73 113.14
  Q 39.87 112.09 37.76 111.66
  Q 42.11 103.11 48.16 96.44
  L 54.41 95.00
  A 0.73 0.72 -20.7 0 1 55.19 95.35
  L 56.01 96.83
  Q 56.33 97.41 56.91 97.07
  L 58.83 95.96
  Q 59.30 95.68 59.21 95.14
  L 58.49 91.15
  A 0.74 0.74 0.0 0 0 58.18 90.66
  L 55.90 89.04
  Q 67.20 79.95 81.03 76.13
  Q 107.03 69.55 130.46 81.58
  Z
  M 109.84 182.94
  Q 109.17 186.04 108.55 189.20
  Q 108.45 189.75 109.01 189.75
  L 113.50 189.77
  Q 113.94 189.77 114.16 189.39
  L 117.10 184.44
  Q 117.42 183.90 117.20 183.31
  L 116.23 180.76
  A 1.18 1.15 -46.4 0 1 116.22 179.99
  L 117.26 176.88
  A 0.93 0.92 35.6 0 0 117.11 176.03
  L 115.42 173.84
  Q 115.02 173.32 114.49 173.72
  L 109.48 177.52
  A 0.78 0.78 0.0 0 0 109.20 178.35
  C 109.74 180.16 110.26 181.00 109.84 182.94
  Z"
/>
<path fill="#9fc131" d="
  M 130.46 81.58
  Q 141.48 87.41 149.72 96.76
  Q 158.68 107.73 163.43 121.26
  Q 157.26 119.11 152.45 123.16
  Q 152.02 123.52 151.46 123.47
  Q 149.88 123.32 148.47 124.31
  A 3.59 3.50 -88.2 0 0 147.70 125.05
  L 144.78 128.88
  Q 143.95 129.97 145.32 129.85
  C 149.71 129.45 154.79 129.62 158.44 132.44
  C 161.64 134.90 163.22 133.35 166.31 132.14
  Q 166.97 142.51 166.21 151.50
  Q 166.09 152.91 165.44 154.66
  L 161.35 151.18
  A 1.58 1.55 -79.3 0 1 160.84 150.42
  L 159.75 147.02
  A 1.44 1.43 -84.1 0 0 159.08 146.19
  L 155.27 144.08
  A 1.29 1.27 -85.2 0 1 154.67 143.36
  L 153.33 139.13
  Q 153.14 138.54 152.65 138.92
  L 145.56 144.31
  A 1.46 1.45 -23.3 0 0 145.00 145.70
  Q 145.73 150.16 143.17 153.80
  Q 142.78 154.34 142.50 153.74
  L 137.99 144.02
  A 1.89 1.88 -87.2 0 0 137.28 143.23
  Q 133.24 140.79 130.84 136.71
  A 1.20 1.16 -8.5 0 0 130.06 136.15
  L 121.95 134.57
  A 0.30 0.29 -8.9 0 0 121.63 135.00
  L 123.28 137.98
  A 1.03 1.02 45.8 0 1 123.27 138.99
  L 119.15 146.34
  A 0.92 0.91 14.4 0 1 118.35 146.81
  L 111.47 146.79
  Q 110.93 146.79 110.64 146.35
  Q 106.54 140.27 102.56 134.17
  Q 102.53 134.12 102.46 134.12
  Q 102.31 134.11 102.41 134.30
  L 109.63 148.34
  Q 109.90 148.85 110.48 148.87
  L 115.84 149.02
  A 2.34 2.34 0.0 0 1 117.63 152.78
  L 106.84 166.87
  Q 106.53 167.27 106.58 167.78
  L 107.40 176.14
  Q 107.45 176.65 107.09 177.03
  L 103.32 180.93
  Q 102.93 181.34 102.95 181.91
  L 103.08 184.69
  Q 103.10 185.25 102.74 185.67
  L 92.87 197.02
  Q 92.48 197.47 91.89 197.47
  L 87.26 197.49
  Q 86.65 197.50 86.42 196.93
  Q 83.13 189.01 79.85 181.14
  Q 78.97 179.05 79.08 176.71
  C 79.20 174.34 79.65 172.53 78.50 170.28
  Q 77.51 168.35 76.54 166.43
  C 75.45 164.28 75.70 162.26 75.54 159.94
  Q 75.50 159.42 74.97 159.43
  L 73.10 159.47
  Q 72.60 159.48 72.29 159.10
  L 70.01 156.31
  Q 69.73 155.97 69.29 155.97
  L 59.25 155.97
  A 1.39 1.33 -20.1 0 1 58.23 155.52
  L 51.76 148.19
  Q 51.37 147.76 51.50 147.19
  L 52.56 142.55
  Q 52.68 142.03 52.55 141.51
  L 51.43 137.29
  A 1.10 1.07 -40.2 0 1 51.50 136.55
  Q 53.38 132.75 55.23 128.98
  C 56.54 126.28 58.52 124.91 60.73 123.07
  Q 61.14 122.73 60.82 122.30
  L 59.11 120.08
  Q 58.81 119.69 58.93 119.21
  L 60.08 114.77
  A 0.67 0.66 -73.8 0 1 60.92 114.30
  C 66.29 116.07 65.72 107.70 59.90 108.07
  Q 59.42 108.10 59.21 107.66
  L 58.04 105.18
  Q 57.81 104.68 58.32 104.45
  C 62.29 102.73 66.94 99.64 70.92 103.00
  Q 71.31 103.33 71.73 103.03
  L 74.05 101.37
  A 0.75 0.74 55.2 0 0 74.23 100.35
  L 73.18 98.80
  A 1.12 1.11 -33.3 0 1 73.51 97.23
  L 78.75 93.95
  Q 79.21 93.66 79.19 93.13
  L 79.10 90.70
  Q 79.08 90.13 79.62 89.95
  L 88.03 87.06
  A 6.93 6.87 -48.0 0 1 91.76 86.85
  L 100.71 88.83
  A 1.70 1.66 -51.4 0 0 101.83 88.69
  Q 104.27 87.45 106.67 88.86
  Q 107.15 89.14 107.70 89.03
  L 112.93 87.95
  Q 113.48 87.83 113.89 87.46
  L 115.75 85.81
  A 1.46 1.45 24.1 0 1 116.71 85.45
  C 119.76 85.47 122.82 86.03 125.58 84.43
  Q 128.01 83.02 130.46 81.58
  Z
  M 74.28 117.60
  Q 74.86 116.83 75.00 116.54
  Q 75.98 114.50 73.86 115.39
  Q 69.76 117.13 67.67 120.99
  A 0.35 0.35 0.0 0 0 68.03 121.50
  Q 69.98 121.21 71.72 120.23
  A 1.62 1.59 32.5 0 1 72.67 120.03
  Q 76.33 120.37 78.10 123.38
  Q 78.39 123.88 78.92 124.11
  L 84.32 126.43
  Q 84.76 126.62 85.15 126.34
  L 87.32 124.80
  A 1.13 1.12 49.8 0 1 88.78 124.93
  C 91.11 127.27 94.11 127.09 97.21 127.47
  Q 97.77 127.54 97.98 127.01
  L 99.55 123.25
  Q 99.86 122.51 99.11 122.81
  Q 97.85 123.32 96.50 123.28
  Q 96.01 123.26 95.56 123.05
  Q 94.09 122.36 92.55 121.89
  C 91.11 121.44 89.84 121.96 88.34 122.04
  A 1.04 1.03 -19.2 0 1 87.44 121.61
  L 85.95 119.53
  Q 85.68 119.16 85.23 119.25
  L 83.78 119.54
  Q 83.31 119.64 82.92 119.37
  L 79.59 117.14
  A 0.94 0.94 0.0 0 0 78.49 117.17
  Q 76.81 118.42 74.72 118.47
  A 0.54 0.54 0.0 0 1 74.28 117.60
  Z"
/>
<ellipse fill="#005a73" cx="0.00" cy="0.00" transform="translate(187.52,88.59) rotate(-1.0)" rx="0.92" ry="0.33"/>
<path fill="#9fc131" d="
  M 55.90 89.04
  L 58.18 90.66
  A 0.74 0.74 0.0 0 1 58.49 91.15
  L 59.21 95.14
  Q 59.30 95.68 58.83 95.96
  L 56.91 97.07
  Q 56.33 97.41 56.01 96.83
  L 55.19 95.35
  A 0.73 0.72 -20.7 0 0 54.41 95.00
  L 48.16 96.44
  L 49.38 94.77
  L 55.90 89.04
  Z"
/>
<path fill="#f9f3ea" d="
  M 37.76 111.66
  Q 39.87 112.09 41.73 113.14
  C 43.65 114.21 44.12 116.33 46.40 117.46
  Q 46.99 117.75 46.38 117.97
  Q 41.38 119.79 35.51 118.41
  Q 33.69 117.98 33.91 120.28
  L 33.13 119.27
  A 0.72 0.71 -25.0 0 0 32.39 119.01
  C 28.16 120.00 24.96 117.31 20.30 117.03
  Q 19.67 116.99 20.16 116.60
  C 22.80 114.46 26.20 113.38 29.20 111.84
  Q 33.51 109.62 37.76 111.66
  Z"
/>
<path fill="#005a73" d="
  M 74.28 117.60
  A 0.54 0.54 0.0 0 0 74.72 118.47
  Q 76.81 118.42 78.49 117.17
  A 0.94 0.94 0.0 0 1 79.59 117.14
  L 82.92 119.37
  Q 83.31 119.64 83.78 119.54
  L 85.23 119.25
  Q 85.68 119.16 85.95 119.53
  L 87.44 121.61
  A 1.04 1.03 -19.2 0 0 88.34 122.04
  C 89.84 121.96 91.11 121.44 92.55 121.89
  Q 94.09 122.36 95.56 123.05
  Q 96.01 123.26 96.50 123.28
  Q 97.85 123.32 99.11 122.81
  Q 99.86 122.51 99.55 123.25
  L 97.98 127.01
  Q 97.77 127.54 97.21 127.47
  C 94.11 127.09 91.11 127.27 88.78 124.93
  A 1.13 1.12 49.8 0 0 87.32 124.80
  L 85.15 126.34
  Q 84.76 126.62 84.32 126.43
  L 78.92 124.11
  Q 78.39 123.88 78.10 123.38
  Q 76.33 120.37 72.67 120.03
  A 1.62 1.59 32.5 0 0 71.72 120.23
  Q 69.98 121.21 68.03 121.50
  A 0.35 0.35 0.0 0 1 67.67 120.99
  Q 69.76 117.13 73.86 115.39
  Q 75.98 114.50 75.00 116.54
  Q 74.86 116.83 74.28 117.60
  Z"
/>
<path fill="#f9f3ea" d="
  M 163.43 121.26
  C 167.20 124.43 171.87 122.14 174.96 124.79
  Q 178.31 127.65 182.37 129.40
  Q 182.85 129.60 182.38 129.82
  Q 178.73 131.62 176.77 132.00
  C 172.70 132.80 170.67 129.21 166.31 132.14
  C 163.22 133.35 161.64 134.90 158.44 132.44
  C 154.79 129.62 149.71 129.45 145.32 129.85
  Q 143.95 129.97 144.78 128.88
  L 147.70 125.05
  A 3.59 3.50 -88.2 0 1 148.47 124.31
  Q 149.88 123.32 151.46 123.47
  Q 152.02 123.52 152.45 123.16
  Q 157.26 119.11 163.43 121.26
  Z"
/>
<path fill="#9fc131" d="
  M 165.09 155.90
  L 162.76 164.79
  Q 159.71 161.55 158.72 157.20
  Q 158.61 156.73 158.79 156.28
  L 159.69 153.99
  Q 159.91 153.44 160.45 153.69
  L 165.09 155.90
  Z"
/>
<path fill="#f9f3ea" d="
  M 42.81 181.21
  C 36.73 180.76 31.20 180.35 26.22 176.44
  A 1.22 1.21 49.7 0 1 26.38 174.43
  L 35.90 169.06
  Q 40.35 167.61 43.94 170.38
  Q 44.36 170.70 44.85 170.48
  Q 48.53 168.83 51.54 171.31
  Q 51.97 171.66 52.52 171.77
  Q 55.11 172.29 56.10 174.82
  Q 56.29 175.29 56.77 175.44
  L 60.25 176.47
  A 0.36 0.36 0.0 0 1 60.33 177.12
  Q 56.13 179.61 51.82 179.41
  C 48.27 179.24 45.93 180.27 42.81 181.21
  Z"
/>
<path fill="#9fc131" d="
  M 109.84 182.94
  C 110.26 181.00 109.74 180.16 109.20 178.35
  A 0.78 0.78 0.0 0 1 109.48 177.52
  L 114.49 173.72
  Q 115.02 173.32 115.42 173.84
  L 117.11 176.03
  A 0.93 0.92 35.6 0 1 117.26 176.88
  L 116.22 179.99
  A 1.18 1.15 -46.4 0 0 116.23 180.76
  L 117.20 183.31
  Q 117.42 183.90 117.10 184.44
  L 114.16 189.39
  Q 113.94 189.77 113.50 189.77
  L 109.01 189.75
  Q 108.45 189.75 108.55 189.20
  Q 109.17 186.04 109.84 182.94
  Z"
/>
<path fill="#f9f3ea" d="
  M 51.80 191.44
  L 42.40 189.98
  Q 41.08 189.77 41.70 188.59
  L 41.92 188.17
  A 2.62 2.61 -79.6 0 1 43.94 186.77
  Q 45.42 186.60 45.82 185.49
  Q 50.02 183.99 53.15 186.64
  Q 53.53 186.96 53.90 186.62
  Q 55.03 185.61 56.49 185.18
  A 1.05 1.04 -34.1 0 1 57.40 185.35
  Q 60.40 187.63 64.18 187.22
  Q 64.84 187.15 64.34 187.58
  Q 60.75 190.69 55.76 189.62
  Q 54.05 189.26 51.80 191.44
  Z"
/>
</svg>
