<?xml version="1.0" encoding="UTF-8" standalone="no"?>
<!DOCTYPE svg PUBLIC "-//W3C//DTD SVG 1.1//EN" "http://www.w3.org/Graphics/SVG/1.1/DTD/svg11.dtd">
<svg xmlns="http://www.w3.org/2000/svg" version="1.1" viewBox="0.00 0.00 229.00 186.00">
<g stroke-width="2.00" fill="none" stroke-linecap="butt">
<path stroke="#89706f" vector-effect="non-scaling-stroke" d="
  M 199.45 18.21
  C 197.68 16.80 196.10 17.03 195.47 19.36
  Q 195.45 19.43 195.38 19.43
  Q 195.22 19.44 195.12 19.36
  Q 195.03 19.29 195.03 19.08
  Q 195.01 16.78 194.99 14.36
  Q 194.99 13.84 194.47 13.91
  Q 192.41 14.17 191.14 12.56
  A 0.74 0.74 0.0 0 0 190.25 12.34
  Q 186.72 13.90 183.83 11.45
  Q 183.40 11.08 183.00 11.49
  Q 180.94 13.68 178.23 12.44
  Q 177.67 12.19 177.62 12.80
  L 177.40 15.32"
/>
<path stroke="#89706f" vector-effect="non-scaling-stroke" d="
  M 49.31 22.89
  L 49.41 18.69
  A 0.68 0.67 -68.6 0 0 49.18 18.16
  Q 47.36 16.55 44.96 16.91
  Q 44.82 16.94 44.78 16.80
  Q 44.73 16.67 44.68 16.54
  Q 44.61 16.35 44.79 16.27
  Q 47.70 15.04 49.16 17.37
  Q 49.62 18.10 49.50 17.24
  L 49.23 15.29
  Q 49.15 14.70 48.56 14.74
  Q 46.24 14.89 44.27 13.70
  A 1.01 0.37 -6.3 0 0 43.75 13.57
  Q 43.50 13.56 43.40 13.87
  A 0.50 0.49 -84.1 0 1 43.00 14.20
  Q 38.28 14.91 35.12 11.61
  Q 34.64 11.11 34.67 11.80
  Q 34.90 16.40 32.30 20.11
  Q 31.87 20.73 31.60 20.03
  Q 31.19 18.97 30.37 18.17
  A 1.50 1.49 51.5 0 0 28.58 17.96
  C 24.10 20.58 26.97 26.13 31.80 25.30
  A 1.14 1.14 0.0 0 1 32.67 25.51
  L 35.76 27.72
  Q 35.99 27.89 35.88 28.03
  L 35.88 28.04
  Q 35.79 28.16 35.72 28.10
  L 32.43 25.76
  A 0.75 0.75 0.0 0 0 31.25 26.32
  L 31.05 29.71"
/>
<path stroke="#8f9ca0" vector-effect="non-scaling-stroke" d="
  M 31.05 29.71
  L 30.77 32.19
  Q 30.71 32.68 30.26 32.90
  L 28.96 33.54"
/>
<path stroke="#37694b" vector-effect="non-scaling-stroke" d="
  M 28.96 33.54
  L 22.78 34.69"
/>
<path stroke="#fad3ce" vector-effect="non-scaling-stroke" d="
  M 43.01 29.89
  L 31.05 29.71"
/>
<path stroke="#89706f" vector-effect="non-scaling-stroke" d="
  M 42.05 16.23
  C 41.25 14.32 37.52 14.92 36.39 16.31
  A 0.29 0.29 0.0 0 0 36.76 16.74
  Q 39.17 15.30 41.56 16.66
  A 0.35 0.34 3.6 0 0 42.05 16.23"
/>
<path stroke="#89706f" vector-effect="non-scaling-stroke" d="
  M 40.2651 18.8309
  A 0.95 0.95 0.0 0 0 39.2889 17.9078
  L 39.0890 17.9134
  A 0.95 0.95 0.0 0 0 38.1659 18.8895
  L 38.1949 19.9291
  A 0.95 0.95 0.0 0 0 39.1711 20.8522
  L 39.3710 20.8466
  A 0.95 0.95 0.0 0 0 40.2941 19.8705
  L 40.2651 18.8309"
/>
<path stroke="#89706f" vector-effect="non-scaling-stroke" d="
  M 46.7479 20.8353
  A 1.47 1.09 85.4 0 0 47.7165 19.2826
  A 1.47 1.09 85.4 0 0 46.5121 17.9047
  A 1.47 1.09 85.4 0 0 45.5435 19.4574
  A 1.47 1.09 85.4 0 0 46.7479 20.8353"
/>
<path stroke="#fad3ce" vector-effect="non-scaling-stroke" d="
  M 43.89 25.05
  L 38.59 23.37
  A 0.18 0.18 0.0 0 0 38.37 23.49
  L 38.34 23.59
  A 2.79 2.44 17.6 0 0 40.26 26.75
  L 40.58 26.86
  A 2.79 2.44 17.6 0 0 43.98 25.38
  L 44.01 25.28
  A 0.18 0.18 0.0 0 0 43.89 25.05"
/>
<path stroke="#afaaaf" vector-effect="non-scaling-stroke" d="
  M 194.83 27.47
  L 182.39 30.19"
/>
<path stroke="#afaaaf" vector-effect="non-scaling-stroke" d="
  M 182.43 17.40
  Q 182.37 17.58 182.41 17.76
  Q 182.68 18.97 182.71 17.75
  L 182.76 15.94
  A 1.28 1.26 20.2 0 0 182.27 14.90
  Q 180.33 13.41 178.51 14.96
  Q 178.14 15.28 178.51 15.60
  Q 178.71 15.76 179.00 15.64
  Q 181.21 14.74 182.31 16.41
  Q 182.61 16.88 182.43 17.40"
/>
<path stroke="#89706f" vector-effect="non-scaling-stroke" d="
  M 186.36 15.94
  Q 188.44 14.62 190.53 15.91
  Q 190.62 15.97 190.68 15.89
  L 190.89 15.61
  A 0.34 0.34 0.0 0 0 190.81 15.13
  Q 188.36 13.41 186.06 15.27
  Q 185.96 15.36 185.99 15.49
  L 186.08 15.83
  Q 186.14 16.08 186.36 15.94"
/>
<path stroke="#89706f" vector-effect="non-scaling-stroke" d="
  M 187.6199 20.4797
  A 1.56 1.15 88.9 0 0 188.7398 18.8979
  A 1.56 1.15 88.9 0 0 187.5601 17.3603
  A 1.56 1.15 88.9 0 0 186.4402 18.9421
  A 1.56 1.15 88.9 0 0 187.6199 20.4797"
/>
<path stroke="#89706f" vector-effect="non-scaling-stroke" d="
  M 180.1984 20.4798
  A 1.55 1.07 90.8 0 0 181.2899 18.9449
  A 1.55 1.07 90.8 0 0 180.2416 17.3802
  A 1.55 1.07 90.8 0 0 179.1501 18.9151
  A 1.55 1.07 90.8 0 0 180.1984 20.4798"
/>
<path stroke="#fad3ce" vector-effect="non-scaling-stroke" d="
  M 188.33 22.90
  L 183.03 24.60
  A 0.18 0.18 0.0 0 0 182.92 24.82
  L 182.95 24.92
  A 2.79 2.46 -17.8 0 0 186.36 26.41
  L 186.68 26.30
  A 2.79 2.46 -17.8 0 0 188.59 23.11
  L 188.55 23.01
  A 0.18 0.18 0.0 0 0 188.33 22.90"
/>
<path stroke="#b4d6e1" vector-effect="non-scaling-stroke" d="
  M 196.36 31.79
  Q 196.06 31.68 195.95 32.49
  Q 194.37 43.77 193.62 55.04"
/>
<path stroke="#447382" vector-effect="non-scaling-stroke" d="
  M 193.62 55.04
  L 187.60 55.00
  A 1.92 1.91 1.3 0 1 185.69 53.01
  L 186.43 35.26
  Q 186.44 34.83 186.02 34.75
  Q 183.96 34.40 183.38 35.33"
/>
<path stroke="#b4d6e1" vector-effect="non-scaling-stroke" d="
  M 183.38 35.33
  Q 182.09 34.91 182.04 33.03"
/>
<path stroke="#a8ccaa" vector-effect="non-scaling-stroke" d="
  M 44.46 33.74
  L 38.34 51.10
  Q 37.90 52.35 37.33 51.15
  L 28.96 33.54"
/>
<path stroke="#fad3ce" vector-effect="non-scaling-stroke" d="
  M 40.74 32.32
  Q 40.31 32.16 39.90 32.36
  A 0.24 0.24 0.0 0 0 40.00 32.82
  L 42.23 32.88
  Q 42.77 32.90 42.34 32.57
  Q 41.85 32.19 41.22 32.35
  Q 40.98 32.41 40.74 32.32"
/>
<path stroke="#a8ccaa" vector-effect="non-scaling-stroke" d="
  M 204.53 36.26
  C 202.15 43.92 199.04 53.50 193.36 60.36"
/>
<path stroke="#8f9ca0" vector-effect="non-scaling-stroke" d="
  M 193.36 60.36
  L 193.62 55.04"
/>
<path stroke="#8f9ca0" vector-effect="non-scaling-stroke" d="
  M 183.38 35.33
  L 183.89 60.34"
/>
<path stroke="#a8ccaa" vector-effect="non-scaling-stroke" d="
  M 183.89 60.34
  C 179.33 53.51 176.91 45.74 174.86 37.81"
/>
<path stroke="#a8ccaa" vector-effect="non-scaling-stroke" d="
  M 83.23 50.58
  L 84.18 60.61"
/>
<path stroke="#37694b" vector-effect="non-scaling-stroke" d="
  M 55.17 88.66
  L 47.03 90.66
  Q 46.53 90.78 46.35 90.31
  Q 45.56 88.26 44.96 86.32
  Q 44.71 85.52 43.94 85.03"
/>
<path stroke="#a8ccaa" vector-effect="non-scaling-stroke" d="
  M 43.94 85.03
  L 38.25 70.35
  Q 37.78 69.14 37.49 70.41
  L 34.21 84.95"
/>
<path stroke="#37694b" vector-effect="non-scaling-stroke" d="
  M 34.21 84.95
  L 33.20 90.02
  Q 33.10 90.53 32.59 90.65
  Q 30.85 91.07 29.16 90.31"
/>
<path stroke="#a8ccaa" vector-effect="non-scaling-stroke" d="
  M 29.16 90.31
  L 29.69 89.86"
/>
<path stroke="#5da38b" vector-effect="non-scaling-stroke" d="
  M 29.69 89.86
  L 31.23 88.97
  A 0.59 0.59 0.0 0 0 31.47 88.21
  L 30.59 86.31
  Q 30.40 85.91 30.47 85.47
  Q 31.54 78.84 33.71 72.49
  Q 34.11 71.33 33.80 70.45
  Q 33.54 69.72 33.44 70.48
  Q 32.14 80.01 28.44 85.97"
/>
<path stroke="#a8ccaa" vector-effect="non-scaling-stroke" d="
  M 28.44 85.97
  Q 26.45 86.14 24.32 87.42"
/>
<path stroke="#a2a078" vector-effect="non-scaling-stroke" d="
  M 24.32 87.42
  Q 22.65 86.74 23.15 85.23"
/>
<path stroke="#a8ccaa" vector-effect="non-scaling-stroke" d="
  M 23.15 85.23
  Q 22.66 82.78 20.86 80.32
  Q 20.55 79.90 20.09 80.14
  L 10.86 84.84"
/>
<path stroke="#5da38b" vector-effect="non-scaling-stroke" d="
  M 26.69 36.27
  L 28.10 39.51
  Q 28.12 39.56 28.24 39.50
  L 28.25 39.50
  Q 28.38 39.44 28.33 39.31
  Q 27.76 37.84 27.11 36.38
  Q 27.01 36.15 26.80 36.12
  Q 26.61 36.10 26.69 36.27"
/>
<path stroke="#5da38b" vector-effect="non-scaling-stroke" d="
  M 46.89 38.39
  Q 45.81 41.35 44.91 44.20
  Q 44.31 46.08 45.13 44.28
  Q 46.26 41.76 47.07 38.44
  Q 47.49 36.75 46.89 38.39"
/>
<path stroke="#5da38b" vector-effect="non-scaling-stroke" d="
  M 51.81 47.04
  Q 51.58 45.35 51.47 43.63
  Q 51.47 43.61 51.44 43.61
  Q 49.69 43.47 51.43 43.63
  Q 51.45 43.63 51.45 43.65
  Q 50.93 46.20 52.03 48.42
  Q 52.16 48.67 52.24 48.40
  Q 52.34 48.09 52.09 47.74
  Q 51.86 47.43 51.81 47.04"
/>
<path stroke="#37694b" vector-effect="non-scaling-stroke" d="
  M 42.8469 47.2163
  A 1.01 0.87 14.7 0 0 42.0908 46.1185
  A 1.01 0.87 14.7 0 0 40.8931 46.7037
  A 1.01 0.87 14.7 0 0 41.6492 47.8015
  A 1.01 0.87 14.7 0 0 42.8469 47.2163"
/>
<path stroke="#5da38b" vector-effect="non-scaling-stroke" d="
  M 42.60 51.98
  C 42.82 50.73 43.32 49.51 43.80 48.34
  Q 43.87 48.19 43.71 48.13
  L 43.70 48.12
  Q 43.52 48.05 43.50 48.12
  L 41.98 52.69
  Q 41.79 53.26 42.19 52.81
  Q 42.52 52.46 42.60 51.98"
/>
<path stroke="#5da38b" vector-effect="non-scaling-stroke" d="
  M 33.38 51.14
  Q 33.38 51.01 33.38 50.87
  Q 33.38 50.87 33.37 50.88
  Q 33.36 50.88 33.35 50.88
  Q 33.33 50.88 33.33 50.91
  Q 33.48 52.50 34.41 53.80
  A 0.02 0.02 0.0 0 0 34.44 53.79
  Q 34.20 52.50 33.44 51.34
  Q 33.38 51.25 33.38 51.14"
/>
<path stroke="#37694b" vector-effect="non-scaling-stroke" d="
  M 40.52 54.45
  Q 39.94 54.11 39.28 54.22
  Q 38.81 54.30 38.86 54.78
  L 38.94 55.62
  Q 39.01 56.24 39.62 56.09
  L 41.19 55.71
  A 0.73 0.61 46.0 0 0 41.10 54.44
  Q 41.01 54.40 40.83 54.47
  Q 40.67 54.55 40.52 54.45"
/>
<path stroke="#37694b" vector-effect="non-scaling-stroke" d="
  M 40.96 63.77
  A 0.49 0.49 0.0 0 0 41.01 62.87
  L 39.92 62.32
  A 0.71 0.70 19.9 0 0 38.91 62.79
  Q 38.80 63.26 38.91 63.74
  Q 39.07 64.46 39.76 64.21
  L 40.96 63.77"
/>
<path stroke="#5da38b" vector-effect="non-scaling-stroke" d="
  M 16.34 70.07
  C 17.45 72.15 18.07 75.01 18.91 77.26
  Q 18.98 77.45 19.17 77.38
  L 19.18 77.38
  Q 19.41 77.30 19.35 77.14
  L 16.26 68.99
  Q 16.15 68.70 16.12 69.01
  Q 16.06 69.55 16.34 70.07"
/>
<path stroke="#37694b" vector-effect="non-scaling-stroke" d="
  M 40.76 70.55
  A 0.61 0.61 0.0 0 0 40.10 71.25
  Q 40.29 72.48 41.53 72.24
  A 0.96 0.17 -10.0 0 0 41.64 72.20
  Q 42.45 71.74 41.95 71.04
  Q 41.64 70.62 40.76 70.55"
/>
<path stroke="#37694b" vector-effect="non-scaling-stroke" d="
  M 193.36 60.36
  Q 192.43 73.86 193.12 87.88"
/>
<path stroke="#447382" vector-effect="non-scaling-stroke" d="
  M 193.12 87.88
  L 183.25 87.99"
/>
<path stroke="#37694b" vector-effect="non-scaling-stroke" d="
  M 183.25 87.99
  Q 184.31 74.08 183.89 60.34"
/>
<path stroke="#89706f" vector-effect="non-scaling-stroke" d="
  M 141.72 43.80
  Q 140.47 43.31 139.33 42.55
  Q 138.85 42.23 138.50 42.24
  Q 137.92 42.25 137.67 42.78
  Q 137.46 43.23 136.96 43.22
  L 133.15 43.13"
/>
<path stroke="#37694b" vector-effect="non-scaling-stroke" d="
  M 221.65 84.51
  Q 218.34 81.31 214.66 80.25"
/>
<path stroke="#a2a078" vector-effect="non-scaling-stroke" d="
  M 214.66 80.25
  Q 214.48 77.38 214.61 74.83
  C 214.69 73.21 214.09 72.13 213.49 70.72"
/>
<path stroke="#37694b" vector-effect="non-scaling-stroke" d="
  M 213.49 70.72
  Q 215.67 68.19 216.36 64.52
  A 1.68 1.68 0.0 0 0 213.74 62.83
  L 212.28 63.85
  A 0.59 0.58 -36.2 0 1 211.48 63.73
  Q 210.60 62.59 209.22 62.60
  A 0.94 0.94 0.0 0 0 208.44 63.04
  L 207.85 63.98
  A 0.49 0.49 0.0 0 1 207.04 64.00
  Q 206.00 62.53 204.50 63.82
  Q 204.10 64.16 204.24 64.67
  L 205.85 70.69"
/>
<path stroke="#a2a078" vector-effect="non-scaling-stroke" d="
  M 205.85 70.69
  Q 204.93 71.02 205.50 72.14
  Q 205.74 72.62 206.28 72.62
  L 209.36 72.62
  Q 209.56 72.62 209.57 72.83
  L 209.58 73.09
  A 0.06 0.05 0.0 0 1 209.52 73.14
  L 206.25 73.10
  Q 205.86 73.09 205.63 73.40
  Q 205.06 74.16 205.37 74.92
  Q 205.51 75.28 205.53 75.66
  L 205.83 80.09"
/>
<path stroke="#37694b" vector-effect="non-scaling-stroke" d="
  M 205.83 80.09
  Q 197.68 83.22 193.84 92.27"
/>
<path stroke="#5da38b" vector-effect="non-scaling-stroke" d="
  M 193.84 92.27
  Q 192.96 90.38 193.12 87.88"
/>
<path stroke="#5da38b" vector-effect="non-scaling-stroke" d="
  M 210.34 53.07
  C 210.25 55.76 211.47 57.97 211.39 61.12
  Q 211.38 61.39 211.50 61.59
  Q 211.62 61.82 211.78 62.01
  Q 212.19 62.53 212.16 61.87
  C 212.14 61.36 211.91 61.15 211.85 60.69
  Q 211.56 58.36 211.06 56.06
  C 210.58 53.83 210.55 51.13 209.69 48.67
  Q 209.52 48.19 209.62 47.70
  Q 209.73 47.12 209.59 46.49
  A 0.12 0.12 0.0 0 0 209.36 46.51
  Q 209.26 49.33 210.18 52.01
  Q 210.36 52.53 210.34 53.07"
/>
<path stroke="#b4d6e1" vector-effect="non-scaling-stroke" d="
  M 101.45 40.05
  L 97.15 39.97"
/>
<path stroke="#5da38b" vector-effect="non-scaling-stroke" d="
  M 183.25 87.99
  L 182.58 92.29
  A 1.07 1.04 87.1 0 1 181.83 93.14
  Q 175.59 94.89 169.95 92.29"
/>
<path stroke="#37694b" vector-effect="non-scaling-stroke" d="
  M 155.54 71.10
  Q 155.12 68.18 153.94 65.01
  Q 151.15 57.55 144.15 53.64"
/>
<path stroke="#a2a078" vector-effect="non-scaling-stroke" d="
  M 144.15 53.64
  Q 145.20 51.92 144.97 50.02"
/>
<path stroke="#5da38b" vector-effect="non-scaling-stroke" d="
  M 171.38 52.60
  C 171.42 50.53 172.13 47.99 172.41 45.88
  Q 172.42 45.84 172.41 45.88
  Q 171.58 49.20 171.33 52.61
  Q 171.33 52.62 171.34 52.62
  Q 171.35 52.62 171.35 52.62
  Q 171.38 52.63 171.38 52.60"
/>
<path stroke="#5da38b" vector-effect="non-scaling-stroke" d="
  M 170.8613 60.2836
  A 2.55 0.15 96.5 0 0 171.2990 57.7670
  A 2.55 0.15 96.5 0 0 171.4387 55.2164
  A 2.55 0.15 96.5 0 0 171.0010 57.7330
  A 2.55 0.15 96.5 0 0 170.8613 60.2836"
/>
<path stroke="#5da38b" vector-effect="non-scaling-stroke" d="
  M 170.62 61.63
  C 170.61 62.61 170.22 63.58 170.36 64.68
  Q 170.38 64.81 170.51 64.80
  L 170.52 64.80
  Q 170.63 64.79 170.63 64.63
  L 170.63 61.62
  Q 170.63 61.62 170.63 61.62
  Q 170.63 61.62 170.63 61.62
  Q 170.62 61.62 170.62 61.63"
/>
<path stroke="#b4d6e1" vector-effect="non-scaling-stroke" d="
  M 103.82 46.97
  L 98.91 46.90"
/>
<path stroke="#fad3ce" vector-effect="non-scaling-stroke" d="
  M 98.91 46.90
  Q 99.75 45.55 99.25 45.10
  Q 98.97 44.83 97.98 45.09
  Q 96.78 45.41 96.21 44.82"
/>
<path stroke="#89706f" vector-effect="non-scaling-stroke" d="
  M 144.15 53.64
  L 140.90 52.43
  Q 140.48 52.27 140.40 51.82
  Q 139.91 48.86 139.62 45.89
  Q 139.50 44.66 137.89 44.49
  Q 137.34 44.43 137.37 44.98
  Q 137.38 45.23 137.59 45.39
  Q 138.12 45.81 137.98 46.48
  Q 137.48 48.75 137.85 51.05
  A 0.65 0.65 0.0 0 1 137.29 51.80
  L 134.83 52.11"
/>
<path stroke="#8e7250" vector-effect="non-scaling-stroke" d="
  M 140.91 95.88
  Q 132.26 97.38 126.07 90.78"
/>
<path stroke="#8f9ca0" vector-effect="non-scaling-stroke" d="
  M 126.07 90.78
  L 123.29 87.37"
/>
<path stroke="#37694b" vector-effect="non-scaling-stroke" d="
  M 123.29 87.37
  L 121.51 83.71"
/>
<path stroke="#afaaaf" vector-effect="non-scaling-stroke" d="
  M 98.91 46.90
  Q 93.77 48.77 94.87 56.86"
/>
<path stroke="#fad3ce" vector-effect="non-scaling-stroke" d="
  M 94.87 56.86
  L 94.75 59.98"
/>
<path stroke="#fad3ce" vector-effect="non-scaling-stroke" d="
  M 90.31 60.42
  L 89.56 51.01"
/>
<path stroke="#afaaaf" vector-effect="non-scaling-stroke" d="
  M 104.10 50.57
  L 103.97 56.83"
/>
<path stroke="#b4d6e1" vector-effect="non-scaling-stroke" d="
  M 103.97 56.83
  L 94.87 56.86"
/>
<path stroke="#fad3ce" vector-effect="non-scaling-stroke" d="
  M 103.95 59.51
  L 103.97 56.83"
/>
<path stroke="#89706f" vector-effect="non-scaling-stroke" d="
  M 213.49 70.72
  L 205.85 70.69"
/>
<path stroke="#8f9ca0" vector-effect="non-scaling-stroke" d="
  M 43.94 85.03
  L 34.21 84.95"
/>
<path stroke="#b4d6e1" vector-effect="non-scaling-stroke" d="
  M 29.69 89.86
  Q 28.11 87.13 28.44 85.97"
/>
<path stroke="#89706f" vector-effect="non-scaling-stroke" d="
  M 214.66 80.25
  Q 209.96 82.46 205.83 80.09"
/>
<path stroke="#b4d6e1" vector-effect="non-scaling-stroke" d="
  M 95.02 78.87
  Q 93.22 79.07 91.14 80.22"
/>
<path stroke="#b4d6e1" vector-effect="non-scaling-stroke" d="
  M 118.85 80.89
  L 113.14 78.64"
/>
<path stroke="#b4d6e1" vector-effect="non-scaling-stroke" d="
  M 99.46 81.42
  L 90.79 84.91
  Q 90.35 85.08 90.38 85.56
  Q 90.54 88.32 92.77 90.98"
/>
<path stroke="#fed5af" vector-effect="non-scaling-stroke" d="
  M 92.77 90.98
  L 82.06 91.14"
/>
<path stroke="#a8ccaa" vector-effect="non-scaling-stroke" d="
  M 82.76 82.59
  Q 84.77 82.35 86.53 81.36"
/>
<path stroke="#a8ccaa" vector-effect="non-scaling-stroke" d="
  M 118.83 83.04
  Q 118.25 87.55 123.29 87.37"
/>
<path stroke="#fed5af" vector-effect="non-scaling-stroke" d="
  M 126.07 90.78
  L 116.31 91.11"
/>
<path stroke="#b4d6e1" vector-effect="non-scaling-stroke" d="
  M 116.31 91.11
  L 118.95 86.96
  Q 119.25 86.49 118.73 86.28
  L 109.03 82.37"
/>
<path stroke="#fad3ce" vector-effect="non-scaling-stroke" d="
  M 23.15 85.23
  L 13.46 89.84"
/>
<path stroke="#a8ccaa" vector-effect="non-scaling-stroke" d="
  M 13.46 89.84
  L 12.87 89.71
  Q 12.41 89.60 12.32 89.14
  Q 12.17 88.34 11.59 87.68"
/>
<path stroke="#447382" vector-effect="non-scaling-stroke" d="
  M 217.22 121.82
  C 201.44 129.00 190.83 111.83 192.45 97.99
  Q 192.70 95.84 193.84 92.27"
/>
<path stroke="#b3ac91" vector-effect="non-scaling-stroke" d="
  M 104.13 90.79
  Q 104.11 90.90 103.89 91.05
  Q 103.76 91.14 103.57 91.15
  Q 97.92 91.46 92.77 90.98"
/>
<path stroke="#b3ac91" vector-effect="non-scaling-stroke" d="
  M 116.31 91.11
  C 113.17 91.33 109.45 91.80 107.35 89.84"
/>
<path stroke="#89706f" vector-effect="non-scaling-stroke" d="
  M 53.64 168.90
  L 42.27 168.90"
/>
<path stroke="#89706f" vector-effect="non-scaling-stroke" d="
  M 19.78 167.97
  L 9.12 164.14"
/>
<path stroke="#8f9ca0" vector-effect="non-scaling-stroke" d="
  M 14.19 100.63
  L 16.13 99.51"
/>
<path stroke="#447382" vector-effect="non-scaling-stroke" d="
  M 16.13 99.51
  L 17.52 98.56"
/>
<path stroke="#89706f" vector-effect="non-scaling-stroke" d="
  M 17.52 98.56
  Q 17.91 100.58 20.01 99.87
  Q 23.40 98.74 27.40 95.25
  Q 27.77 94.93 27.60 94.47
  L 26.54 91.65"
/>
<path stroke="#8f9ca0" vector-effect="non-scaling-stroke" d="
  M 26.54 91.65
  Q 27.87 90.33 29.16 90.31"
/>
<path stroke="#447382" vector-effect="non-scaling-stroke" d="
  M 41.00 87.45
  L 40.75 87.44
  Q 40.50 87.43 40.49 87.68
  Q 40.36 92.87 40.28 98.08
  C 40.27 98.96 39.83 99.79 39.66 100.67
  Q 39.63 100.84 39.80 100.87
  L 39.81 100.87
  Q 39.98 100.91 40.00 100.74
  C 40.20 99.59 40.66 98.55 40.63 97.38
  Q 40.54 92.41 41.01 87.47
  A 0.02 0.01 -90.0 0 0 41.00 87.45"
/>
<path stroke="#447382" vector-effect="non-scaling-stroke" d="
  M 36.83 90.65
  Q 36.84 90.21 36.50 90.49
  Q 36.01 90.88 36.21 91.55
  C 36.74 93.31 36.35 96.68 36.33 98.61
  Q 36.33 98.66 36.38 98.66
  Q 36.40 98.66 36.43 98.66
  Q 36.61 98.67 36.61 98.63
  L 36.83 90.65"
/>
<path stroke="#fad3ce" vector-effect="non-scaling-stroke" d="
  M 24.32 87.42
  Q 24.40 89.76 26.54 91.65"
/>
<path stroke="#afaaaf" vector-effect="non-scaling-stroke" d="
  M 17.52 98.56
  Q 16.24 92.89 15.12 90.88
  Q 14.50 89.76 13.59 89.99"
/>
<path stroke="#a2a078" vector-effect="non-scaling-stroke" d="
  M 13.59 89.99
  Q 13.52 89.91 13.46 89.84"
/>
<path stroke="#5da38b" vector-effect="non-scaling-stroke" d="
  M 13.59 89.99
  Q 13.59 90.45 13.32 90.47"
/>
<path stroke="#afaaaf" vector-effect="non-scaling-stroke" d="
  M 221.73 168.38
  L 208.73 168.55"
/>
<path stroke="#afaaaf" vector-effect="non-scaling-stroke" d="
  M 185.49 168.68
  L 173.75 168.41"
/>
<path stroke="#8e7250" vector-effect="non-scaling-stroke" d="
  M 138.38 100.00
  L 75.03 100.00"
/>
<path stroke="#b4d6e1" vector-effect="non-scaling-stroke" d="
  M 16.13 99.51
  L 11.82 91.50"
/>
<path stroke="#8e7250" vector-effect="non-scaling-stroke" d="
  M 137.56 108.31
  L 75.15 100.60"
/>
<path stroke="#8e7250" vector-effect="non-scaling-stroke" d="
  M 132.40 172.67
  L 131.91 178.74"
/>
<path stroke="#8e7250" vector-effect="non-scaling-stroke" d="
  M 81.34 178.78
  L 80.94 172.68"
/>
<path stroke="#fed5af" vector-effect="non-scaling-stroke" d="
  M 111.47 127.47
  Q 110.14 127.24 109.42 128.20
  A 1.36 1.35 -71.7 0 0 110.51 130.37
  L 115.67 130.35
  A 1.24 1.24 0.0 0 0 116.91 129.14
  Q 116.99 126.46 116.81 124.18
  Q 116.74 123.31 116.29 122.95
  Q 115.61 122.40 114.69 122.94
  C 114.18 123.24 114.10 123.73 113.80 124.20
  Q 113.48 124.69 113.11 124.25
  C 107.71 117.92 99.90 121.56 97.36 128.40
  A 1.08 1.07 22.7 0 0 97.92 129.75
  L 98.17 129.86
  A 1.37 1.36 -62.3 0 0 99.92 129.31
  C 102.98 124.11 106.61 121.40 111.87 126.72
  Q 112.85 127.72 111.47 127.47"
/>
<path stroke="#fed5af" vector-effect="non-scaling-stroke" d="
  M 97.23 137.00
  L 97.89 138.35
  Q 98.46 139.49 99.52 138.79
  L 99.98 138.48
  A 1.05 1.04 -28.2 0 0 100.37 137.21
  L 98.50 132.65
  Q 97.89 131.16 96.40 131.80
  L 91.98 133.70
  A 1.15 1.14 -9.1 0 0 91.29 134.65
  Q 91.22 135.34 91.70 135.87
  Q 92.13 136.33 92.75 136.29
  L 93.23 136.26
  Q 93.92 136.21 93.67 136.85
  C 90.52 144.86 95.50 149.55 103.25 149.99
  Q 104.52 150.06 104.70 148.80
  L 104.75 148.49
  A 1.03 1.02 -81.8 0 0 103.89 147.33
  C 97.80 146.44 93.27 144.31 96.59 137.01
  Q 96.90 136.34 97.23 137.00"
/>
<path stroke="#fed5af" vector-effect="non-scaling-stroke" d="
  M 113.47 148.39
  C 122.13 147.09 122.88 139.38 118.91 132.87
  A 1.11 1.11 0.0 0 0 117.49 132.45
  L 117.19 132.59
  A 1.33 1.32 63.0 0 0 116.60 134.43
  C 119.42 139.55 119.38 144.99 112.32 145.88
  Q 111.17 146.02 111.85 145.09
  L 112.39 144.35
  Q 112.77 143.84 112.49 143.27
  Q 112.19 142.67 111.59 142.37
  A 1.23 1.23 0.0 0 0 110.05 142.79
  L 107.33 146.83
  A 1.50 1.49 34.8 0 0 107.71 148.88
  Q 109.41 150.09 111.45 151.34
  Q 112.17 151.78 112.73 151.70
  Q 113.60 151.58 113.84 150.72
  A 1.44 1.44 0.0 0 0 113.81 149.89
  Q 113.64 149.38 113.27 149.03
  Q 112.71 148.51 113.47 148.39"
/>
<path stroke="#afaaaf" vector-effect="non-scaling-stroke" d="
  M 18.82 170.63
  Q 15.73 170.25 12.93 171.39
  Q 12.43 171.59 12.11 171.15
  Q 10.54 168.95 7.63 167.75"
/>
<path stroke="#89706f" vector-effect="non-scaling-stroke" d="
  M 185.07 174.97
  Q 182.57 175.91 180.23 178.16
  A 0.64 0.64 0.0 0 1 179.21 177.97
  Q 177.74 174.73 174.05 174.60"
/>
<path stroke="#89706f" vector-effect="non-scaling-stroke" d="
  M 222.16 174.86
  L 217.66 178.10
  Q 217.17 178.46 216.86 177.94
  Q 214.66 174.41 210.87 174.72"
/>
<path stroke="#afaaaf" vector-effect="non-scaling-stroke" d="
  M 53.38 172.98
  Q 51.55 173.13 50.23 175.34
  A 2.11 2.10 -50.3 0 1 46.85 175.66
  Q 45.48 174.11 42.31 174.11"
/>
</g>
<path fill="#1e3841" d="
  M 187.82 0.00
  L 191.02 0.00
  Q 192.83 1.26 194.01 3.25
  Q 194.29 3.72 194.72 3.40
  C 199.35 -0.03 203.89 6.23 200.70 10.50
  Q 200.42 10.88 200.35 11.35
  L 199.45 18.21
  C 197.68 16.80 196.10 17.03 195.47 19.36
  Q 195.45 19.43 195.38 19.43
  Q 195.22 19.44 195.12 19.36
  Q 195.03 19.29 195.03 19.08
  Q 195.01 16.78 194.99 14.36
  Q 194.99 13.84 194.47 13.91
  Q 192.41 14.17 191.14 12.56
  A 0.74 0.74 0.0 0 0 190.25 12.34
  Q 186.72 13.90 183.83 11.45
  Q 183.40 11.08 183.00 11.49
  Q 180.94 13.68 178.23 12.44
  Q 177.67 12.19 177.62 12.80
  L 177.40 15.32
  C 173.29 13.32 173.21 8.79 176.57 5.87
  A 1.37 1.34 74.7 0 0 177.02 5.06
  C 177.69 1.25 180.98 -0.66 184.35 1.67
  Q 184.79 1.97 185.24 1.68
  L 187.82 0.00
  Z"
/>
<path fill="#1e3841" d="
  M 49.31 22.89
  L 49.41 18.69
  A 0.68 0.67 -68.6 0 0 49.18 18.16
  Q 47.36 16.55 44.96 16.91
  Q 44.82 16.94 44.78 16.80
  Q 44.73 16.67 44.68 16.54
  Q 44.61 16.35 44.79 16.27
  Q 47.70 15.04 49.16 17.37
  Q 49.62 18.10 49.50 17.24
  L 49.23 15.29
  Q 49.15 14.70 48.56 14.74
  Q 46.24 14.89 44.27 13.70
  A 1.01 0.37 -6.3 0 0 43.75 13.57
  Q 43.50 13.56 43.40 13.87
  A 0.50 0.49 -84.1 0 1 43.00 14.20
  Q 38.28 14.91 35.12 11.61
  Q 34.64 11.11 34.67 11.80
  Q 34.90 16.40 32.30 20.11
  Q 31.87 20.73 31.60 20.03
  Q 31.19 18.97 30.37 18.17
  A 1.50 1.49 51.5 0 0 28.58 17.96
  C 24.10 20.58 26.97 26.13 31.80 25.30
  A 1.14 1.14 0.0 0 1 32.67 25.51
  L 35.76 27.72
  Q 35.99 27.89 35.88 28.03
  L 35.88 28.04
  Q 35.79 28.16 35.72 28.10
  L 32.43 25.76
  A 0.75 0.75 0.0 0 0 31.25 26.32
  L 31.05 29.71
  L 30.77 32.19
  Q 30.71 32.68 30.26 32.90
  L 28.96 33.54
  L 22.78 34.69
  L 23.26 30.79
  A 1.29 1.26 -60.1 0 0 23.03 29.89
  C 19.66 25.20 20.24 23.21 23.63 18.97
  A 1.09 1.07 -31.6 0 0 23.85 18.10
  Q 22.25 9.25 30.21 5.72
  Q 30.70 5.50 30.95 5.03
  Q 32.88 1.40 37.26 1.33
  Q 49.60 1.13 50.88 12.81
  C 51.05 14.34 52.01 16.10 51.84 17.51
  Q 51.45 20.72 49.31 22.89
  Z"
/>
<path fill="#f4a79c" d="
  M 49.31 22.89
  C 48.12 26.45 47.77 29.52 43.01 29.89
  L 31.05 29.71
  L 31.25 26.32
  A 0.75 0.75 0.0 0 1 32.43 25.76
  L 35.72 28.10
  Q 35.79 28.16 35.88 28.04
  L 35.88 28.03
  Q 35.99 27.89 35.76 27.72
  L 32.67 25.51
  A 1.14 1.14 0.0 0 0 31.80 25.30
  C 26.97 26.13 24.10 20.58 28.58 17.96
  A 1.50 1.49 51.5 0 1 30.37 18.17
  Q 31.19 18.97 31.60 20.03
  Q 31.87 20.73 32.30 20.11
  Q 34.90 16.40 34.67 11.80
  Q 34.64 11.11 35.12 11.61
  Q 38.28 14.91 43.00 14.20
  A 0.50 0.49 -84.1 0 0 43.40 13.87
  Q 43.50 13.56 43.75 13.57
  A 1.01 0.37 -6.3 0 1 44.27 13.70
  Q 46.24 14.89 48.56 14.74
  Q 49.15 14.70 49.23 15.29
  L 49.50 17.24
  Q 49.62 18.10 49.16 17.37
  Q 47.70 15.04 44.79 16.27
  Q 44.61 16.35 44.68 16.54
  Q 44.73 16.67 44.78 16.80
  Q 44.82 16.94 44.96 16.91
  Q 47.36 16.55 49.18 18.16
  A 0.68 0.67 -68.6 0 1 49.41 18.69
  L 49.31 22.89
  Z
  M 42.05 16.23
  C 41.25 14.32 37.52 14.92 36.39 16.31
  A 0.29 0.29 0.0 0 0 36.76 16.74
  Q 39.17 15.30 41.56 16.66
  A 0.35 0.34 3.6 0 0 42.05 16.23
  Z
  M 40.2651 18.8309
  A 0.95 0.95 0.0 0 0 39.2889 17.9078
  L 39.0890 17.9134
  A 0.95 0.95 0.0 0 0 38.1659 18.8895
  L 38.1949 19.9291
  A 0.95 0.95 0.0 0 0 39.1711 20.8522
  L 39.3710 20.8466
  A 0.95 0.95 0.0 0 0 40.2941 19.8705
  L 40.2651 18.8309
  Z
  M 46.7479 20.8353
  A 1.47 1.09 85.4 0 0 47.7165 19.2826
  A 1.47 1.09 85.4 0 0 46.5121 17.9047
  A 1.47 1.09 85.4 0 0 45.5435 19.4574
  A 1.47 1.09 85.4 0 0 46.7479 20.8353
  Z
  M 43.89 25.05
  L 38.59 23.37
  A 0.18 0.18 0.0 0 0 38.37 23.49
  L 38.34 23.59
  A 2.79 2.44 17.6 0 0 40.26 26.75
  L 40.58 26.86
  A 2.79 2.44 17.6 0 0 43.98 25.38
  L 44.01 25.28
  A 0.18 0.18 0.0 0 0 43.89 25.05
  Z"
/>
<path fill="#f4a79c" d="
  M 199.45 18.21
  Q 202.50 24.53 195.31 25.01
  Q 194.84 25.04 194.83 25.51
  L 194.83 27.47
  L 182.39 30.19
  C 176.46 28.28 176.84 20.23 177.40 15.32
  L 177.62 12.80
  Q 177.67 12.19 178.23 12.44
  Q 180.94 13.68 183.00 11.49
  Q 183.40 11.08 183.83 11.45
  Q 186.72 13.90 190.25 12.34
  A 0.74 0.74 0.0 0 1 191.14 12.56
  Q 192.41 14.17 194.47 13.91
  Q 194.99 13.84 194.99 14.36
  Q 195.01 16.78 195.03 19.08
  Q 195.03 19.29 195.12 19.36
  Q 195.22 19.44 195.38 19.43
  Q 195.45 19.43 195.47 19.36
  C 196.10 17.03 197.68 16.80 199.45 18.21
  Z
  M 182.43 17.40
  Q 182.37 17.58 182.41 17.76
  Q 182.68 18.97 182.71 17.75
  L 182.76 15.94
  A 1.28 1.26 20.2 0 0 182.27 14.90
  Q 180.33 13.41 178.51 14.96
  Q 178.14 15.28 178.51 15.60
  Q 178.71 15.76 179.00 15.64
  Q 181.21 14.74 182.31 16.41
  Q 182.61 16.88 182.43 17.40
  Z
  M 186.36 15.94
  Q 188.44 14.62 190.53 15.91
  Q 190.62 15.97 190.68 15.89
  L 190.89 15.61
  A 0.34 0.34 0.0 0 0 190.81 15.13
  Q 188.36 13.41 186.06 15.27
  Q 185.96 15.36 185.99 15.49
  L 186.08 15.83
  Q 186.14 16.08 186.36 15.94
  Z
  M 187.6199 20.4797
  A 1.56 1.15 88.9 0 0 188.7398 18.8979
  A 1.56 1.15 88.9 0 0 187.5601 17.3603
  A 1.56 1.15 88.9 0 0 186.4402 18.9421
  A 1.56 1.15 88.9 0 0 187.6199 20.4797
  Z
  M 180.1984 20.4798
  A 1.55 1.07 90.8 0 0 181.2899 18.9449
  A 1.55 1.07 90.8 0 0 180.2416 17.3802
  A 1.55 1.07 90.8 0 0 179.1501 18.9151
  A 1.55 1.07 90.8 0 0 180.1984 20.4798
  Z
  M 188.33 22.90
  L 183.03 24.60
  A 0.18 0.18 0.0 0 0 182.92 24.82
  L 182.95 24.92
  A 2.79 2.46 -17.8 0 0 186.36 26.41
  L 186.68 26.30
  A 2.79 2.46 -17.8 0 0 188.59 23.11
  L 188.55 23.01
  A 0.18 0.18 0.0 0 0 188.33 22.90
  Z"
/>
<path fill="#69adc2" d="
  M 182.31 16.41
  Q 181.21 14.74 179.00 15.64
  Q 178.71 15.76 178.51 15.60
  Q 178.14 15.28 178.51 14.96
  Q 180.33 13.41 182.27 14.90
  A 1.28 1.26 20.2 0 1 182.76 15.94
  L 182.71 17.75
  Q 182.68 18.97 182.41 17.76
  Q 182.37 17.58 182.43 17.40
  Q 182.61 16.88 182.31 16.41
  Z"
/>
<path fill="#1e3841" d="
  M 186.36 15.94
  Q 186.14 16.08 186.08 15.83
  L 185.99 15.49
  Q 185.96 15.36 186.06 15.27
  Q 188.36 13.41 190.81 15.13
  A 0.34 0.34 0.0 0 1 190.89 15.61
  L 190.68 15.89
  Q 190.62 15.97 190.53 15.91
  Q 188.44 14.62 186.36 15.94
  Z"
/>
<path fill="#1e3841" d="
  M 36.39 16.31
  C 37.52 14.92 41.25 14.32 42.05 16.23
  A 0.35 0.34 3.6 0 1 41.56 16.66
  Q 39.17 15.30 36.76 16.74
  A 0.29 0.29 0.0 0 1 36.39 16.31
  Z"
/>
<ellipse fill="#1e3841" cx="0.00" cy="0.00" transform="translate(187.59,18.92) rotate(88.9)" rx="1.56" ry="1.15"/>
<ellipse fill="#1e3841" cx="0.00" cy="0.00" transform="translate(180.22,18.93) rotate(90.8)" rx="1.55" ry="1.07"/>
<rect fill="#1e3841" x="-1.05" y="-1.47" transform="translate(39.23,19.38) rotate(-1.6)" width="2.10" height="2.94" rx="0.95"/>
<ellipse fill="#1e3841" cx="0.00" cy="0.00" transform="translate(46.63,19.37) rotate(85.4)" rx="1.47" ry="1.09"/>
<path fill="#ffffff" d="
  M 188.33 22.90
  A 0.18 0.18 0.0 0 1 188.55 23.01
  L 188.59 23.11
  A 2.79 2.46 -17.8 0 1 186.68 26.30
  L 186.36 26.41
  A 2.79 2.46 -17.8 0 1 182.95 24.92
  L 182.92 24.82
  A 0.18 0.18 0.0 0 1 183.03 24.60
  L 188.33 22.90
  Z"
/>
<path fill="#ffffff" d="
  M 43.89 25.05
  A 0.18 0.18 0.0 0 1 44.01 25.28
  L 43.98 25.38
  A 2.79 2.44 17.6 0 1 40.58 26.86
  L 40.26 26.75
  A 2.79 2.44 17.6 0 1 38.34 23.59
  L 38.37 23.49
  A 0.18 0.18 0.0 0 1 38.59 23.37
  L 43.89 25.05
  Z"
/>
<path fill="#69adc2" d="
  M 194.83 27.47
  C 196.87 28.54 195.79 29.97 196.36 31.79
  Q 196.06 31.68 195.95 32.49
  Q 194.37 43.77 193.62 55.04
  L 187.60 55.00
  A 1.92 1.91 1.3 0 1 185.69 53.01
  L 186.43 35.26
  Q 186.44 34.83 186.02 34.75
  Q 183.96 34.40 183.38 35.33
  Q 182.09 34.91 182.04 33.03
  L 182.39 30.19
  L 194.83 27.47
  Z"
/>
<path fill="#ffffff" d="
  M 31.05 29.71
  L 43.01 29.89
  Q 42.53 33.11 44.46 33.74
  L 38.34 51.10
  Q 37.90 52.35 37.33 51.15
  L 28.96 33.54
  L 30.26 32.90
  Q 30.71 32.68 30.77 32.19
  L 31.05 29.71
  Z
  M 40.74 32.32
  Q 40.31 32.16 39.90 32.36
  A 0.24 0.24 0.0 0 0 40.00 32.82
  L 42.23 32.88
  Q 42.77 32.90 42.34 32.57
  Q 41.85 32.19 41.22 32.35
  Q 40.98 32.41 40.74 32.32
  Z"
/>
<path fill="#ffffff" d="
  M 196.36 31.79
  Q 202.66 33.18 204.53 36.26
  C 202.15 43.92 199.04 53.50 193.36 60.36
  L 193.62 55.04
  Q 194.37 43.77 195.95 32.49
  Q 196.06 31.68 196.36 31.79
  Z"
/>
<path fill="#f4a79c" d="
  M 41.22 32.35
  Q 41.85 32.19 42.34 32.57
  Q 42.77 32.90 42.23 32.88
  L 40.00 32.82
  A 0.24 0.24 0.0 0 1 39.90 32.36
  Q 40.31 32.16 40.74 32.32
  Q 40.98 32.41 41.22 32.35
  Z"
/>
<path fill="#ffffff" d="
  M 182.04 33.03
  Q 182.09 34.91 183.38 35.33
  L 183.89 60.34
  C 179.33 53.51 176.91 45.74 174.86 37.81
  Q 174.70 34.43 182.04 33.03
  Z"
/>
<path fill="#509954" d="
  M 28.96 33.54
  L 37.33 51.15
  Q 37.90 52.35 38.34 51.10
  L 44.46 33.74
  C 47.76 35.62 51.02 37.30 54.04 39.63
  Q 60.19 44.39 66.42 49.07
  Q 66.82 49.37 67.32 49.40
  L 83.23 50.58
  L 84.18 60.61
  Q 75.45 61.24 66.50 61.93
  C 62.25 62.26 57.31 57.90 53.97 55.50
  Q 53.54 55.19 53.35 55.70
  C 52.70 57.50 51.89 58.87 51.98 60.84
  Q 52.63 74.57 57.07 87.55
  Q 57.24 88.04 56.75 88.18
  L 55.17 88.66
  L 47.03 90.66
  Q 46.53 90.78 46.35 90.31
  Q 45.56 88.26 44.96 86.32
  Q 44.71 85.52 43.94 85.03
  L 38.25 70.35
  Q 37.78 69.14 37.49 70.41
  L 34.21 84.95
  L 33.20 90.02
  Q 33.10 90.53 32.59 90.65
  Q 30.85 91.07 29.16 90.31
  L 29.69 89.86
  L 31.23 88.97
  A 0.59 0.59 0.0 0 0 31.47 88.21
  L 30.59 86.31
  Q 30.40 85.91 30.47 85.47
  Q 31.54 78.84 33.71 72.49
  Q 34.11 71.33 33.80 70.45
  Q 33.54 69.72 33.44 70.48
  Q 32.14 80.01 28.44 85.97
  Q 26.45 86.14 24.32 87.42
  Q 22.65 86.74 23.15 85.23
  Q 22.66 82.78 20.86 80.32
  Q 20.55 79.90 20.09 80.14
  L 10.86 84.84
  L 0.00 66.60
  L 0.00 64.03
  Q 6.09 49.92 13.54 40.32
  Q 16.69 36.26 22.78 34.69
  L 28.96 33.54
  Z
  M 26.69 36.27
  L 28.10 39.51
  Q 28.12 39.56 28.24 39.50
  L 28.25 39.50
  Q 28.38 39.44 28.33 39.31
  Q 27.76 37.84 27.11 36.38
  Q 27.01 36.15 26.80 36.12
  Q 26.61 36.10 26.69 36.27
  Z
  M 46.89 38.39
  Q 45.81 41.35 44.91 44.20
  Q 44.31 46.08 45.13 44.28
  Q 46.26 41.76 47.07 38.44
  Q 47.49 36.75 46.89 38.39
  Z
  M 51.81 47.04
  Q 51.58 45.35 51.47 43.63
  Q 51.47 43.61 51.44 43.61
  Q 49.69 43.47 51.43 43.63
  Q 51.45 43.63 51.45 43.65
  Q 50.93 46.20 52.03 48.42
  Q 52.16 48.67 52.24 48.40
  Q 52.34 48.09 52.09 47.74
  Q 51.86 47.43 51.81 47.04
  Z
  M 42.8469 47.2163
  A 1.01 0.87 14.7 0 0 42.0908 46.1185
  A 1.01 0.87 14.7 0 0 40.8931 46.7037
  A 1.01 0.87 14.7 0 0 41.6492 47.8015
  A 1.01 0.87 14.7 0 0 42.8469 47.2163
  Z
  M 42.60 51.98
  C 42.82 50.73 43.32 49.51 43.80 48.34
  Q 43.87 48.19 43.71 48.13
  L 43.70 48.12
  Q 43.52 48.05 43.50 48.12
  L 41.98 52.69
  Q 41.79 53.26 42.19 52.81
  Q 42.52 52.46 42.60 51.98
  Z
  M 33.38 51.14
  Q 33.38 51.01 33.38 50.87
  Q 33.38 50.87 33.37 50.88
  Q 33.36 50.88 33.35 50.88
  Q 33.33 50.88 33.33 50.91
  Q 33.48 52.50 34.41 53.80
  A 0.02 0.02 0.0 0 0 34.44 53.79
  Q 34.20 52.50 33.44 51.34
  Q 33.38 51.25 33.38 51.14
  Z
  M 40.52 54.45
  Q 39.94 54.11 39.28 54.22
  Q 38.81 54.30 38.86 54.78
  L 38.94 55.62
  Q 39.01 56.24 39.62 56.09
  L 41.19 55.71
  A 0.73 0.61 46.0 0 0 41.10 54.44
  Q 41.01 54.40 40.83 54.47
  Q 40.67 54.55 40.52 54.45
  Z
  M 40.96 63.77
  A 0.49 0.49 0.0 0 0 41.01 62.87
  L 39.92 62.32
  A 0.71 0.70 19.9 0 0 38.91 62.79
  Q 38.80 63.26 38.91 63.74
  Q 39.07 64.46 39.76 64.21
  L 40.96 63.77
  Z
  M 16.34 70.07
  C 17.45 72.15 18.07 75.01 18.91 77.26
  Q 18.98 77.45 19.17 77.38
  L 19.18 77.38
  Q 19.41 77.30 19.35 77.14
  L 16.26 68.99
  Q 16.15 68.70 16.12 69.01
  Q 16.06 69.55 16.34 70.07
  Z
  M 40.76 70.55
  A 0.61 0.61 0.0 0 0 40.10 71.25
  Q 40.29 72.48 41.53 72.24
  A 0.96 0.17 -10.0 0 0 41.64 72.20
  Q 42.45 71.74 41.95 71.04
  Q 41.64 70.62 40.76 70.55
  Z"
/>
<path fill="#1e3841" d="
  M 193.62 55.04
  L 193.36 60.36
  Q 192.43 73.86 193.12 87.88
  L 183.25 87.99
  Q 184.31 74.08 183.89 60.34
  L 183.38 35.33
  Q 183.96 34.40 186.02 34.75
  Q 186.44 34.83 186.43 35.26
  L 185.69 53.01
  A 1.92 1.91 1.3 0 0 187.60 55.00
  L 193.62 55.04
  Z"
/>
<path fill="#1e3841" d="
  M 141.72 43.80
  Q 140.47 43.31 139.33 42.55
  Q 138.85 42.23 138.50 42.24
  Q 137.92 42.25 137.67 42.78
  Q 137.46 43.23 136.96 43.22
  L 133.15 43.13
  Q 132.56 40.89 131.85 38.50
  Q 131.27 36.58 132.84 36.03
  Q 133.35 35.85 133.78 36.19
  L 134.35 36.63
  Q 134.86 37.02 135.31 36.57
  L 136.52 35.38
  A 0.76 0.76 0.0 0 1 137.34 35.22
  Q 138.35 35.65 138.99 36.52
  Q 139.61 37.37 140.18 36.49
  Q 140.66 35.74 141.50 35.36
  A 1.65 1.65 0.0 0 1 143.82 37.04
  Q 143.42 40.65 141.72 43.80
  Z"
/>
<path fill="#69adc2" d="
  M 28.10 39.51
  L 26.69 36.27
  Q 26.61 36.10 26.80 36.12
  Q 27.01 36.15 27.11 36.38
  Q 27.76 37.84 28.33 39.31
  Q 28.38 39.44 28.25 39.50
  L 28.24 39.50
  Q 28.12 39.56 28.10 39.51
  Z"
/>
<path fill="#509954" d="
  M 204.53 36.26
  C 208.13 38.55 212.70 40.31 215.20 43.71
  C 220.54 50.97 224.19 61.32 226.35 69.71
  Q 227.67 74.86 229.00 78.12
  L 229.00 80.50
  Q 227.61 85.50 221.65 84.51
  Q 218.34 81.31 214.66 80.25
  Q 214.48 77.38 214.61 74.83
  C 214.69 73.21 214.09 72.13 213.49 70.72
  Q 215.67 68.19 216.36 64.52
  A 1.68 1.68 0.0 0 0 213.74 62.83
  L 212.28 63.85
  A 0.59 0.58 -36.2 0 1 211.48 63.73
  Q 210.60 62.59 209.22 62.60
  A 0.94 0.94 0.0 0 0 208.44 63.04
  L 207.85 63.98
  A 0.49 0.49 0.0 0 1 207.04 64.00
  Q 206.00 62.53 204.50 63.82
  Q 204.10 64.16 204.24 64.67
  L 205.85 70.69
  Q 204.93 71.02 205.50 72.14
  Q 205.74 72.62 206.28 72.62
  L 209.36 72.62
  Q 209.56 72.62 209.57 72.83
  L 209.58 73.09
  A 0.06 0.05 0.0 0 1 209.52 73.14
  L 206.25 73.10
  Q 205.86 73.09 205.63 73.40
  Q 205.06 74.16 205.37 74.92
  Q 205.51 75.28 205.53 75.66
  L 205.83 80.09
  Q 197.68 83.22 193.84 92.27
  Q 192.96 90.38 193.12 87.88
  Q 192.43 73.86 193.36 60.36
  C 199.04 53.50 202.15 43.92 204.53 36.26
  Z
  M 210.34 53.07
  C 210.25 55.76 211.47 57.97 211.39 61.12
  Q 211.38 61.39 211.50 61.59
  Q 211.62 61.82 211.78 62.01
  Q 212.19 62.53 212.16 61.87
  C 212.14 61.36 211.91 61.15 211.85 60.69
  Q 211.56 58.36 211.06 56.06
  C 210.58 53.83 210.55 51.13 209.69 48.67
  Q 209.52 48.19 209.62 47.70
  Q 209.73 47.12 209.59 46.49
  A 0.12 0.12 0.0 0 0 209.36 46.51
  Q 209.26 49.33 210.18 52.01
  Q 210.36 52.53 210.34 53.07
  Z"
/>
<path fill="#69adc2" d="
  M 46.89 38.39
  Q 47.49 36.75 47.07 38.44
  Q 46.26 41.76 45.13 44.28
  Q 44.31 46.08 44.91 44.20
  Q 45.81 41.35 46.89 38.39
  Z"
/>
<path fill="#69adc2" d="
  M 101.45 40.05
  L 97.15 39.97
  Q 97.01 39.17 97.20 38.38
  Q 97.35 37.76 97.98 37.76
  L 100.73 37.75
  Q 101.25 37.74 101.37 38.25
  Q 101.57 39.09 101.45 40.05
  Z"
/>
<path fill="#509954" d="
  M 174.86 37.81
  C 176.91 45.74 179.33 53.51 183.89 60.34
  Q 184.31 74.08 183.25 87.99
  L 182.58 92.29
  A 1.07 1.04 87.1 0 1 181.83 93.14
  Q 175.59 94.89 169.95 92.29
  Q 167.95 89.19 168.39 84.24
  Q 169.03 77.03 169.76 69.78
  Q 169.83 69.09 169.33 69.58
  C 167.96 70.90 166.80 72.54 165.16 73.26
  Q 160.26 75.41 155.54 71.10
  Q 155.12 68.18 153.94 65.01
  Q 151.15 57.55 144.15 53.64
  Q 145.20 51.92 144.97 50.02
  L 159.37 58.51
  A 0.36 0.36 0.0 0 0 159.86 58.38
  L 170.40 39.79
  Q 170.64 39.36 171.10 39.19
  L 174.86 37.81
  Z
  M 171.38 52.60
  C 171.42 50.53 172.13 47.99 172.41 45.88
  Q 172.42 45.84 172.41 45.88
  Q 171.58 49.20 171.33 52.61
  Q 171.33 52.62 171.34 52.62
  Q 171.35 52.62 171.35 52.62
  Q 171.38 52.63 171.38 52.60
  Z
  M 170.8613 60.2836
  A 2.55 0.15 96.5 0 0 171.2990 57.7670
  A 2.55 0.15 96.5 0 0 171.4387 55.2164
  A 2.55 0.15 96.5 0 0 171.0010 57.7330
  A 2.55 0.15 96.5 0 0 170.8613 60.2836
  Z
  M 170.62 61.63
  C 170.61 62.61 170.22 63.58 170.36 64.68
  Q 170.38 64.81 170.51 64.80
  L 170.52 64.80
  Q 170.63 64.79 170.63 64.63
  L 170.63 61.62
  Q 170.63 61.62 170.63 61.62
  Q 170.63 61.62 170.63 61.62
  Q 170.62 61.62 170.62 61.63
  Z"
/>
<path fill="#ffffff" d="
  M 97.15 39.97
  L 101.45 40.05
  C 101.18 43.61 102.08 44.25 103.82 46.97
  L 98.91 46.90
  Q 99.75 45.55 99.25 45.10
  Q 98.97 44.83 97.98 45.09
  Q 96.78 45.41 96.21 44.82
  Q 97.61 43.18 97.15 39.97
  Z"
/>
<path fill="#f4a79c" d="
  M 141.72 43.80
  Q 143.04 47.77 144.97 50.02
  Q 145.20 51.92 144.15 53.64
  L 140.90 52.43
  Q 140.48 52.27 140.40 51.82
  Q 139.91 48.86 139.62 45.89
  Q 139.50 44.66 137.89 44.49
  Q 137.34 44.43 137.37 44.98
  Q 137.38 45.23 137.59 45.39
  Q 138.12 45.81 137.98 46.48
  Q 137.48 48.75 137.85 51.05
  A 0.65 0.65 0.0 0 1 137.29 51.80
  L 134.83 52.11
  L 132.75 51.70
  Q 132.18 51.58 132.28 51.00
  C 132.76 48.27 131.53 45.53 133.15 43.13
  L 136.96 43.22
  Q 137.46 43.23 137.67 42.78
  Q 137.92 42.25 138.50 42.24
  Q 138.85 42.23 139.33 42.55
  Q 140.47 43.31 141.72 43.80
  Z"
/>
<path fill="#69adc2" d="
  M 52.09 47.74
  Q 52.34 48.09 52.24 48.40
  Q 52.16 48.67 52.03 48.42
  Q 50.93 46.20 51.45 43.65
  Q 51.45 43.63 51.43 43.63
  Q 49.69 43.47 51.44 43.61
  Q 51.47 43.61 51.47 43.63
  Q 51.58 45.35 51.81 47.04
  Q 51.86 47.43 52.09 47.74
  Z"
/>
<path fill="#1e3841" d="
  M 144.15 53.64
  Q 151.15 57.55 153.94 65.01
  Q 155.12 68.18 155.54 71.10
  C 156.54 81.65 151.59 92.73 140.91 95.88
  Q 132.26 97.38 126.07 90.78
  L 123.29 87.37
  L 121.51 83.71
  C 116.65 70.99 121.67 56.91 134.83 52.11
  L 137.29 51.80
  A 0.65 0.65 0.0 0 0 137.85 51.05
  Q 137.48 48.75 137.98 46.48
  Q 138.12 45.81 137.59 45.39
  Q 137.38 45.23 137.37 44.98
  Q 137.34 44.43 137.89 44.49
  Q 139.50 44.66 139.62 45.89
  Q 139.91 48.86 140.40 51.82
  Q 140.48 52.27 140.90 52.43
  L 144.15 53.64
  Z"
/>
<path fill="#f4a79c" d="
  M 96.21 44.82
  Q 96.78 45.41 97.98 45.09
  Q 98.97 44.83 99.25 45.10
  Q 99.75 45.55 98.91 46.90
  Q 93.77 48.77 94.87 56.86
  L 94.75 59.98
  L 90.31 60.42
  L 89.56 51.01
  L 96.21 44.82
  Z"
/>
<path fill="#69adc2" d="
  M 172.41 45.88
  C 172.13 47.99 171.42 50.53 171.38 52.60
  Q 171.38 52.63 171.35 52.62
  Q 171.35 52.62 171.34 52.62
  Q 171.33 52.62 171.33 52.61
  Q 171.58 49.20 172.41 45.88
  Q 172.42 45.84 172.41 45.88
  Z"
/>
<ellipse fill="#1e3841" cx="0.00" cy="0.00" transform="translate(41.87,46.96) rotate(14.7)" rx="1.01" ry="0.87"/>
<path fill="#69adc2" d="
  M 211.39 61.12
  C 211.47 57.97 210.25 55.76 210.34 53.07
  Q 210.36 52.53 210.18 52.01
  Q 209.26 49.33 209.36 46.51
  A 0.12 0.12 0.0 0 1 209.59 46.49
  Q 209.73 47.12 209.62 47.70
  Q 209.52 48.19 209.69 48.67
  C 210.55 51.13 210.58 53.83 211.06 56.06
  Q 211.56 58.36 211.85 60.69
  C 211.91 61.15 212.14 61.36 212.16 61.87
  Q 212.19 62.53 211.78 62.01
  Q 211.62 61.82 211.50 61.59
  Q 211.38 61.39 211.39 61.12
  Z"
/>
<path fill="#69adc2" d="
  M 98.91 46.90
  L 103.82 46.97
  Q 103.63 49.36 104.10 50.57
  L 103.97 56.83
  L 94.87 56.86
  Q 93.77 48.77 98.91 46.90
  Z"
/>
<path fill="#69adc2" d="
  M 42.60 51.98
  Q 42.52 52.46 42.19 52.81
  Q 41.79 53.26 41.98 52.69
  L 43.50 48.12
  Q 43.52 48.05 43.70 48.12
  L 43.71 48.13
  Q 43.87 48.19 43.80 48.34
  C 43.32 49.51 42.82 50.73 42.60 51.98
  Z"
/>
<path fill="#ffffff" d="
  M 89.56 51.01
  L 90.31 60.42
  Q 86.70 62.58 84.18 60.61
  L 83.23 50.58
  Q 85.77 49.44 88.86 49.64
  Q 89.37 49.67 89.44 50.18
  L 89.56 51.01
  Z"
/>
<path fill="#69adc2" d="
  M 33.44 51.34
  Q 34.20 52.50 34.44 53.79
  A 0.02 0.02 0.0 0 1 34.41 53.80
  Q 33.48 52.50 33.33 50.91
  Q 33.33 50.88 33.35 50.88
  Q 33.36 50.88 33.37 50.88
  Q 33.38 50.87 33.38 50.87
  Q 33.38 51.01 33.38 51.14
  Q 33.38 51.25 33.44 51.34
  Z"
/>
<path fill="#f4a79c" d="
  M 104.10 50.57
  Q 104.88 51.14 105.23 52.61
  Q 105.43 53.42 105.26 54.88
  Q 105.07 56.56 105.18 58.26
  A 0.98 0.96 -20.7 0 1 104.81 59.06
  Q 104.43 59.37 103.95 59.51
  L 103.97 56.83
  L 104.10 50.57
  Z"
/>
<path fill="#1e3841" d="
  M 40.83 54.47
  Q 41.01 54.40 41.10 54.44
  A 0.73 0.61 46.0 0 1 41.19 55.71
  L 39.62 56.09
  Q 39.01 56.24 38.94 55.62
  L 38.86 54.78
  Q 38.81 54.30 39.28 54.22
  Q 39.94 54.11 40.52 54.45
  Q 40.67 54.55 40.83 54.47
  Z"
/>
<ellipse fill="#69adc2" cx="0.00" cy="0.00" transform="translate(171.15,57.75) rotate(96.5)" rx="2.55" ry="0.15"/>
<path fill="#ffffff" d="
  M 94.87 56.86
  L 103.97 56.83
  L 103.95 59.51
  L 103.82 62.94
  Q 103.77 64.00 102.71 64.00
  L 95.94 64.00
  A 1.17 1.17 0.0 0 1 94.77 62.83
  L 94.75 59.98
  L 94.87 56.86
  Z"
/>
<path fill="#69adc2" d="
  M 170.36 64.68
  C 170.22 63.58 170.61 62.61 170.62 61.63
  Q 170.62 61.62 170.63 61.62
  Q 170.63 61.62 170.63 61.62
  Q 170.63 61.62 170.63 61.62
  L 170.63 64.63
  Q 170.63 64.79 170.52 64.80
  L 170.51 64.80
  Q 170.38 64.81 170.36 64.68
  Z"
/>
<path fill="#1e3841" d="
  M 40.96 63.77
  L 39.76 64.21
  Q 39.07 64.46 38.91 63.74
  Q 38.80 63.26 38.91 62.79
  A 0.71 0.70 19.9 0 1 39.92 62.32
  L 41.01 62.87
  A 0.49 0.49 0.0 0 1 40.96 63.77
  Z"
/>
<path fill="#1e3841" d="
  M 213.49 70.72
  L 205.85 70.69
  L 204.24 64.67
  Q 204.10 64.16 204.50 63.82
  Q 206.00 62.53 207.04 64.00
  A 0.49 0.49 0.0 0 0 207.85 63.98
  L 208.44 63.04
  A 0.94 0.94 0.0 0 1 209.22 62.60
  Q 210.60 62.59 211.48 63.73
  A 0.59 0.58 -36.2 0 0 212.28 63.85
  L 213.74 62.83
  A 1.68 1.68 0.0 0 1 216.36 64.52
  Q 215.67 68.19 213.49 70.72
  Z"
/>
<path fill="#69adc2" d="
  M 16.34 70.07
  Q 16.06 69.55 16.12 69.01
  Q 16.15 68.70 16.26 68.99
  L 19.35 77.14
  Q 19.41 77.30 19.18 77.38
  L 19.17 77.38
  Q 18.98 77.45 18.91 77.26
  C 18.07 75.01 17.45 72.15 16.34 70.07
  Z"
/>
<path fill="#ffffff" d="
  M 43.94 85.03
  L 34.21 84.95
  L 37.49 70.41
  Q 37.78 69.14 38.25 70.35
  L 43.94 85.03
  Z"
/>
<path fill="#69adc2" d="
  M 29.69 89.86
  Q 28.11 87.13 28.44 85.97
  Q 32.14 80.01 33.44 70.48
  Q 33.54 69.72 33.80 70.45
  Q 34.11 71.33 33.71 72.49
  Q 31.54 78.84 30.47 85.47
  Q 30.40 85.91 30.59 86.31
  L 31.47 88.21
  A 0.59 0.59 0.0 0 1 31.23 88.97
  L 29.69 89.86
  Z"
/>
<path fill="#1e3841" d="
  M 40.76 70.55
  Q 41.64 70.62 41.95 71.04
  Q 42.45 71.74 41.64 72.20
  A 0.96 0.17 -10.0 0 1 41.53 72.24
  Q 40.29 72.48 40.10 71.25
  A 0.61 0.61 0.0 0 1 40.76 70.55
  Z"
/>
<path fill="#f4a79c" d="
  M 205.85 70.69
  L 213.49 70.72
  C 214.09 72.13 214.69 73.21 214.61 74.83
  Q 214.48 77.38 214.66 80.25
  Q 209.96 82.46 205.83 80.09
  L 205.53 75.66
  Q 205.51 75.28 205.37 74.92
  Q 205.06 74.16 205.63 73.40
  Q 205.86 73.09 206.25 73.10
  L 209.52 73.14
  A 0.06 0.05 -0.0 0 0 209.58 73.09
  L 209.57 72.83
  Q 209.56 72.62 209.36 72.62
  L 206.28 72.62
  Q 205.74 72.62 205.50 72.14
  Q 204.93 71.02 205.85 70.69
  Z"
/>
<path fill="#69adc2" d="
  M 95.02 78.87
  Q 93.22 79.07 91.14 80.22
  Q 90.26 79.27 90.22 78.30
  Q 90.20 77.77 90.63 77.45
  Q 91.75 76.62 93.13 76.32
  Q 93.61 76.22 93.95 76.56
  Q 94.94 77.55 95.02 78.87
  Z"
/>
<path fill="#69adc2" d="
  M 118.85 80.89
  L 113.14 78.64
  Q 112.84 74.69 119.18 78.44
  Q 119.59 78.68 119.52 79.15
  Q 119.39 80.08 118.85 80.89
  Z"
/>
<path fill="#ffffff" d="
  M 95.02 78.87
  L 99.46 81.42
  L 90.79 84.91
  Q 90.35 85.08 90.38 85.56
  Q 90.54 88.32 92.77 90.98
  L 82.06 91.14
  C 81.61 88.07 80.47 83.78 82.76 82.59
  Q 84.77 82.35 86.53 81.36
  Q 88.38 81.17 89.91 83.98
  Q 90.16 84.43 90.36 83.96
  Q 91.16 82.13 91.14 80.22
  Q 93.22 79.07 95.02 78.87
  Z"
/>
<path fill="#ffffff" d="
  M 113.14 78.64
  L 118.85 80.89
  Q 118.34 82.17 118.83 83.04
  Q 118.25 87.55 123.29 87.37
  L 126.07 90.78
  L 116.31 91.11
  L 118.95 86.96
  Q 119.25 86.49 118.73 86.28
  L 109.03 82.37
  L 113.14 78.64
  Z"
/>
<path fill="#509954" d="
  M 86.53 81.36
  Q 84.77 82.35 82.76 82.59
  Q 82.15 81.72 82.03 80.83
  Q 81.96 80.32 82.45 80.16
  L 85.29 79.21
  Q 85.85 79.03 86.01 79.59
  L 86.53 81.36
  Z"
/>
<path fill="#ffffff" d="
  M 23.15 85.23
  L 13.46 89.84
  L 12.87 89.71
  Q 12.41 89.60 12.32 89.14
  Q 12.17 88.34 11.59 87.68
  Q 10.72 86.08 10.86 84.84
  L 20.09 80.14
  Q 20.55 79.90 20.86 80.32
  Q 22.66 82.78 23.15 85.23
  Z"
/>
<path fill="#1e3841" d="
  M 205.83 80.09
  Q 209.96 82.46 214.66 80.25
  Q 218.34 81.31 221.65 84.51
  Q 230.17 94.30 227.69 106.74
  C 226.31 113.64 222.73 117.71 217.22 121.82
  C 201.44 129.00 190.83 111.83 192.45 97.99
  Q 192.70 95.84 193.84 92.27
  Q 197.68 83.22 205.83 80.09
  Z"
/>
<path fill="#69adc2" d="
  M 99.46 81.42
  L 104.13 90.79
  Q 104.11 90.90 103.89 91.05
  Q 103.76 91.14 103.57 91.15
  Q 97.92 91.46 92.77 90.98
  Q 90.54 88.32 90.38 85.56
  Q 90.35 85.08 90.79 84.91
  L 99.46 81.42
  Z"
/>
<path fill="#69adc2" d="
  M 109.03 82.37
  L 118.73 86.28
  Q 119.25 86.49 118.95 86.96
  L 116.31 91.11
  C 113.17 91.33 109.45 91.80 107.35 89.84
  L 109.03 82.37
  Z"
/>
<path fill="#509954" d="
  M 118.83 83.04
  L 121.51 83.71
  L 123.29 87.37
  Q 118.25 87.55 118.83 83.04
  Z"
/>
<path fill="#1e3841" d="
  M 34.21 84.95
  L 43.94 85.03
  Q 44.71 85.52 44.96 86.32
  Q 45.56 88.26 46.35 90.31
  Q 46.53 90.78 47.03 90.66
  L 55.17 88.66
  C 56.45 111.73 57.39 134.32 56.14 158.00
  Q 55.93 161.92 54.49 164.65
  Q 54.25 165.10 54.31 165.60
  Q 54.63 168.09 53.64 168.90
  L 42.27 168.90
  Q 41.53 167.38 41.79 164.60
  A 0.95 0.93 22.1 0 0 41.43 163.77
  Q 40.42 162.99 40.38 162.25
  Q 38.82 134.19 37.38 106.14
  Q 37.36 105.93 37.15 105.93
  L 37.14 105.93
  Q 36.93 105.93 36.92 106.14
  Q 35.90 119.44 34.60 132.74
  Q 34.20 136.85 33.14 139.38
  C 29.75 147.51 26.63 156.00 22.59 163.82
  Q 21.81 165.33 21.09 167.52
  Q 20.73 168.65 19.78 167.97
  L 9.12 164.14
  Q 7.76 163.56 9.35 160.75
  A 1.10 1.09 -42.3 0 0 9.40 159.79
  C 9.07 159.02 8.88 158.60 9.13 157.73
  Q 12.26 147.11 15.39 136.48
  Q 16.79 131.71 16.40 126.75
  Q 15.38 113.78 14.19 100.63
  L 16.13 99.51
  L 17.52 98.56
  Q 17.91 100.58 20.01 99.87
  Q 23.40 98.74 27.40 95.25
  Q 27.77 94.93 27.60 94.47
  L 26.54 91.65
  Q 27.87 90.33 29.16 90.31
  Q 30.85 91.07 32.59 90.65
  Q 33.10 90.53 33.20 90.02
  L 34.21 84.95
  Z
  M 41.00 87.45
  L 40.75 87.44
  Q 40.50 87.43 40.49 87.68
  Q 40.36 92.87 40.28 98.08
  C 40.27 98.96 39.83 99.79 39.66 100.67
  Q 39.63 100.84 39.80 100.87
  L 39.81 100.87
  Q 39.98 100.91 40.00 100.74
  C 40.20 99.59 40.66 98.55 40.63 97.38
  Q 40.54 92.41 41.01 87.47
  A 0.02 0.01 -90.0 0 0 41.00 87.45
  Z
  M 36.83 90.65
  Q 36.84 90.21 36.50 90.49
  Q 36.01 90.88 36.21 91.55
  C 36.74 93.31 36.35 96.68 36.33 98.61
  Q 36.33 98.66 36.38 98.66
  Q 36.40 98.66 36.43 98.66
  Q 36.61 98.67 36.61 98.63
  L 36.83 90.65
  Z"
/>
<path fill="#f4a79c" d="
  M 23.15 85.23
  Q 22.65 86.74 24.32 87.42
  Q 24.40 89.76 26.54 91.65
  L 27.60 94.47
  Q 27.77 94.93 27.40 95.25
  Q 23.40 98.74 20.01 99.87
  Q 17.91 100.58 17.52 98.56
  Q 16.24 92.89 15.12 90.88
  Q 14.50 89.76 13.59 89.99
  Q 13.52 89.91 13.46 89.84
  L 23.15 85.23
  Z"
/>
<path fill="#ffffff" d="
  M 28.44 85.97
  Q 28.11 87.13 29.69 89.86
  L 29.16 90.31
  Q 27.87 90.33 26.54 91.65
  Q 24.40 89.76 24.32 87.42
  Q 26.45 86.14 28.44 85.97
  Z"
/>
<path fill="#69adc2" d="
  M 41.00 87.45
  A 0.02 0.01 -90.0 0 1 41.01 87.47
  Q 40.54 92.41 40.63 97.38
  C 40.66 98.55 40.20 99.59 40.00 100.74
  Q 39.98 100.91 39.81 100.87
  L 39.80 100.87
  Q 39.63 100.84 39.66 100.67
  C 39.83 99.79 40.27 98.96 40.28 98.08
  Q 40.36 92.87 40.49 87.68
  Q 40.50 87.43 40.75 87.44
  L 41.00 87.45
  Z"
/>
<path fill="#509954" d="
  M 11.59 87.68
  Q 12.17 88.34 12.32 89.14
  Q 12.41 89.60 12.87 89.71
  L 13.46 89.84
  Q 13.52 89.91 13.59 89.99
  Q 13.59 90.45 13.32 90.47
  Q 13.11 89.90 11.97 89.96
  Q 11.42 89.99 11.25 89.47
  Q 11.00 88.68 11.59 87.68
  Z"
/>
<path fill="#69adc2" d="
  M 193.12 87.88
  Q 192.96 90.38 193.84 92.27
  Q 192.70 95.84 192.45 97.99
  C 190.83 111.83 201.44 129.00 217.22 121.82
  L 221.73 168.38
  L 208.73 168.55
  L 191.01 107.16
  Q 190.47 105.27 190.35 107.24
  L 186.81 167.56
  Q 186.78 168.09 186.30 168.31
  L 185.49 168.68
  L 173.75 168.41
  Q 172.63 168.58 172.60 167.75
  Q 171.28 130.01 169.95 92.29
  Q 175.59 94.89 181.83 93.14
  A 1.07 1.04 87.1 0 0 182.58 92.29
  L 183.25 87.99
  L 193.12 87.88
  Z"
/>
<path fill="#fdab5f" d="
  M 107.35 89.84
  C 109.45 91.80 113.17 91.33 116.31 91.11
  L 126.07 90.78
  Q 132.26 97.38 140.91 95.88
  Q 141.18 97.46 140.91 99.04
  Q 140.82 99.55 140.34 99.78
  Q 139.57 100.14 138.38 100.00
  L 75.03 100.00
  Q 72.34 100.41 72.33 98.68
  Q 72.30 95.53 72.36 92.34
  A 1.16 1.16 0.0 0 1 73.51 91.20
  L 82.06 91.14
  L 92.77 90.98
  Q 97.92 91.46 103.57 91.15
  Q 103.76 91.14 103.89 91.05
  Q 104.11 90.90 104.13 90.79
  Q 106.47 92.16 107.35 89.84
  Z"
/>
<path fill="#69adc2" d="
  M 13.59 89.99
  Q 14.50 89.76 15.12 90.88
  Q 16.24 92.89 17.52 98.56
  L 16.13 99.51
  L 11.82 91.50
  L 13.32 90.47
  Q 13.59 90.45 13.59 89.99
  Z"
/>
<path fill="#69adc2" d="
  M 36.83 90.65
  L 36.61 98.63
  Q 36.61 98.67 36.43 98.66
  Q 36.40 98.66 36.38 98.66
  Q 36.33 98.66 36.33 98.61
  C 36.35 96.68 36.74 93.31 36.21 91.55
  Q 36.01 90.88 36.50 90.49
  Q 36.84 90.21 36.83 90.65
  Z"
/>
<path fill="#ffffff" d="
  M 11.82 91.50
  L 16.13 99.51
  L 14.19 100.63
  L 10.90 102.28
  Q 9.69 102.89 9.05 101.68
  L 6.06 96.02
  A 1.33 1.32 62.1 0 1 6.61 94.22
  L 11.82 91.50
  Z"
/>
<path fill="#1e3841" d="
  M 75.03 100.00
  L 138.38 100.00
  L 137.56 108.31
  L 75.15 100.60
  L 75.03 100.00
  Z"
/>
<path fill="#fdab5f" d="
  M 137.56 108.31
  L 132.40 172.67
  L 131.91 178.74
  Q 130.85 182.71 127.75 182.72
  Q 107.58 182.78 87.42 182.73
  C 84.27 182.72 82.22 181.81 81.34 178.78
  L 80.94 172.68
  L 75.15 100.60
  L 137.56 108.31
  Z
  M 111.47 127.47
  Q 110.14 127.24 109.42 128.20
  A 1.36 1.35 -71.7 0 0 110.51 130.37
  L 115.67 130.35
  A 1.24 1.24 0.0 0 0 116.91 129.14
  Q 116.99 126.46 116.81 124.18
  Q 116.74 123.31 116.29 122.95
  Q 115.61 122.40 114.69 122.94
  C 114.18 123.24 114.10 123.73 113.80 124.20
  Q 113.48 124.69 113.11 124.25
  C 107.71 117.92 99.90 121.56 97.36 128.40
  A 1.08 1.07 22.7 0 0 97.92 129.75
  L 98.17 129.86
  A 1.37 1.36 -62.3 0 0 99.92 129.31
  C 102.98 124.11 106.61 121.40 111.87 126.72
  Q 112.85 127.72 111.47 127.47
  Z
  M 97.23 137.00
  L 97.89 138.35
  Q 98.46 139.49 99.52 138.79
  L 99.98 138.48
  A 1.05 1.04 -28.2 0 0 100.37 137.21
  L 98.50 132.65
  Q 97.89 131.16 96.40 131.80
  L 91.98 133.70
  A 1.15 1.14 -9.1 0 0 91.29 134.65
  Q 91.22 135.34 91.70 135.87
  Q 92.13 136.33 92.75 136.29
  L 93.23 136.26
  Q 93.92 136.21 93.67 136.85
  C 90.52 144.86 95.50 149.55 103.25 149.99
  Q 104.52 150.06 104.70 148.80
  L 104.75 148.49
  A 1.03 1.02 -81.8 0 0 103.89 147.33
  C 97.80 146.44 93.27 144.31 96.59 137.01
  Q 96.90 136.34 97.23 137.00
  Z
  M 113.47 148.39
  C 122.13 147.09 122.88 139.38 118.91 132.87
  A 1.11 1.11 0.0 0 0 117.49 132.45
  L 117.19 132.59
  A 1.33 1.32 63.0 0 0 116.60 134.43
  C 119.42 139.55 119.38 144.99 112.32 145.88
  Q 111.17 146.02 111.85 145.09
  L 112.39 144.35
  Q 112.77 143.84 112.49 143.27
  Q 112.19 142.67 111.59 142.37
  A 1.23 1.23 0.0 0 0 110.05 142.79
  L 107.33 146.83
  A 1.50 1.49 34.8 0 0 107.71 148.88
  Q 109.41 150.09 111.45 151.34
  Q 112.17 151.78 112.73 151.70
  Q 113.60 151.58 113.84 150.72
  A 1.44 1.44 0.0 0 0 113.81 149.89
  Q 113.64 149.38 113.27 149.03
  Q 112.71 148.51 113.47 148.39
  Z"
/>
<path fill="#ffffff" d="
  M 111.47 127.47
  Q 112.85 127.72 111.87 126.72
  C 106.61 121.40 102.98 124.11 99.92 129.31
  A 1.37 1.36 -62.3 0 1 98.17 129.86
  L 97.92 129.75
  A 1.08 1.07 22.7 0 1 97.36 128.40
  C 99.90 121.56 107.71 117.92 113.11 124.25
  Q 113.48 124.69 113.80 124.20
  C 114.10 123.73 114.18 123.24 114.69 122.94
  Q 115.61 122.40 116.29 122.95
  Q 116.74 123.31 116.81 124.18
  Q 116.99 126.46 116.91 129.14
  A 1.24 1.24 0.0 0 1 115.67 130.35
  L 110.51 130.37
  A 1.36 1.35 -71.7 0 1 109.42 128.20
  Q 110.14 127.24 111.47 127.47
  Z"
/>
<path fill="#ffffff" d="
  M 96.59 137.01
  C 93.27 144.31 97.80 146.44 103.89 147.33
  A 1.03 1.02 -81.8 0 1 104.75 148.49
  L 104.70 148.80
  Q 104.52 150.06 103.25 149.99
  C 95.50 149.55 90.52 144.86 93.67 136.85
  Q 93.92 136.21 93.23 136.26
  L 92.75 136.29
  Q 92.13 136.33 91.70 135.87
  Q 91.22 135.34 91.29 134.65
  A 1.15 1.14 -9.1 0 1 91.98 133.70
  L 96.40 131.80
  Q 97.89 131.16 98.50 132.65
  L 100.37 137.21
  A 1.05 1.04 -28.2 0 1 99.98 138.48
  L 99.52 138.79
  Q 98.46 139.49 97.89 138.35
  L 97.23 137.00
  Q 96.90 136.34 96.59 137.01
  Z"
/>
<path fill="#ffffff" d="
  M 113.27 149.03
  Q 113.64 149.38 113.81 149.89
  A 1.44 1.44 0.0 0 1 113.84 150.72
  Q 113.60 151.58 112.73 151.70
  Q 112.17 151.78 111.45 151.34
  Q 109.41 150.09 107.71 148.88
  A 1.50 1.49 34.8 0 1 107.33 146.83
  L 110.05 142.79
  A 1.23 1.23 0.0 0 1 111.59 142.37
  Q 112.19 142.67 112.49 143.27
  Q 112.77 143.84 112.39 144.35
  L 111.85 145.09
  Q 111.17 146.02 112.32 145.88
  C 119.38 144.99 119.42 139.55 116.60 134.43
  A 1.33 1.32 63.0 0 1 117.19 132.59
  L 117.49 132.45
  A 1.11 1.11 0.0 0 1 118.91 132.87
  C 122.88 139.38 122.13 147.09 113.47 148.39
  Q 112.71 148.51 113.27 149.03
  Z"
/>
<path fill="#f4a79c" d="
  M 9.12 164.14
  L 19.78 167.97
  Q 18.90 169.26 18.82 170.63
  Q 15.73 170.25 12.93 171.39
  Q 12.43 171.59 12.11 171.15
  Q 10.54 168.95 7.63 167.75
  Q 8.92 166.28 9.12 164.14
  Z"
/>
<path fill="#69adc2" d="
  M 7.63 167.75
  Q 10.54 168.95 12.11 171.15
  Q 12.43 171.59 12.93 171.39
  Q 15.73 170.25 18.82 170.63
  Q 21.27 172.45 21.62 175.86
  Q 21.68 176.39 22.02 176.79
  Q 24.83 180.02 28.54 182.15
  A 1.33 1.33 0.0 0 1 29.12 183.76
  Q 28.62 185.12 27.10 186.00
  L 16.99 186.00
  L 3.24 178.26
  Q 2.81 178.02 3.02 177.58
  L 7.63 167.75
  Z"
/>
<path fill="#f4a79c" d="
  M 185.49 168.68
  L 185.07 174.97
  Q 182.57 175.91 180.23 178.16
  A 0.64 0.64 0.0 0 1 179.21 177.97
  Q 177.74 174.73 174.05 174.60
  L 173.75 168.41
  L 185.49 168.68
  Z"
/>
<path fill="#f4a79c" d="
  M 221.73 168.38
  Q 220.89 171.20 222.16 174.86
  L 217.66 178.10
  Q 217.17 178.46 216.86 177.94
  Q 214.66 174.41 210.87 174.72
  Q 210.45 171.18 208.73 168.55
  L 221.73 168.38
  Z"
/>
<path fill="#f4a79c" d="
  M 53.64 168.90
  L 53.38 172.98
  Q 51.55 173.13 50.23 175.34
  A 2.11 2.10 -50.3 0 1 46.85 175.66
  Q 45.48 174.11 42.31 174.11
  Q 42.85 171.53 42.27 168.90
  L 53.64 168.90
  Z"
/>
<path fill="#1e3841" d="
  M 80.94 172.68
  L 81.34 178.78
  C 81.15 180.96 81.96 184.42 80.11 186.00
  L 75.52 186.00
  Q 74.51 179.96 75.06 173.68
  A 1.99 1.98 -8.8 0 1 76.29 172.01
  Q 78.87 170.95 80.94 172.68
  Z"
/>
<path fill="#1e3841" d="
  M 137.71 186.00
  L 132.85 186.00
  Q 131.61 183.13 131.91 178.74
  L 132.40 172.67
  C 135.70 170.54 138.39 171.49 138.56 175.57
  Q 138.79 181.13 137.71 186.00
  Z"
/>
<path fill="#69adc2" d="
  M 53.38 172.98
  C 56.48 175.91 59.75 179.90 64.40 180.17
  C 68.24 180.39 69.77 182.14 68.46 186.00
  L 41.86 186.00
  Q 41.30 179.63 42.31 174.11
  Q 45.48 174.11 46.85 175.66
  A 2.11 2.10 -50.3 0 0 50.23 175.34
  Q 51.55 173.13 53.38 172.98
  Z"
/>
<path fill="#1e3841" d="
  M 174.05 174.60
  Q 177.74 174.73 179.21 177.97
  A 0.64 0.64 0.0 0 0 180.23 178.16
  Q 182.57 175.91 185.07 174.97
  Q 187.44 180.51 187.77 186.00
  L 158.91 186.00
  C 156.63 180.99 162.39 179.88 165.97 179.56
  A 1.41 1.38 19.1 0 0 166.82 179.16
  Q 169.93 176.00 174.05 174.60
  Z"
/>
<path fill="#1e3841" d="
  M 210.87 174.72
  Q 214.66 174.41 216.86 177.94
  Q 217.17 178.46 217.66 178.10
  L 222.16 174.86
  Q 225.06 180.05 225.28 186.00
  L 196.27 186.00
  C 194.48 180.78 199.70 179.93 203.40 179.57
  Q 203.90 179.52 204.27 179.17
  Q 207.32 176.23 210.87 174.72
  Z"
/>
</svg>
