<?xml version="1.0" encoding="UTF-8" standalone="no"?>
<!DOCTYPE svg PUBLIC "-//W3C//DTD SVG 1.1//EN" "http://www.w3.org/Graphics/SVG/1.1/DTD/svg11.dtd">
<svg xmlns="http://www.w3.org/2000/svg" version="1.1" viewBox="0.00 0.00 230.00 203.00">
<g stroke-width="2.00" fill="none" stroke-linecap="butt">
<path stroke="#977e4e" vector-effect="non-scaling-stroke" d="
  M 205.78 147.00
  L 201.04 146.73"
/>
<path stroke="#979ca1" vector-effect="non-scaling-stroke" d="
  M 201.04 146.73
  Q 201.06 79.55 201.02 12.25
  C 201.01 6.79 198.31 5.92 193.32 5.92
  Q 185.42 5.92 177.46 5.96
  Q 176.95 5.96 176.79 6.45
  C 175.47 10.41 175.16 15.53 169.50 15.60
  Q 154.77 15.78 140.04 15.73
  C 133.81 15.71 133.45 11.08 132.08 6.44
  Q 131.93 5.95 131.43 5.95
  Q 124.59 5.91 117.79 5.94
  C 112.56 5.97 107.78 5.47 107.78 11.75
  Q 107.79 99.67 107.79 187.58
  C 107.79 192.59 110.16 194.18 115.09 194.19
  Q 147.84 194.21 181.30 194.17"
/>
<path stroke="#977e4e" vector-effect="non-scaling-stroke" d="
  M 181.30 194.17
  L 188.59 199.81"
/>
<path stroke="#ffe1ac" vector-effect="non-scaling-stroke" d="
  M 201.04 146.73
  C 176.45 149.20 165.12 175.22 181.30 194.17"
/>
<path stroke="#80c8a7" vector-effect="non-scaling-stroke" d="
  M 195.96 31.18
  A 2.64 2.64 0.0 0 0 193.32 28.54
  L 115.44 28.54
  A 2.64 2.64 0.0 0 0 112.80 31.18
  L 112.80 72.58
  A 2.64 2.64 0.0 0 0 115.44 75.22
  L 193.32 75.22
  A 2.64 2.64 0.0 0 0 195.96 72.58
  L 195.96 31.18"
/>
<path stroke="#979ca1" vector-effect="non-scaling-stroke" d="
  M 135.71 95.80
  A 0.49 0.49 0.0 0 0 135.22 95.31
  L 112.84 95.31
  A 0.49 0.49 0.0 0 0 112.35 95.80
  L 112.35 95.84
  A 0.49 0.49 0.0 0 0 112.84 96.33
  L 135.22 96.33
  A 0.49 0.49 0.0 0 0 135.71 95.84
  L 135.71 95.80"
/>
<path stroke="#979ca1" vector-effect="non-scaling-stroke" d="
  M 196.4500 95.8059
  A 0.45 0.45 0.0 0 0 195.9992 95.3567
  L 180.7192 95.3833
  A 0.45 0.45 0.0 0 0 180.2700 95.8341
  L 180.2700 95.8741
  A 0.45 0.45 0.0 0 0 180.7208 96.3233
  L 196.0008 96.2967
  A 0.45 0.45 0.0 0 0 196.4500 95.8459
  L 196.4500 95.8059"
/>
<path stroke="#979ca1" vector-effect="non-scaling-stroke" d="
  M 196.36 106.55
  A 0.56 0.56 0.0 0 0 195.80 105.99
  L 112.90 105.99
  A 0.56 0.56 0.0 0 0 112.34 106.55
  L 112.34 106.57
  A 0.56 0.56 0.0 0 0 112.90 107.13
  L 195.80 107.13
  A 0.56 0.56 0.0 0 0 196.36 106.57
  L 196.36 106.55"
/>
<path stroke="#80c8a7" vector-effect="non-scaling-stroke" d="
  M 195.9533 125.4625
  A 7.81 7.81 0.0 0 0 188.1569 117.6389
  L 120.6571 117.5211
  A 7.81 7.81 0.0 0 0 112.8334 125.3175
  L 112.8267 129.1775
  A 7.81 7.81 0.0 0 0 120.6231 137.0011
  L 188.1229 137.1189
  A 7.81 7.81 0.0 0 0 195.9466 129.3225
  L 195.9533 125.4625"
/>
<path stroke="#97696e" vector-effect="non-scaling-stroke" d="
  M 44.52 33.30
  L 44.02 29.87
  Q 43.93 29.27 43.37 29.03
  Q 41.83 28.38 40.34 28.90
  A 0.42 0.42 0.0 0 1 39.90 28.80
  Q 39.72 28.61 39.78 28.36
  Q 39.83 28.12 40.14 27.97
  Q 41.61 27.25 43.26 27.73
  Q 43.85 27.91 43.63 27.33
  L 41.95 22.99
  A 0.58 0.58 0.0 0 0 40.99 22.80
  Q 36.64 27.37 30.28 27.35
  Q 29.69 27.35 29.85 27.92
  Q 30.44 29.96 30.16 32.11
  Q 29.84 34.49 28.84 32.31
  Q 27.69 29.81 25.17 30.91
  A 1.13 1.10 -87.0 0 0 24.66 31.38
  C 23.00 34.38 25.27 36.51 28.19 36.74
  Q 28.70 36.78 28.78 37.28
  L 30.31 47.21"
/>
<path stroke="#979ca1" vector-effect="non-scaling-stroke" d="
  M 30.31 47.21
  L 30.27 55.32"
/>
<path stroke="#208163" vector-effect="non-scaling-stroke" d="
  M 30.27 55.32
  Q 29.63 57.69 28.64 60.73
  Q 27.40 64.54 24.32 67.15
  A 0.51 0.51 0.0 0 1 23.57 67.05
  L 21.50 63.99
  A 0.66 0.11 60.4 0 0 21.26 63.69
  Q 21.14 63.59 21.00 63.62
  Q 20.76 63.67 20.67 63.45
  Q 17.83 56.68 18.09 49.60"
/>
<path stroke="#97696e" vector-effect="non-scaling-stroke" d="
  M 44.28 35.02
  Q 43.74 38.52 42.43 39.70
  Q 37.99 43.69 31.69 39.68
  Q 31.41 39.49 31.51 39.81
  C 32.56 43.03 36.76 45.02 39.71 42.80
  Q 40.19 42.44 40.15 43.04
  L 39.90 46.83"
/>
<path stroke="#ffcccc" vector-effect="non-scaling-stroke" d="
  M 39.90 46.83
  Q 35.38 50.19 30.31 47.21"
/>
<path stroke="#97696e" vector-effect="non-scaling-stroke" d="
  M 33.40 29.96
  Q 34.44 28.41 36.41 28.93
  A 0.26 0.25 -67.6 0 0 36.71 28.80
  Q 36.78 28.67 36.85 28.53
  Q 37.00 28.25 36.71 28.11
  Q 34.33 26.96 32.76 28.86
  A 0.76 0.73 -34.5 0 0 32.62 29.54
  L 32.72 29.86
  Q 32.95 30.64 33.40 29.96"
/>
<path stroke="#97696e" vector-effect="non-scaling-stroke" d="
  M 35.8066 33.0578
  A 1.33 1.05 86.7 0 0 36.7783 31.6696
  A 1.33 1.05 86.7 0 0 35.6534 30.4022
  A 1.33 1.05 86.7 0 0 34.6817 31.7904
  A 1.33 1.05 86.7 0 0 35.8066 33.0578"
/>
<path stroke="#97696e" vector-effect="non-scaling-stroke" d="
  M 41.44 32.79
  Q 41.80 32.74 42.12 32.87
  A 0.59 0.59 0.0 0 0 42.92 32.50
  Q 43.26 31.40 42.57 30.61
  A 0.80 0.80 0.0 0 0 41.23 30.85
  L 39.99 34.03
  A 0.14 0.13 78.9 0 0 40.21 34.18
  Q 40.58 33.81 40.77 33.32
  Q 40.95 32.86 41.44 32.79"
/>
<path stroke="#97696e" vector-effect="non-scaling-stroke" d="
  M 37.69 37.30
  L 36.17 36.36
  A 0.22 0.17 32.8 0 0 35.91 36.38
  L 35.90 36.38
  Q 35.79 36.54 35.87 36.61
  Q 37.69 38.31 39.57 37.04
  A 0.21 0.21 0.0 0 0 39.35 36.69
  Q 38.97 36.93 38.65 37.22
  Q 38.20 37.62 37.69 37.30"
/>
<path stroke="#80c8a7" vector-effect="non-scaling-stroke" d="
  M 176.75 43.27
  L 184.77 43.29
  A 0.38 0.38 0.0 0 0 185.16 42.92
  L 185.17 39.37
  A 5.11 3.81 -89.8 0 0 181.38 34.24
  L 180.22 34.24
  A 5.11 3.81 -89.8 0 0 176.39 39.33
  L 176.38 42.88
  A 0.38 0.38 0.0 0 0 176.75 43.27"
/>
<path stroke="#80992b" vector-effect="non-scaling-stroke" d="
  M 137.48 43.07
  A 1.35 1.35 0.0 0 0 136.13 41.72
  L 123.11 41.72
  A 1.35 1.35 0.0 0 0 121.76 43.07
  L 121.76 49.59
  A 1.35 1.35 0.0 0 0 123.11 50.94
  L 136.13 50.94
  A 1.35 1.35 0.0 0 0 137.48 49.59
  L 137.48 43.07"
/>
<path stroke="#80c8a7" vector-effect="non-scaling-stroke" d="
  M 138.87 54.68
  A 0.36 0.36 0.0 0 0 138.51 54.32
  L 122.13 54.32
  A 0.36 0.36 0.0 0 0 121.77 54.68
  L 121.77 57.60
  A 0.36 0.36 0.0 0 0 122.13 57.96
  L 138.51 57.96
  A 0.36 0.36 0.0 0 0 138.87 57.60
  L 138.87 54.68"
/>
<path stroke="#80c8a7" vector-effect="non-scaling-stroke" d="
  M 159.95 54.66
  A 0.34 0.34 0.0 0 0 159.61 54.32
  L 143.13 54.32
  A 0.34 0.34 0.0 0 0 142.79 54.66
  L 142.79 57.62
  A 0.34 0.34 0.0 0 0 143.13 57.96
  L 159.61 57.96
  A 0.34 0.34 0.0 0 0 159.95 57.62
  L 159.95 54.66"
/>
<path stroke="#80c8a7" vector-effect="non-scaling-stroke" d="
  M 180.99 54.67
  A 0.35 0.35 0.0 0 0 180.64 54.32
  L 164.22 54.32
  A 0.35 0.35 0.0 0 0 163.87 54.67
  L 163.87 57.61
  A 0.35 0.35 0.0 0 0 164.22 57.96
  L 180.64 57.96
  A 0.35 0.35 0.0 0 0 180.99 57.61
  L 180.99 54.67"
/>
<path stroke="#09ac69" vector-effect="non-scaling-stroke" d="
  M 180.70 68.29
  C 184.11 70.69 187.97 68.78 186.67 64.62
  Q 185.53 60.98 180.71 63.45"
/>
<path stroke="#80992b" vector-effect="non-scaling-stroke" d="
  M 180.71 63.45
  Q 175.94 60.91 174.82 64.66
  C 173.60 68.75 177.30 70.77 180.70 68.29"
/>
<path stroke="#88b544" vector-effect="non-scaling-stroke" d="
  M 180.71 63.45
  Q 179.48 65.87 180.70 68.29"
/>
<path stroke="#80c8a7" vector-effect="non-scaling-stroke" d="
  M 128.75 66.33
  L 122.04 66.38
  Q 121.91 66.38 121.91 66.52
  L 121.91 66.52
  Q 121.90 66.72 122.00 66.72
  L 128.75 66.71
  Q 128.82 66.71 128.82 66.49
  L 128.82 66.48
  Q 128.81 66.33 128.75 66.33"
/>
<path stroke="#80c8a7" vector-effect="non-scaling-stroke" d="
  M 138.50 66.34
  L 131.86 66.38
  Q 131.69 66.38 131.69 66.50
  L 131.69 66.51
  Q 131.68 66.71 131.75 66.71
  L 138.50 66.73
  Q 138.64 66.73 138.64 66.51
  L 138.63 66.50
  Q 138.63 66.34 138.50 66.34"
/>
<path stroke="#97696e" vector-effect="non-scaling-stroke" d="
  M 86.45 44.45
  Q 86.32 44.38 86.20 44.42
  Q 86.12 44.44 86.11 44.52
  L 85.28 50.41
  A 1.36 1.36 0.0 0 1 84.15 51.56
  Q 79.20 52.36 76.92 50.98"
/>
<path stroke="#979ca1" vector-effect="non-scaling-stroke" d="
  M 76.92 50.98
  Q 79.24 50.07 82.39 50.54
  A 1.71 1.70 -82.4 0 0 84.34 49.04
  Q 84.95 43.66 85.78 38.02
  Q 85.99 36.58 85.62 35.48
  A 1.07 1.07 0.0 0 0 83.79 35.11
  Q 82.04 37.11 80.21 35.24
  A 1.39 1.39 0.0 0 0 77.84 36.03
  L 76.92 42.99"
/>
<path stroke="#97696e" vector-effect="non-scaling-stroke" d="
  M 76.92 42.99
  Q 76.51 43.77 75.66 43.89"
/>
<path stroke="#80c8a7" vector-effect="non-scaling-stroke" d="
  M 181.5094 38.1528
  A 0.48 0.48 0.0 0 0 181.0378 37.6645
  L 180.5579 37.6561
  A 0.48 0.48 0.0 0 0 180.0696 38.1277
  L 180.0106 41.5072
  A 0.48 0.48 0.0 0 0 180.4822 41.9955
  L 180.9621 42.0039
  A 0.48 0.48 0.0 0 0 181.4504 41.5323
  L 181.5094 38.1528"
/>
<path stroke="#80c8a7" vector-effect="non-scaling-stroke" d="
  M 178.7643 38.2479
  A 0.57 0.57 0.0 0 0 178.1924 37.6799
  L 178.1124 37.6802
  A 0.57 0.57 0.0 0 0 177.5443 38.2521
  L 177.5557 41.4921
  A 0.57 0.57 0.0 0 0 178.1276 42.0601
  L 178.2076 42.0598
  A 0.57 0.57 0.0 0 0 178.7757 41.4879
  L 178.7643 38.2479"
/>
<path stroke="#80c8a7" vector-effect="non-scaling-stroke" d="
  M 183.93 41.63
  L 183.82 38.08
  Q 183.82 37.87 183.62 37.80
  Q 183.44 37.74 183.25 37.67
  A 0.36 0.36 0.0 0 0 182.77 38.00
  L 182.75 41.50
  Q 182.75 41.97 183.22 41.97
  L 183.59 41.98
  A 0.34 0.34 0.0 0 0 183.93 41.63"
/>
<path stroke="#ffcccc" vector-effect="non-scaling-stroke" d="
  M 76.92 50.98
  Q 76.00 47.72 77.54 46.47
  C 78.57 45.65 79.09 45.03 78.73 43.80
  A 0.86 0.86 0.0 0 0 78.05 43.19
  L 76.92 42.99"
/>
<path stroke="#208163" vector-effect="non-scaling-stroke" d="
  M 50.05 49.65
  Q 49.56 49.73 49.61 50.26
  Q 50.28 57.89 48.52 65.96
  Q 48.39 66.55 47.99 66.10
  Q 43.56 61.08 41.03 55.00"
/>
<path stroke="#979ca1" vector-effect="non-scaling-stroke" d="
  M 41.03 55.00
  L 39.90 46.83"
/>
<path stroke="#809574" vector-effect="non-scaling-stroke" d="
  M 81.70 59.05
  Q 76.62 56.47 72.98 53.18"
/>
<path stroke="#88e4c1" vector-effect="non-scaling-stroke" d="
  M 41.03 55.00
  L 36.55 50.34
  A 1.79 1.79 0.0 0 0 33.55 51.02
  Q 32.69 53.67 30.27 55.32"
/>
<path stroke="#09ac69" vector-effect="non-scaling-stroke" d="
  M 63.24 66.27
  Q 63.24 66.40 63.22 66.57
  A 0.66 0.65 -20.5 0 1 63.07 66.89
  L 52.45 78.61"
/>
<path stroke="#09ac69" vector-effect="non-scaling-stroke" d="
  M 51.41 78.17
  Q 53.38 67.40 53.02 56.51
  Q 52.98 55.37 52.75 54.55
  A 0.23 0.23 0.0 0 0 52.30 54.65
  C 53.37 62.52 51.90 70.66 50.93 78.48"
/>
<path stroke="#208163" vector-effect="non-scaling-stroke" d="
  M 53.07 92.79
  Q 37.08 95.97 20.90 93.85"
/>
<path stroke="#09ac69" vector-effect="non-scaling-stroke" d="
  M 20.90 93.85
  C 19.76 89.98 16.39 81.45 17.96 77.83
  Q 18.14 77.39 17.75 77.13
  L 7.14 69.88"
/>
<path stroke="#09ac69" vector-effect="non-scaling-stroke" d="
  M 19.46 77.21
  Q 21.49 70.94 20.70 64.33
  Q 20.64 63.84 20.30 64.20
  Q 20.10 64.41 20.14 64.76
  Q 20.85 71.43 18.75 77.30
  Q 18.74 77.33 18.77 77.34
  L 19.04 77.43
  A 0.34 0.34 0.0 0 0 19.46 77.21"
/>
<path stroke="#186549" vector-effect="non-scaling-stroke" d="
  M 20.90 93.85
  Q 20.76 94.94 21.51 95.99"
/>
<path stroke="#80c8a7" vector-effect="non-scaling-stroke" d="
  M 21.51 95.99
  Q 21.17 96.48 21.46 96.64"
/>
<path stroke="#186549" vector-effect="non-scaling-stroke" d="
  M 21.46 96.64
  L 22.98 102.86"
/>
<path stroke="#809574" vector-effect="non-scaling-stroke" d="
  M 22.98 102.86
  L 14.17 105.09"
/>
<path stroke="#186549" vector-effect="non-scaling-stroke" d="
  M 14.17 105.09
  L 11.76 100.93"
/>
<path stroke="#186549" vector-effect="non-scaling-stroke" d="
  M 62.66 183.96
  L 48.73 183.93"
/>
<path stroke="#976e25" vector-effect="non-scaling-stroke" d="
  M 37.39 131.44
  C 40.63 130.39 40.16 124.92 36.15 124.71"
/>
<path stroke="#979ca1" vector-effect="non-scaling-stroke" d="
  M 34.47 114.83
  Q 36.13 114.48 37.37 112.78
  Q 37.71 112.32 37.71 111.75
  L 37.71 98.07
  A 0.11 0.10 -7.2 0 1 37.79 97.97
  L 52.31 95.72
  Q 52.42 95.71 52.40 95.60
  L 52.35 95.34
  Q 52.31 95.10 52.07 95.14
  Q 48.20 95.76 44.34 96.51
  Q 40.31 97.30 36.58 97.31
  Q 32.57 97.33 28.56 97.34
  C 26.04 97.34 23.87 96.66 21.51 95.99"
/>
<path stroke="#ffd183" vector-effect="non-scaling-stroke" d="
  M 32.20 115.15
  L 31.74 114.34"
/>
<path stroke="#979ca1" vector-effect="non-scaling-stroke" d="
  M 31.74 114.34
  Q 33.07 112.31 32.78 110.00
  Q 32.04 104.02 32.42 98.19
  Q 32.46 97.57 31.84 97.61
  Q 26.76 97.94 21.46 96.64"
/>
<path stroke="#979ca1" vector-effect="non-scaling-stroke" d="
  M 32.61 113.47
  A 0.34 0.32 -52.1 0 0 32.64 113.80
  Q 33.20 114.64 34.26 114.38
  C 36.17 113.92 37.31 112.84 37.33 110.72
  Q 37.38 104.45 37.31 98.25
  Q 37.30 97.63 36.69 97.63
  L 33.26 97.64
  Q 32.66 97.64 32.65 98.24
  Q 32.51 104.62 33.15 111.26
  Q 33.23 112.14 32.61 113.47"
/>
<path stroke="#976e25" vector-effect="non-scaling-stroke" d="
  M 31.74 114.34
  Q 30.75 109.39 25.46 109.15"
/>
<path stroke="#97696e" vector-effect="non-scaling-stroke" d="
  M 25.46 109.15
  L 22.98 102.86"
/>
<path stroke="#97696e" vector-effect="non-scaling-stroke" d="
  M 14.17 105.09
  L 13.91 109.06"
/>
<path stroke="#976e25" vector-effect="non-scaling-stroke" d="
  M 13.91 109.06
  Q 12.65 109.53 10.66 109.52"
/>
<path stroke="#ff9e50" vector-effect="non-scaling-stroke" d="
  M 25.46 109.15
  Q 24.89 110.40 25.19 111.87"
/>
<path stroke="#97696e" vector-effect="non-scaling-stroke" d="
  M 25.19 111.87
  L 24.82 114.36
  Q 24.76 114.83 24.29 114.92
  L 17.06 116.26
  A 0.78 0.77 74.4 0 1 16.19 115.76
  L 14.69 111.68"
/>
<path stroke="#ff9e50" vector-effect="non-scaling-stroke" d="
  M 14.69 111.68
  Q 13.89 110.26 13.91 109.06"
/>
<path stroke="#976e25" vector-effect="non-scaling-stroke" d="
  M 14.69 111.68
  Q 11.69 112.42 10.94 115.50
  Q 10.25 118.37 10.23 119.49"
/>
<path stroke="#80992b" vector-effect="non-scaling-stroke" d="
  M 10.23 119.49
  L 9.31 124.18
  Q 9.19 124.76 9.78 124.76
  L 15.32 124.73"
/>
<path stroke="#88b544" vector-effect="non-scaling-stroke" d="
  M 15.32 124.73
  L 23.87 124.74"
/>
<path stroke="#80992b" vector-effect="non-scaling-stroke" d="
  M 23.87 124.74
  L 29.78 124.88
  A 0.44 0.44 0.0 0 0 30.22 124.36
  L 29.17 119.21"
/>
<path stroke="#976e25" vector-effect="non-scaling-stroke" d="
  M 29.17 119.21
  C 28.70 115.91 28.54 112.80 25.19 111.87"
/>
<path stroke="#ffb230" vector-effect="non-scaling-stroke" d="
  M 36.46 131.45
  L 2.68 131.53"
/>
<path stroke="#186549" vector-effect="non-scaling-stroke" d="
  M 29.17 119.21
  Q 26.01 118.49 22.52 118.83
  Q 22.02 118.88 21.81 119.34
  Q 21.45 120.13 21.98 121.32"
/>
<path stroke="#208163" vector-effect="non-scaling-stroke" d="
  M 21.98 121.32
  Q 20.85 120.63 19.75 121.60
  Q 19.35 121.96 18.88 121.71
  Q 18.49 121.50 18.21 120.88"
/>
<path stroke="#186549" vector-effect="non-scaling-stroke" d="
  M 18.21 120.88
  Q 18.36 120.26 17.91 119.83
  Q 17.60 119.55 16.99 119.55
  Q 13.57 119.54 10.23 119.49"
/>
<path stroke="#80c8a7" vector-effect="non-scaling-stroke" d="
  M 152.93 128.30
  A 0.34 0.34 0.0 0 1 152.52 128.31
  L 148.30 125.22
  A 0.34 0.34 0.0 0 0 147.83 125.28
  L 147.17 126.13
  A 0.34 0.34 0.0 0 0 147.24 126.61
  L 152.54 130.57
  A 0.34 0.34 0.0 0 0 152.96 130.57
  L 161.91 123.47
  A 0.34 0.34 0.0 0 0 161.93 122.95
  L 161.12 122.20
  A 0.34 0.34 0.0 0 0 160.68 122.18
  L 152.93 128.30"
/>
<path stroke="#09ac69" vector-effect="non-scaling-stroke" d="
  M 23.87 124.74
  L 24.24 122.24
  Q 24.33 121.63 23.72 121.55
  L 21.98 121.32"
/>
<path stroke="#09ac69" vector-effect="non-scaling-stroke" d="
  M 18.21 120.88
  Q 16.80 122.15 15.36 121.72
  A 0.76 0.76 0.0 0 0 14.45 122.75
  L 15.32 124.73"
/>
<path stroke="#977e4e" vector-effect="non-scaling-stroke" d="
  M 32.26 149.87
  L 11.85 150.27"
/>
<path stroke="#ffb230" vector-effect="non-scaling-stroke" d="
  M 9.2628 135.1652
  A 1.37 1.37 0.0 0 0 7.6835 134.0428
  L 7.5652 134.0629
  A 1.37 1.37 0.0 0 0 6.4428 135.6421
  L 8.1972 146.0148
  A 1.37 1.37 0.0 0 0 9.7765 147.1372
  L 9.8948 147.1171
  A 1.37 1.37 0.0 0 0 11.0172 145.5379
  L 9.2628 135.1652"
/>
<path stroke="#ffb230" vector-effect="non-scaling-stroke" d="
  M 15.1798 135.2185
  A 1.32 1.32 0.0 0 0 13.7435 134.0260
  L 13.4846 134.0501
  A 1.32 1.32 0.0 0 0 12.2922 135.4863
  L 13.2602 145.9215
  A 1.32 1.32 0.0 0 0 14.6965 147.1140
  L 14.9554 147.0899
  A 1.32 1.32 0.0 0 0 16.1478 145.6537
  L 15.1798 135.2185"
/>
<path stroke="#ffb230" vector-effect="non-scaling-stroke" d="
  M 21.1951 135.4228
  A 1.39 1.39 0.0 0 0 19.8172 134.0207
  L 19.7172 134.0198
  A 1.39 1.39 0.0 0 0 18.3152 135.3976
  L 18.2249 145.7372
  A 1.39 1.39 0.0 0 0 19.6028 147.1393
  L 19.7028 147.1402
  A 1.39 1.39 0.0 0 0 21.1048 145.7624
  L 21.1951 135.4228"
/>
<path stroke="#ffb230" vector-effect="non-scaling-stroke" d="
  M 27.1119 135.4588
  A 1.32 1.32 0.0 0 0 25.9144 134.0267
  L 25.6754 134.0054
  A 1.32 1.32 0.0 0 0 24.2433 135.2028
  L 23.3081 145.6812
  A 1.32 1.32 0.0 0 0 24.5056 147.1133
  L 24.7446 147.1346
  A 1.32 1.32 0.0 0 0 26.1767 145.9372
  L 27.1119 135.4588"
/>
<path stroke="#ffb230" vector-effect="non-scaling-stroke" d="
  M 33.0088 135.5823
  A 1.37 1.37 0.0 0 0 31.8865 134.0030
  L 31.7682 133.9830
  A 1.37 1.37 0.0 0 0 30.1889 135.1053
  L 28.4312 145.4977
  A 1.37 1.37 0.0 0 0 29.5535 147.0770
  L 29.6718 147.0970
  A 1.37 1.37 0.0 0 0 31.2511 145.9747
  L 33.0088 135.5823"
/>
<path stroke="#ffb230" vector-effect="non-scaling-stroke" d="
  M 225.67 174.91
  A 23.78 23.78 0.0 0 0 201.89 151.13
  A 23.78 23.78 0.0 0 0 178.11 174.91
  A 23.78 23.78 0.0 0 0 201.89 198.69
  A 23.78 23.78 0.0 0 0 225.67 174.91"
/>
<path stroke="#186549" vector-effect="non-scaling-stroke" d="
  M 30.51 184.04
  L 16.56 184.29"
/>
<path stroke="#ffb230" vector-effect="non-scaling-stroke" d="
  M 200.29 187.00
  L 200.26 189.99
  Q 200.25 190.72 200.99 190.73
  L 202.23 190.74
  Q 202.95 190.74 202.96 190.02
  L 202.99 186.93
  Q 203.00 186.40 203.51 186.27
  Q 208.96 184.85 209.43 179.75
  C 210.25 170.91 194.83 171.69 198.31 165.33
  C 199.94 162.34 204.65 163.24 207.12 164.56
  A 0.48 0.48 0.0 0 0 207.80 164.29
  L 208.53 162.21
  A 0.44 0.44 0.0 0 0 208.24 161.64
  L 203.65 160.40
  Q 203.06 160.24 203.09 159.62
  L 203.21 157.50
  Q 203.27 156.47 202.24 156.49
  L 201.36 156.50
  Q 200.48 156.51 200.52 157.39
  L 200.64 160.21
  Q 200.67 160.71 200.18 160.81
  Q 195.29 161.85 194.42 166.27
  C 192.64 175.30 206.83 173.32 205.82 180.09
  C 205.09 184.94 198.60 184.03 195.69 182.29
  Q 194.95 181.84 194.62 182.65
  L 194.14 183.85
  Q 193.80 184.68 194.59 185.11
  Q 197.03 186.42 199.81 186.50
  Q 200.30 186.51 200.29 187.00"
/>
<path stroke="#80c8a7" vector-effect="non-scaling-stroke" d="
  M 17.64 189.79
  Q 18.32 190.41 19.10 190.55
  Q 19.75 190.66 19.25 190.23
  Q 18.56 189.65 17.77 189.52
  Q 17.26 189.44 17.64 189.79"
/>
<path stroke="#80c8a7" vector-effect="non-scaling-stroke" d="
  M 14.37 191.38
  L 17.12 193.13
  Q 17.25 193.21 17.35 193.06
  L 17.35 193.05
  A 0.32 0.18 35.4 0 0 17.19 192.71
  L 14.53 190.85
  Q 14.48 190.81 14.45 190.86
  L 14.31 191.10
  Q 14.21 191.27 14.37 191.38"
/>
<path stroke="#80c8a7" vector-effect="non-scaling-stroke" d="
  M 14.0981 194.3155
  A 1.80 0.32 35.9 0 0 12.8276 193.0008
  A 1.80 0.32 35.9 0 0 11.1819 192.2045
  A 1.80 0.32 35.9 0 0 12.4524 193.5192
  A 1.80 0.32 35.9 0 0 14.0981 194.3155"
/>
<path stroke="#80c8a7" vector-effect="non-scaling-stroke" d="
  M 62.8990 189.3744
  A 1.42 0.28 -24.8 0 0 61.4926 189.7158
  A 1.42 0.28 -24.8 0 0 60.3210 190.5656
  A 1.42 0.28 -24.8 0 0 61.7274 190.2242
  A 1.42 0.28 -24.8 0 0 62.8990 189.3744"
/>
<path stroke="#80c8a7" vector-effect="non-scaling-stroke" d="
  M 65.50 191.63
  Q 65.80 191.44 65.58 191.18
  Q 65.40 190.95 65.17 191.13
  Q 63.99 192.04 62.89 193.03
  Q 62.75 193.15 62.87 193.28
  L 62.88 193.29
  Q 63.00 193.42 63.13 193.30
  Q 63.78 192.69 65.50 191.63"
/>
<path stroke="#80c8a7" vector-effect="non-scaling-stroke" d="
  M 68.8806 192.3268
  A 1.52 0.24 -40.8 0 0 67.5732 193.1383
  A 1.52 0.24 -40.8 0 0 66.5794 194.3132
  A 1.52 0.24 -40.8 0 0 67.8868 193.5017
  A 1.52 0.24 -40.8 0 0 68.8806 192.3268"
/>
</g>
<path fill="#2f3943" d="
  M 107.62 0.00
  L 201.30 0.00
  C 204.68 0.89 205.74 2.79 205.74 6.31
  Q 205.87 76.67 205.78 147.00
  L 201.04 146.73
  Q 201.06 79.55 201.02 12.25
  C 201.01 6.79 198.31 5.92 193.32 5.92
  Q 185.42 5.92 177.46 5.96
  Q 176.95 5.96 176.79 6.45
  C 175.47 10.41 175.16 15.53 169.50 15.60
  Q 154.77 15.78 140.04 15.73
  C 133.81 15.71 133.45 11.08 132.08 6.44
  Q 131.93 5.95 131.43 5.95
  Q 124.59 5.91 117.79 5.94
  C 112.56 5.97 107.78 5.47 107.78 11.75
  Q 107.79 99.67 107.79 187.58
  C 107.79 192.59 110.16 194.18 115.09 194.19
  Q 147.84 194.21 181.30 194.17
  L 188.59 199.81
  Q 148.80 199.89 109.22 199.81
  C 105.56 199.80 102.96 198.34 102.96 194.50
  Q 102.96 100.50 102.96 6.50
  Q 102.96 1.21 107.62 0.00
  Z"
/>
<path fill="#ffffff" d="
  M 201.04 146.73
  C 176.45 149.20 165.12 175.22 181.30 194.17
  Q 147.84 194.21 115.09 194.19
  C 110.16 194.18 107.79 192.59 107.79 187.58
  Q 107.79 99.67 107.78 11.75
  C 107.78 5.47 112.56 5.97 117.79 5.94
  Q 124.59 5.91 131.43 5.95
  Q 131.93 5.95 132.08 6.44
  C 133.45 11.08 133.81 15.71 140.04 15.73
  Q 154.77 15.78 169.50 15.60
  C 175.16 15.53 175.47 10.41 176.79 6.45
  Q 176.95 5.96 177.46 5.96
  Q 185.42 5.92 193.32 5.92
  C 198.31 5.92 201.01 6.79 201.02 12.25
  Q 201.06 79.55 201.04 146.73
  Z
  M 195.96 31.18
  A 2.64 2.64 0.0 0 0 193.32 28.54
  L 115.44 28.54
  A 2.64 2.64 0.0 0 0 112.80 31.18
  L 112.80 72.58
  A 2.64 2.64 0.0 0 0 115.44 75.22
  L 193.32 75.22
  A 2.64 2.64 0.0 0 0 195.96 72.58
  L 195.96 31.18
  Z
  M 135.71 95.80
  A 0.49 0.49 0.0 0 0 135.22 95.31
  L 112.84 95.31
  A 0.49 0.49 0.0 0 0 112.35 95.80
  L 112.35 95.84
  A 0.49 0.49 0.0 0 0 112.84 96.33
  L 135.22 96.33
  A 0.49 0.49 0.0 0 0 135.71 95.84
  L 135.71 95.80
  Z
  M 196.4500 95.8059
  A 0.45 0.45 0.0 0 0 195.9992 95.3567
  L 180.7192 95.3833
  A 0.45 0.45 0.0 0 0 180.2700 95.8341
  L 180.2700 95.8741
  A 0.45 0.45 0.0 0 0 180.7208 96.3233
  L 196.0008 96.2967
  A 0.45 0.45 0.0 0 0 196.4500 95.8459
  L 196.4500 95.8059
  Z
  M 196.36 106.55
  A 0.56 0.56 0.0 0 0 195.80 105.99
  L 112.90 105.99
  A 0.56 0.56 0.0 0 0 112.34 106.55
  L 112.34 106.57
  A 0.56 0.56 0.0 0 0 112.90 107.13
  L 195.80 107.13
  A 0.56 0.56 0.0 0 0 196.36 106.57
  L 196.36 106.55
  Z
  M 195.9533 125.4625
  A 7.81 7.81 0.0 0 0 188.1569 117.6389
  L 120.6571 117.5211
  A 7.81 7.81 0.0 0 0 112.8334 125.3175
  L 112.8267 129.1775
  A 7.81 7.81 0.0 0 0 120.6231 137.0011
  L 188.1229 137.1189
  A 7.81 7.81 0.0 0 0 195.9466 129.3225
  L 195.9533 125.4625
  Z"
/>
<path fill="#2f3943" d="
  M 44.52 33.30
  L 44.02 29.87
  Q 43.93 29.27 43.37 29.03
  Q 41.83 28.38 40.34 28.90
  A 0.42 0.42 0.0 0 1 39.90 28.80
  Q 39.72 28.61 39.78 28.36
  Q 39.83 28.12 40.14 27.97
  Q 41.61 27.25 43.26 27.73
  Q 43.85 27.91 43.63 27.33
  L 41.95 22.99
  A 0.58 0.58 0.0 0 0 40.99 22.80
  Q 36.64 27.37 30.28 27.35
  Q 29.69 27.35 29.85 27.92
  Q 30.44 29.96 30.16 32.11
  Q 29.84 34.49 28.84 32.31
  Q 27.69 29.81 25.17 30.91
  A 1.13 1.10 -87.0 0 0 24.66 31.38
  C 23.00 34.38 25.27 36.51 28.19 36.74
  Q 28.70 36.78 28.78 37.28
  L 30.31 47.21
  L 30.27 55.32
  Q 29.63 57.69 28.64 60.73
  Q 27.40 64.54 24.32 67.15
  A 0.51 0.51 0.0 0 1 23.57 67.05
  L 21.50 63.99
  A 0.66 0.11 60.4 0 0 21.26 63.69
  Q 21.14 63.59 21.00 63.62
  Q 20.76 63.67 20.67 63.45
  Q 17.83 56.68 18.09 49.60
  Q 18.88 43.39 22.22 38.10
  Q 22.50 37.67 22.20 37.24
  C 19.07 32.76 16.73 27.01 21.48 22.68
  Q 21.84 22.35 21.82 21.87
  C 21.50 15.79 27.78 12.08 33.25 12.64
  C 43.48 13.68 49.32 24.15 44.52 33.30
  Z"
/>
<path fill="#ff9999" d="
  M 44.52 33.30
  Q 44.18 34.09 44.28 35.02
  Q 43.74 38.52 42.43 39.70
  Q 37.99 43.69 31.69 39.68
  Q 31.41 39.49 31.51 39.81
  C 32.56 43.03 36.76 45.02 39.71 42.80
  Q 40.19 42.44 40.15 43.04
  L 39.90 46.83
  Q 35.38 50.19 30.31 47.21
  L 28.78 37.28
  Q 28.70 36.78 28.19 36.74
  C 25.27 36.51 23.00 34.38 24.66 31.38
  A 1.13 1.10 -87.0 0 1 25.17 30.91
  Q 27.69 29.81 28.84 32.31
  Q 29.84 34.49 30.16 32.11
  Q 30.44 29.96 29.85 27.92
  Q 29.69 27.35 30.28 27.35
  Q 36.64 27.37 40.99 22.80
  A 0.58 0.58 0.0 0 1 41.95 22.99
  L 43.63 27.33
  Q 43.85 27.91 43.26 27.73
  Q 41.61 27.25 40.14 27.97
  Q 39.83 28.12 39.78 28.36
  Q 39.72 28.61 39.90 28.80
  A 0.42 0.42 0.0 0 0 40.34 28.90
  Q 41.83 28.38 43.37 29.03
  Q 43.93 29.27 44.02 29.87
  L 44.52 33.30
  Z
  M 33.40 29.96
  Q 34.44 28.41 36.41 28.93
  A 0.26 0.25 -67.6 0 0 36.71 28.80
  Q 36.78 28.67 36.85 28.53
  Q 37.00 28.25 36.71 28.11
  Q 34.33 26.96 32.76 28.86
  A 0.76 0.73 -34.5 0 0 32.62 29.54
  L 32.72 29.86
  Q 32.95 30.64 33.40 29.96
  Z
  M 35.8066 33.0578
  A 1.33 1.05 86.7 0 0 36.7783 31.6696
  A 1.33 1.05 86.7 0 0 35.6534 30.4022
  A 1.33 1.05 86.7 0 0 34.6817 31.7904
  A 1.33 1.05 86.7 0 0 35.8066 33.0578
  Z
  M 41.44 32.79
  Q 41.80 32.74 42.12 32.87
  A 0.59 0.59 0.0 0 0 42.92 32.50
  Q 43.26 31.40 42.57 30.61
  A 0.80 0.80 0.0 0 0 41.23 30.85
  L 39.99 34.03
  A 0.14 0.13 78.9 0 0 40.21 34.18
  Q 40.58 33.81 40.77 33.32
  Q 40.95 32.86 41.44 32.79
  Z
  M 37.69 37.30
  L 36.17 36.36
  A 0.22 0.17 32.8 0 0 35.91 36.38
  L 35.90 36.38
  Q 35.79 36.54 35.87 36.61
  Q 37.69 38.31 39.57 37.04
  A 0.21 0.21 0.0 0 0 39.35 36.69
  Q 38.97 36.93 38.65 37.22
  Q 38.20 37.62 37.69 37.30
  Z"
/>
<path fill="#2f3943" d="
  M 33.40 29.96
  Q 32.95 30.64 32.72 29.86
  L 32.62 29.54
  A 0.76 0.73 -34.5 0 1 32.76 28.86
  Q 34.33 26.96 36.71 28.11
  Q 37.00 28.25 36.85 28.53
  Q 36.78 28.67 36.71 28.80
  A 0.26 0.25 -67.6 0 1 36.41 28.93
  Q 34.44 28.41 33.40 29.96
  Z"
/>
<path fill="#00904f" d="
  M 195.96 72.58
  A 2.64 2.64 0.0 0 1 193.32 75.22
  L 115.44 75.22
  A 2.64 2.64 0.0 0 1 112.80 72.58
  L 112.80 31.18
  A 2.64 2.64 0.0 0 1 115.44 28.54
  L 193.32 28.54
  A 2.64 2.64 0.0 0 1 195.96 31.18
  L 195.96 72.58
  Z
  M 176.75 43.27
  L 184.77 43.29
  A 0.38 0.38 0.0 0 0 185.16 42.92
  L 185.17 39.37
  A 5.11 3.81 -89.8 0 0 181.38 34.24
  L 180.22 34.24
  A 5.11 3.81 -89.8 0 0 176.39 39.33
  L 176.38 42.88
  A 0.38 0.38 0.0 0 0 176.75 43.27
  Z
  M 137.48 43.07
  A 1.35 1.35 0.0 0 0 136.13 41.72
  L 123.11 41.72
  A 1.35 1.35 0.0 0 0 121.76 43.07
  L 121.76 49.59
  A 1.35 1.35 0.0 0 0 123.11 50.94
  L 136.13 50.94
  A 1.35 1.35 0.0 0 0 137.48 49.59
  L 137.48 43.07
  Z
  M 138.87 54.68
  A 0.36 0.36 0.0 0 0 138.51 54.32
  L 122.13 54.32
  A 0.36 0.36 0.0 0 0 121.77 54.68
  L 121.77 57.60
  A 0.36 0.36 0.0 0 0 122.13 57.96
  L 138.51 57.96
  A 0.36 0.36 0.0 0 0 138.87 57.60
  L 138.87 54.68
  Z
  M 159.95 54.66
  A 0.34 0.34 0.0 0 0 159.61 54.32
  L 143.13 54.32
  A 0.34 0.34 0.0 0 0 142.79 54.66
  L 142.79 57.62
  A 0.34 0.34 0.0 0 0 143.13 57.96
  L 159.61 57.96
  A 0.34 0.34 0.0 0 0 159.95 57.62
  L 159.95 54.66
  Z
  M 180.99 54.67
  A 0.35 0.35 0.0 0 0 180.64 54.32
  L 164.22 54.32
  A 0.35 0.35 0.0 0 0 163.87 54.67
  L 163.87 57.61
  A 0.35 0.35 0.0 0 0 164.22 57.96
  L 180.64 57.96
  A 0.35 0.35 0.0 0 0 180.99 57.61
  L 180.99 54.67
  Z
  M 180.70 68.29
  C 184.11 70.69 187.97 68.78 186.67 64.62
  Q 185.53 60.98 180.71 63.45
  Q 175.94 60.91 174.82 64.66
  C 173.60 68.75 177.30 70.77 180.70 68.29
  Z
  M 128.75 66.33
  L 122.04 66.38
  Q 121.91 66.38 121.91 66.52
  L 121.91 66.52
  Q 121.90 66.72 122.00 66.72
  L 128.75 66.71
  Q 128.82 66.71 128.82 66.49
  L 128.82 66.48
  Q 128.81 66.33 128.75 66.33
  Z
  M 138.50 66.34
  L 131.86 66.38
  Q 131.69 66.38 131.69 66.50
  L 131.69 66.51
  Q 131.68 66.71 131.75 66.71
  L 138.50 66.73
  Q 138.64 66.73 138.64 66.51
  L 138.63 66.50
  Q 138.63 66.34 138.50 66.34
  Z"
/>
<ellipse fill="#2f3943" cx="0.00" cy="0.00" transform="translate(35.73,31.73) rotate(86.7)" rx="1.33" ry="1.05"/>
<path fill="#2f3943" d="
  M 40.77 33.32
  Q 40.58 33.81 40.21 34.18
  A 0.14 0.13 78.9 0 1 39.99 34.03
  L 41.23 30.85
  A 0.80 0.80 0.0 0 1 42.57 30.61
  Q 43.26 31.40 42.92 32.50
  A 0.59 0.59 0.0 0 1 42.12 32.87
  Q 41.80 32.74 41.44 32.79
  Q 40.95 32.86 40.77 33.32
  Z"
/>
<path fill="#2f3943" d="
  M 86.45 44.45
  Q 86.32 44.38 86.20 44.42
  Q 86.12 44.44 86.11 44.52
  L 85.28 50.41
  A 1.36 1.36 0.0 0 1 84.15 51.56
  Q 79.20 52.36 76.92 50.98
  Q 79.24 50.07 82.39 50.54
  A 1.71 1.70 -82.4 0 0 84.34 49.04
  Q 84.95 43.66 85.78 38.02
  Q 85.99 36.58 85.62 35.48
  A 1.07 1.07 0.0 0 0 83.79 35.11
  Q 82.04 37.11 80.21 35.24
  A 1.39 1.39 0.0 0 0 77.84 36.03
  L 76.92 42.99
  Q 76.51 43.77 75.66 43.89
  L 76.75 35.10
  A 1.55 1.55 0.0 0 1 78.29 33.74
  L 85.98 33.75
  A 1.11 1.10 3.0 0 1 87.08 34.97
  Q 86.62 39.37 86.14 43.25
  Q 86.09 43.69 86.45 44.45
  Z"
/>
<path fill="#ffffff" d="
  M 176.75 43.27
  A 0.38 0.38 0.0 0 1 176.38 42.88
  L 176.39 39.33
  A 5.11 3.81 -89.8 0 1 180.22 34.24
  L 181.38 34.24
  A 5.11 3.81 -89.8 0 1 185.17 39.37
  L 185.16 42.92
  A 0.38 0.38 0.0 0 1 184.77 43.29
  L 176.75 43.27
  Z
  M 181.5094 38.1528
  A 0.48 0.48 0.0 0 0 181.0378 37.6645
  L 180.5579 37.6561
  A 0.48 0.48 0.0 0 0 180.0696 38.1277
  L 180.0106 41.5072
  A 0.48 0.48 0.0 0 0 180.4822 41.9955
  L 180.9621 42.0039
  A 0.48 0.48 0.0 0 0 181.4504 41.5323
  L 181.5094 38.1528
  Z
  M 178.7643 38.2479
  A 0.57 0.57 0.0 0 0 178.1924 37.6799
  L 178.1124 37.6802
  A 0.57 0.57 0.0 0 0 177.5443 38.2521
  L 177.5557 41.4921
  A 0.57 0.57 0.0 0 0 178.1276 42.0601
  L 178.2076 42.0598
  A 0.57 0.57 0.0 0 0 178.7757 41.4879
  L 178.7643 38.2479
  Z
  M 183.93 41.63
  L 183.82 38.08
  Q 183.82 37.87 183.62 37.80
  Q 183.44 37.74 183.25 37.67
  A 0.36 0.36 0.0 0 0 182.77 38.00
  L 182.75 41.50
  Q 182.75 41.97 183.22 41.97
  L 183.59 41.98
  A 0.34 0.34 0.0 0 0 183.93 41.63
  Z"
/>
<path fill="#ffffff" d="
  M 76.92 50.98
  Q 76.00 47.72 77.54 46.47
  C 78.57 45.65 79.09 45.03 78.73 43.80
  A 0.86 0.86 0.0 0 0 78.05 43.19
  L 76.92 42.99
  L 77.84 36.03
  A 1.39 1.39 0.0 0 1 80.21 35.24
  Q 82.04 37.11 83.79 35.11
  A 1.07 1.07 0.0 0 1 85.62 35.48
  Q 85.99 36.58 85.78 38.02
  Q 84.95 43.66 84.34 49.04
  A 1.71 1.70 -82.4 0 1 82.39 50.54
  Q 79.24 50.07 76.92 50.98
  Z"
/>
<path fill="#2f3943" d="
  M 44.28 35.02
  Q 47.75 41.72 49.41 49.00
  Q 49.50 49.41 50.05 49.65
  Q 49.56 49.73 49.61 50.26
  Q 50.28 57.89 48.52 65.96
  Q 48.39 66.55 47.99 66.10
  Q 43.56 61.08 41.03 55.00
  L 39.90 46.83
  L 40.15 43.04
  Q 40.19 42.44 39.71 42.80
  C 36.76 45.02 32.56 43.03 31.51 39.81
  Q 31.41 39.49 31.69 39.68
  Q 37.99 43.69 42.43 39.70
  Q 43.74 38.52 44.28 35.02
  Z"
/>
<path fill="#2f3943" d="
  M 38.65 37.22
  Q 38.97 36.93 39.35 36.69
  A 0.21 0.21 0.0 0 1 39.57 37.04
  Q 37.69 38.31 35.87 36.61
  Q 35.79 36.54 35.90 36.38
  L 35.91 36.38
  A 0.22 0.17 32.8 0 1 36.17 36.36
  L 37.69 37.30
  Q 38.20 37.62 38.65 37.22
  Z"
/>
<rect fill="#00904f" x="-0.72" y="-2.17" transform="translate(180.76,39.83) rotate(1.0)" width="1.44" height="4.34" rx="0.48"/>
<rect fill="#00904f" x="-0.61" y="-2.19" transform="translate(178.16,39.87) rotate(-0.2)" width="1.22" height="4.38" rx="0.57"/>
<path fill="#00904f" d="
  M 183.93 41.63
  A 0.34 0.34 0.0 0 1 183.59 41.98
  L 183.22 41.97
  Q 182.75 41.97 182.75 41.50
  L 182.77 38.00
  A 0.36 0.36 0.0 0 1 183.25 37.67
  Q 183.44 37.74 183.62 37.80
  Q 183.82 37.87 183.82 38.08
  L 183.93 41.63
  Z"
/>
<rect fill="#ffa206" x="121.76" y="41.72" width="15.72" height="9.22" rx="1.35"/>
<path fill="#ff9999" d="
  M 76.92 42.99
  L 78.05 43.19
  A 0.86 0.86 0.0 0 1 78.73 43.80
  C 79.09 45.03 78.57 45.65 77.54 46.47
  Q 76.00 47.72 76.92 50.98
  Q 79.20 52.36 84.15 51.56
  A 1.36 1.36 0.0 0 0 85.28 50.41
  L 86.11 44.52
  Q 86.12 44.44 86.20 44.42
  Q 86.32 44.38 86.45 44.45
  Q 87.64 47.29 87.61 50.32
  Q 87.61 50.86 87.19 51.21
  Q 83.39 54.48 81.70 59.05
  Q 76.62 56.47 72.98 53.18
  Q 72.27 45.47 75.66 43.89
  Q 76.51 43.77 76.92 42.99
  Z"
/>
<path fill="#ffffff" d="
  M 39.90 46.83
  L 41.03 55.00
  L 36.55 50.34
  A 1.79 1.79 0.0 0 0 33.55 51.02
  Q 32.69 53.67 30.27 55.32
  L 30.31 47.21
  Q 35.38 50.19 39.90 46.83
  Z"
/>
<path fill="#11c882" d="
  M 18.09 49.60
  Q 17.83 56.68 20.67 63.45
  Q 20.76 63.67 21.00 63.62
  Q 21.14 63.59 21.26 63.69
  A 0.66 0.11 60.4 0 1 21.50 63.99
  L 23.57 67.05
  A 0.51 0.51 0.0 0 0 24.32 67.15
  Q 27.40 64.54 28.64 60.73
  Q 29.63 57.69 30.27 55.32
  Q 32.69 53.67 33.55 51.02
  A 1.79 1.79 0.0 0 1 36.55 50.34
  L 41.03 55.00
  Q 43.56 61.08 47.99 66.10
  Q 48.39 66.55 48.52 65.96
  Q 50.28 57.89 49.61 50.26
  Q 49.56 49.73 50.05 49.65
  C 55.90 52.80 60.44 60.44 63.24 66.27
  Q 63.24 66.40 63.22 66.57
  A 0.66 0.65 -20.5 0 1 63.07 66.89
  L 52.45 78.61
  L 51.41 78.17
  Q 53.38 67.40 53.02 56.51
  Q 52.98 55.37 52.75 54.55
  A 0.23 0.23 0.0 0 0 52.30 54.65
  C 53.37 62.52 51.90 70.66 50.93 78.48
  C 50.91 83.36 52.13 88.01 53.07 92.79
  Q 37.08 95.97 20.90 93.85
  C 19.76 89.98 16.39 81.45 17.96 77.83
  Q 18.14 77.39 17.75 77.13
  L 7.14 69.88
  L 4.73 67.16
  Q 4.40 66.79 4.55 66.32
  C 6.22 60.94 10.99 49.22 18.09 49.60
  Z
  M 19.46 77.21
  Q 21.49 70.94 20.70 64.33
  Q 20.64 63.84 20.30 64.20
  Q 20.10 64.41 20.14 64.76
  Q 20.85 71.43 18.75 77.30
  Q 18.74 77.33 18.77 77.34
  L 19.04 77.43
  A 0.34 0.34 0.0 0 0 19.46 77.21
  Z"
/>
<path fill="#00904f" d="
  M 72.98 53.18
  Q 76.62 56.47 81.70 59.05
  C 78.85 65.37 69.36 83.26 62.03 84.66
  C 57.92 85.44 54.76 80.99 52.45 78.61
  L 63.07 66.89
  A 0.66 0.65 -20.5 0 0 63.22 66.57
  Q 63.24 66.40 63.24 66.27
  L 72.98 53.18
  Z"
/>
<path fill="#00904f" d="
  M 51.41 78.17
  Q 51.32 78.46 50.93 78.48
  C 51.90 70.66 53.37 62.52 52.30 54.65
  A 0.23 0.23 0.0 0 1 52.75 54.55
  Q 52.98 55.37 53.02 56.51
  Q 53.38 67.40 51.41 78.17
  Z"
/>
<rect fill="#ffffff" x="121.77" y="54.32" width="17.10" height="3.64" rx="0.36"/>
<rect fill="#ffffff" x="142.79" y="54.32" width="17.16" height="3.64" rx="0.34"/>
<rect fill="#ffffff" x="163.87" y="54.32" width="17.12" height="3.64" rx="0.35"/>
<path fill="#ffa206" d="
  M 180.71 63.45
  Q 179.48 65.87 180.70 68.29
  C 177.30 70.77 173.60 68.75 174.82 64.66
  Q 175.94 60.91 180.71 63.45
  Z"
/>
<path fill="#11c882" d="
  M 180.70 68.29
  Q 179.48 65.87 180.71 63.45
  Q 185.53 60.98 186.67 64.62
  C 187.97 68.78 184.11 70.69 180.70 68.29
  Z"
/>
<path fill="#00904f" d="
  M 19.46 77.21
  A 0.34 0.34 0.0 0 1 19.04 77.43
  L 18.77 77.34
  Q 18.74 77.33 18.75 77.30
  Q 20.85 71.43 20.14 64.76
  Q 20.10 64.41 20.30 64.20
  Q 20.64 63.84 20.70 64.33
  Q 21.49 70.94 19.46 77.21
  Z"
/>
<path fill="#ffffff" d="
  M 128.75 66.33
  Q 128.81 66.33 128.82 66.48
  L 128.82 66.49
  Q 128.82 66.71 128.75 66.71
  L 122.00 66.72
  Q 121.90 66.72 121.91 66.52
  L 121.91 66.52
  Q 121.91 66.38 122.04 66.38
  L 128.75 66.33
  Z"
/>
<path fill="#ffffff" d="
  M 138.50 66.34
  Q 138.63 66.34 138.63 66.50
  L 138.64 66.51
  Q 138.64 66.73 138.50 66.73
  L 131.75 66.71
  Q 131.68 66.71 131.69 66.51
  L 131.69 66.50
  Q 131.69 66.38 131.86 66.38
  L 138.50 66.34
  Z"
/>
<path fill="#00904f" d="
  M 7.14 69.88
  L 17.75 77.13
  Q 18.14 77.39 17.96 77.83
  C 16.39 81.45 19.76 89.98 20.90 93.85
  Q 20.76 94.94 21.51 95.99
  Q 21.17 96.48 21.46 96.64
  L 22.98 102.86
  L 14.17 105.09
  L 11.76 100.93
  Q 8.34 92.39 6.55 85.49
  Q 4.60 78.02 7.14 69.88
  Z"
/>
<path fill="#2f3943" d="
  M 53.07 92.79
  C 56.47 102.02 57.52 113.23 58.48 123.00
  Q 61.43 152.99 64.21 183.01
  Q 64.32 184.23 62.66 183.96
  L 48.73 183.93
  L 46.52 183.93
  Q 45.94 183.93 45.85 183.36
  L 37.39 131.44
  C 40.63 130.39 40.16 124.92 36.15 124.71
  L 34.47 114.83
  Q 36.13 114.48 37.37 112.78
  Q 37.71 112.32 37.71 111.75
  L 37.71 98.07
  A 0.11 0.10 -7.2 0 1 37.79 97.97
  L 52.31 95.72
  Q 52.42 95.71 52.40 95.60
  L 52.35 95.34
  Q 52.31 95.10 52.07 95.14
  Q 48.20 95.76 44.34 96.51
  Q 40.31 97.30 36.58 97.31
  Q 32.57 97.33 28.56 97.34
  C 26.04 97.34 23.87 96.66 21.51 95.99
  Q 20.76 94.94 20.90 93.85
  Q 37.08 95.97 53.07 92.79
  Z"
/>
<path fill="#ffffff" d="
  M 34.47 114.83
  Q 32.60 114.88 32.20 115.15
  L 31.74 114.34
  Q 33.07 112.31 32.78 110.00
  Q 32.04 104.02 32.42 98.19
  Q 32.46 97.57 31.84 97.61
  Q 26.76 97.94 21.46 96.64
  Q 21.17 96.48 21.51 95.99
  C 23.87 96.66 26.04 97.34 28.56 97.34
  Q 32.57 97.33 36.58 97.31
  Q 40.31 97.30 44.34 96.51
  Q 48.20 95.76 52.07 95.14
  Q 52.31 95.10 52.35 95.34
  L 52.40 95.60
  Q 52.42 95.71 52.31 95.72
  L 37.79 97.97
  A 0.11 0.10 -7.2 0 0 37.71 98.07
  L 37.71 111.75
  Q 37.71 112.32 37.37 112.78
  Q 36.13 114.48 34.47 114.83
  Z
  M 32.61 113.47
  A 0.34 0.32 -52.1 0 0 32.64 113.80
  Q 33.20 114.64 34.26 114.38
  C 36.17 113.92 37.31 112.84 37.33 110.72
  Q 37.38 104.45 37.31 98.25
  Q 37.30 97.63 36.69 97.63
  L 33.26 97.64
  Q 32.66 97.64 32.65 98.24
  Q 32.51 104.62 33.15 111.26
  Q 33.23 112.14 32.61 113.47
  Z"
/>
<rect fill="#2f3943" x="112.35" y="95.31" width="23.36" height="1.02" rx="0.49"/>
<rect fill="#2f3943" x="-8.09" y="-0.47" transform="translate(188.36,95.84) rotate(-0.1)" width="16.18" height="0.94" rx="0.45"/>
<path fill="#2f3943" d="
  M 21.46 96.64
  Q 26.76 97.94 31.84 97.61
  Q 32.46 97.57 32.42 98.19
  Q 32.04 104.02 32.78 110.00
  Q 33.07 112.31 31.74 114.34
  Q 30.75 109.39 25.46 109.15
  L 22.98 102.86
  L 21.46 96.64
  Z"
/>
<path fill="#2f3943" d="
  M 32.61 113.47
  Q 33.23 112.14 33.15 111.26
  Q 32.51 104.62 32.65 98.24
  Q 32.66 97.64 33.26 97.64
  L 36.69 97.63
  Q 37.30 97.63 37.31 98.25
  Q 37.38 104.45 37.33 110.72
  C 37.31 112.84 36.17 113.92 34.26 114.38
  Q 33.20 114.64 32.64 113.80
  A 0.34 0.32 -52.1 0 1 32.61 113.47
  Z"
/>
<path fill="#2f3943" d="
  M 11.76 100.93
  L 14.17 105.09
  L 13.91 109.06
  Q 12.65 109.53 10.66 109.52
  L 11.76 100.93
  Z"
/>
<path fill="#ff9999" d="
  M 22.98 102.86
  L 25.46 109.15
  Q 24.89 110.40 25.19 111.87
  L 24.82 114.36
  Q 24.76 114.83 24.29 114.92
  L 17.06 116.26
  A 0.78 0.77 74.4 0 1 16.19 115.76
  L 14.69 111.68
  Q 13.89 110.26 13.91 109.06
  L 14.17 105.09
  L 22.98 102.86
  Z"
/>
<rect fill="#2f3943" x="112.34" y="105.99" width="84.02" height="1.14" rx="0.56"/>
<path fill="#ffa206" d="
  M 13.91 109.06
  Q 13.89 110.26 14.69 111.68
  Q 11.69 112.42 10.94 115.50
  Q 10.25 118.37 10.23 119.49
  L 9.31 124.18
  Q 9.19 124.76 9.78 124.76
  L 15.32 124.73
  L 23.87 124.74
  L 29.78 124.88
  A 0.44 0.44 0.0 0 0 30.22 124.36
  L 29.17 119.21
  C 28.70 115.91 28.54 112.80 25.19 111.87
  Q 24.89 110.40 25.46 109.15
  Q 30.75 109.39 31.74 114.34
  L 32.20 115.15
  L 33.68 124.09
  Q 33.76 124.62 34.27 124.79
  Q 35.02 125.03 36.15 124.71
  C 40.16 124.92 40.63 130.39 37.39 131.44
  Q 36.89 131.59 36.46 131.45
  L 2.68 131.53
  Q 0.91 131.25 0.00 129.37
  L 0.00 126.77
  Q 1.18 124.53 4.99 124.77
  A 1.05 1.05 0.0 0 0 6.11 123.75
  Q 6.35 115.26 10.66 109.52
  Q 12.65 109.53 13.91 109.06
  Z"
/>
<path fill="#2f3943" d="
  M 14.69 111.68
  L 16.19 115.76
  A 0.78 0.77 74.4 0 0 17.06 116.26
  L 24.29 114.92
  Q 24.76 114.83 24.82 114.36
  L 25.19 111.87
  C 28.54 112.80 28.70 115.91 29.17 119.21
  Q 26.01 118.49 22.52 118.83
  Q 22.02 118.88 21.81 119.34
  Q 21.45 120.13 21.98 121.32
  Q 20.85 120.63 19.75 121.60
  Q 19.35 121.96 18.88 121.71
  Q 18.49 121.50 18.21 120.88
  Q 18.36 120.26 17.91 119.83
  Q 17.60 119.55 16.99 119.55
  Q 13.57 119.54 10.23 119.49
  Q 10.25 118.37 10.94 115.50
  Q 11.69 112.42 14.69 111.68
  Z"
/>
<path fill="#00904f" d="
  M 195.9466 129.3225
  A 7.81 7.81 0.0 0 1 188.1229 137.1189
  L 120.6231 137.0011
  A 7.81 7.81 0.0 0 1 112.8267 129.1775
  L 112.8334 125.3175
  A 7.81 7.81 0.0 0 1 120.6571 117.5211
  L 188.1569 117.6389
  A 7.81 7.81 0.0 0 1 195.9533 125.4625
  L 195.9466 129.3225
  Z
  M 152.93 128.30
  A 0.34 0.34 0.0 0 1 152.52 128.31
  L 148.30 125.22
  A 0.34 0.34 0.0 0 0 147.83 125.28
  L 147.17 126.13
  A 0.34 0.34 0.0 0 0 147.24 126.61
  L 152.54 130.57
  A 0.34 0.34 0.0 0 0 152.96 130.57
  L 161.91 123.47
  A 0.34 0.34 0.0 0 0 161.93 122.95
  L 161.12 122.20
  A 0.34 0.34 0.0 0 0 160.68 122.18
  L 152.93 128.30
  Z"
/>
<path fill="#00904f" d="
  M 29.17 119.21
  L 30.22 124.36
  A 0.44 0.44 0.0 0 1 29.78 124.88
  L 23.87 124.74
  L 24.24 122.24
  Q 24.33 121.63 23.72 121.55
  L 21.98 121.32
  Q 21.45 120.13 21.81 119.34
  Q 22.02 118.88 22.52 118.83
  Q 26.01 118.49 29.17 119.21
  Z"
/>
<path fill="#00904f" d="
  M 18.21 120.88
  Q 16.80 122.15 15.36 121.72
  A 0.76 0.76 0.0 0 0 14.45 122.75
  L 15.32 124.73
  L 9.78 124.76
  Q 9.19 124.76 9.31 124.18
  L 10.23 119.49
  Q 13.57 119.54 16.99 119.55
  Q 17.60 119.55 17.91 119.83
  Q 18.36 120.26 18.21 120.88
  Z"
/>
<path fill="#11c882" d="
  M 18.21 120.88
  Q 18.49 121.50 18.88 121.71
  Q 19.35 121.96 19.75 121.60
  Q 20.85 120.63 21.98 121.32
  L 23.72 121.55
  Q 24.33 121.63 24.24 122.24
  L 23.87 124.74
  L 15.32 124.73
  L 14.45 122.75
  A 0.76 0.76 0.0 0 1 15.36 121.72
  Q 16.80 122.15 18.21 120.88
  Z"
/>
<path fill="#ffffff" d="
  M 152.93 128.30
  L 160.68 122.18
  A 0.34 0.34 0.0 0 1 161.12 122.20
  L 161.93 122.95
  A 0.34 0.34 0.0 0 1 161.91 123.47
  L 152.96 130.57
  A 0.34 0.34 0.0 0 1 152.54 130.57
  L 147.24 126.61
  A 0.34 0.34 0.0 0 1 147.17 126.13
  L 147.83 125.28
  A 0.34 0.34 0.0 0 1 148.30 125.22
  L 152.52 128.31
  A 0.34 0.34 0.0 0 0 152.93 128.30
  Z"
/>
<path fill="#ffc259" d="
  M 36.46 131.45
  Q 36.33 141.78 32.26 149.87
  L 11.85 150.27
  C 6.82 150.81 5.38 147.88 4.62 143.36
  Q 3.65 137.67 2.68 131.53
  L 36.46 131.45
  Z
  M 9.2628 135.1652
  A 1.37 1.37 0.0 0 0 7.6835 134.0428
  L 7.5652 134.0629
  A 1.37 1.37 0.0 0 0 6.4428 135.6421
  L 8.1972 146.0148
  A 1.37 1.37 0.0 0 0 9.7765 147.1372
  L 9.8948 147.1171
  A 1.37 1.37 0.0 0 0 11.0172 145.5379
  L 9.2628 135.1652
  Z
  M 15.1798 135.2185
  A 1.32 1.32 0.0 0 0 13.7435 134.0260
  L 13.4846 134.0501
  A 1.32 1.32 0.0 0 0 12.2922 135.4863
  L 13.2602 145.9215
  A 1.32 1.32 0.0 0 0 14.6965 147.1140
  L 14.9554 147.0899
  A 1.32 1.32 0.0 0 0 16.1478 145.6537
  L 15.1798 135.2185
  Z
  M 21.1951 135.4228
  A 1.39 1.39 0.0 0 0 19.8172 134.0207
  L 19.7172 134.0198
  A 1.39 1.39 0.0 0 0 18.3152 135.3976
  L 18.2249 145.7372
  A 1.39 1.39 0.0 0 0 19.6028 147.1393
  L 19.7028 147.1402
  A 1.39 1.39 0.0 0 0 21.1048 145.7624
  L 21.1951 135.4228
  Z
  M 27.1119 135.4588
  A 1.32 1.32 0.0 0 0 25.9144 134.0267
  L 25.6754 134.0054
  A 1.32 1.32 0.0 0 0 24.2433 135.2028
  L 23.3081 145.6812
  A 1.32 1.32 0.0 0 0 24.5056 147.1133
  L 24.7446 147.1346
  A 1.32 1.32 0.0 0 0 26.1767 145.9372
  L 27.1119 135.4588
  Z
  M 33.0088 135.5823
  A 1.37 1.37 0.0 0 0 31.8865 134.0030
  L 31.7682 133.9830
  A 1.37 1.37 0.0 0 0 30.1889 135.1053
  L 28.4312 145.4977
  A 1.37 1.37 0.0 0 0 29.5535 147.0770
  L 29.6718 147.0970
  A 1.37 1.37 0.0 0 0 31.2511 145.9747
  L 33.0088 135.5823
  Z"
/>
<rect fill="#ffa206" x="-1.43" y="-6.63" transform="translate(8.73,140.59) rotate(-9.6)" width="2.86" height="13.26" rx="1.37"/>
<rect fill="#ffa206" x="-1.45" y="-6.56" transform="translate(14.22,140.57) rotate(-5.3)" width="2.90" height="13.12" rx="1.32"/>
<rect fill="#ffa206" x="-1.44" y="-6.56" transform="translate(19.71,140.58) rotate(0.5)" width="2.88" height="13.12" rx="1.39"/>
<rect fill="#ffa206" x="-1.44" y="-6.58" transform="translate(25.21,140.57) rotate(5.1)" width="2.88" height="13.16" rx="1.32"/>
<rect fill="#ffa206" x="-1.43" y="-6.64" transform="translate(30.72,140.54) rotate(9.6)" width="2.86" height="13.28" rx="1.37"/>
<path fill="#ffc259" d="
  M 201.04 146.73
  L 205.78 147.00
  Q 227.02 151.51 230.00 173.12
  L 230.00 176.98
  Q 226.51 199.48 204.14 203.00
  L 199.50 203.00
  Q 193.75 202.08 188.59 199.81
  L 181.30 194.17
  C 165.12 175.22 176.45 149.20 201.04 146.73
  Z
  M 225.67 174.91
  A 23.78 23.78 0.0 0 0 201.89 151.13
  A 23.78 23.78 0.0 0 0 178.11 174.91
  A 23.78 23.78 0.0 0 0 201.89 198.69
  A 23.78 23.78 0.0 0 0 225.67 174.91
  Z"
/>
<path fill="#2f3943" d="
  M 32.26 149.87
  Q 31.70 165.96 31.71 183.06
  Q 31.71 183.61 31.44 183.83
  Q 31.09 184.11 30.51 184.04
  L 16.56 184.29
  Q 16.52 183.86 14.09 183.94
  A 0.26 0.26 0.0 0 1 13.82 183.70
  L 11.85 150.27
  L 32.26 149.87
  Z"
/>
<path fill="#ffa206" d="
  M 225.67 174.91
  A 23.78 23.78 0.0 0 1 201.89 198.69
  A 23.78 23.78 0.0 0 1 178.11 174.91
  A 23.78 23.78 0.0 0 1 201.89 151.13
  A 23.78 23.78 0.0 0 1 225.67 174.91
  Z
  M 200.29 187.00
  L 200.26 189.99
  Q 200.25 190.72 200.99 190.73
  L 202.23 190.74
  Q 202.95 190.74 202.96 190.02
  L 202.99 186.93
  Q 203.00 186.40 203.51 186.27
  Q 208.96 184.85 209.43 179.75
  C 210.25 170.91 194.83 171.69 198.31 165.33
  C 199.94 162.34 204.65 163.24 207.12 164.56
  A 0.48 0.48 0.0 0 0 207.80 164.29
  L 208.53 162.21
  A 0.44 0.44 0.0 0 0 208.24 161.64
  L 203.65 160.40
  Q 203.06 160.24 203.09 159.62
  L 203.21 157.50
  Q 203.27 156.47 202.24 156.49
  L 201.36 156.50
  Q 200.48 156.51 200.52 157.39
  L 200.64 160.21
  Q 200.67 160.71 200.18 160.81
  Q 195.29 161.85 194.42 166.27
  C 192.64 175.30 206.83 173.32 205.82 180.09
  C 205.09 184.94 198.60 184.03 195.69 182.29
  Q 194.95 181.84 194.62 182.65
  L 194.14 183.85
  Q 193.80 184.68 194.59 185.11
  Q 197.03 186.42 199.81 186.50
  Q 200.30 186.51 200.29 187.00
  Z"
/>
<path fill="#ffc259" d="
  M 199.81 186.50
  Q 197.03 186.42 194.59 185.11
  Q 193.80 184.68 194.14 183.85
  L 194.62 182.65
  Q 194.95 181.84 195.69 182.29
  C 198.60 184.03 205.09 184.94 205.82 180.09
  C 206.83 173.32 192.64 175.30 194.42 166.27
  Q 195.29 161.85 200.18 160.81
  Q 200.67 160.71 200.64 160.21
  L 200.52 157.39
  Q 200.48 156.51 201.36 156.50
  L 202.24 156.49
  Q 203.27 156.47 203.21 157.50
  L 203.09 159.62
  Q 203.06 160.24 203.65 160.40
  L 208.24 161.64
  A 0.44 0.44 0.0 0 1 208.53 162.21
  L 207.80 164.29
  A 0.48 0.48 0.0 0 1 207.12 164.56
  C 204.65 163.24 199.94 162.34 198.31 165.33
  C 194.83 171.69 210.25 170.91 209.43 179.75
  Q 208.96 184.85 203.51 186.27
  Q 203.00 186.40 202.99 186.93
  L 202.96 190.02
  Q 202.95 190.74 202.23 190.74
  L 200.99 190.73
  Q 200.25 190.72 200.26 189.99
  L 200.29 187.00
  Q 200.30 186.51 199.81 186.50
  Z"
/>
<path fill="#00904f" d="
  M 30.51 184.04
  L 30.49 199.36
  Q 30.49 199.84 30.02 199.84
  L 3.98 199.82
  Q 3.47 199.82 3.51 199.31
  C 4.06 191.87 10.54 191.16 16.04 188.76
  Q 16.52 188.55 16.53 188.03
  L 16.56 184.29
  L 30.51 184.04
  Z
  M 17.64 189.79
  Q 18.32 190.41 19.10 190.55
  Q 19.75 190.66 19.25 190.23
  Q 18.56 189.65 17.77 189.52
  Q 17.26 189.44 17.64 189.79
  Z
  M 14.37 191.38
  L 17.12 193.13
  Q 17.25 193.21 17.35 193.06
  L 17.35 193.05
  A 0.32 0.18 35.4 0 0 17.19 192.71
  L 14.53 190.85
  Q 14.48 190.81 14.45 190.86
  L 14.31 191.10
  Q 14.21 191.27 14.37 191.38
  Z
  M 14.0981 194.3155
  A 1.80 0.32 35.9 0 0 12.8276 193.0008
  A 1.80 0.32 35.9 0 0 11.1819 192.2045
  A 1.80 0.32 35.9 0 0 12.4524 193.5192
  A 1.80 0.32 35.9 0 0 14.0981 194.3155
  Z"
/>
<path fill="#00904f" d="
  M 62.66 183.96
  L 63.26 188.13
  Q 63.33 188.62 63.79 188.80
  C 69.77 191.15 76.17 191.95 77.62 199.40
  Q 77.71 199.84 77.26 199.84
  L 51.22 199.82
  Q 50.66 199.82 50.59 199.26
  L 48.73 183.93
  L 62.66 183.96
  Z
  M 62.8990 189.3744
  A 1.42 0.28 -24.8 0 0 61.4926 189.7158
  A 1.42 0.28 -24.8 0 0 60.3210 190.5656
  A 1.42 0.28 -24.8 0 0 61.7274 190.2242
  A 1.42 0.28 -24.8 0 0 62.8990 189.3744
  Z
  M 65.50 191.63
  Q 65.80 191.44 65.58 191.18
  Q 65.40 190.95 65.17 191.13
  Q 63.99 192.04 62.89 193.03
  Q 62.75 193.15 62.87 193.28
  L 62.88 193.29
  Q 63.00 193.42 63.13 193.30
  Q 63.78 192.69 65.50 191.63
  Z
  M 68.8806 192.3268
  A 1.52 0.24 -40.8 0 0 67.5732 193.1383
  A 1.52 0.24 -40.8 0 0 66.5794 194.3132
  A 1.52 0.24 -40.8 0 0 67.8868 193.5017
  A 1.52 0.24 -40.8 0 0 68.8806 192.3268
  Z"
/>
<path fill="#ffffff" d="
  M 17.77 189.52
  Q 18.56 189.65 19.25 190.23
  Q 19.75 190.66 19.10 190.55
  Q 18.32 190.41 17.64 189.79
  Q 17.26 189.44 17.77 189.52
  Z"
/>
<ellipse fill="#ffffff" cx="0.00" cy="0.00" transform="translate(61.61,189.97) rotate(-24.8)" rx="1.42" ry="0.28"/>
<path fill="#ffffff" d="
  M 14.37 191.38
  Q 14.21 191.27 14.31 191.10
  L 14.45 190.86
  Q 14.48 190.81 14.53 190.85
  L 17.19 192.71
  A 0.32 0.18 35.4 0 1 17.35 193.05
  L 17.35 193.06
  Q 17.25 193.21 17.12 193.13
  L 14.37 191.38
  Z"
/>
<path fill="#ffffff" d="
  M 65.50 191.63
  Q 63.78 192.69 63.13 193.30
  Q 63.00 193.42 62.88 193.29
  L 62.87 193.28
  Q 62.75 193.15 62.89 193.03
  Q 63.99 192.04 65.17 191.13
  Q 65.40 190.95 65.58 191.18
  Q 65.80 191.44 65.50 191.63
  Z"
/>
<ellipse fill="#ffffff" cx="0.00" cy="0.00" transform="translate(12.64,193.26) rotate(35.9)" rx="1.80" ry="0.32"/>
<ellipse fill="#ffffff" cx="0.00" cy="0.00" transform="translate(67.73,193.32) rotate(-40.8)" rx="1.52" ry="0.24"/>
</svg>
