<svg width="99" height="34" viewBox="0 0 99 34" fill="none" xmlns="http://www.w3.org/2000/svg">
<path d="M52.0101 3.20146C40.2201 -1.62854 41.3901 20.5915 53.2101 13.4415C53.3102 13.3801 53.4249 13.3475 53.5423 13.347C53.6596 13.3465 53.7751 13.3781 53.8765 13.4386C53.978 13.4991 54.0616 13.5861 54.1186 13.6904C54.1755 13.7948 54.2037 13.9126 54.2001 14.0315L54.1801 14.7415C54.1468 15.5815 53.7401 16.1515 52.9601 16.4515C37.1801 22.4915 37.6201 -4.60854 52.1801 0.691459C52.9401 0.971459 53.2535 1.50813 53.1201 2.30146L53.0701 2.62146C53.0488 2.73618 53.0023 2.84478 52.934 2.93925C52.8658 3.03373 52.7776 3.11167 52.6759 3.16733C52.5741 3.22298 52.4615 3.25495 52.3463 3.26085C52.2311 3.26676 52.1162 3.24646 52.0101 3.20146Z" fill="#2C2B29"/>
<path d="M58.8744 0.867409L58.7951 0.857106C58.1598 0.774593 57.5779 1.22273 57.4954 1.85804L55.6047 16.4158C55.5221 17.0511 55.9703 17.633 56.6056 17.7155L56.6849 17.7258C57.3202 17.8083 57.9022 17.3602 57.9847 16.7249L59.8754 2.16715C59.9579 1.53184 59.5098 0.949922 58.8744 0.867409Z" fill="#2C2B29"/>
<path d="M31.5001 15.2115C34.3701 18.0715 37.0901 16.0515 39.5301 14.1815C39.632 14.1042 39.7515 14.0531 39.8777 14.0329C40.0039 14.0127 40.1329 14.0239 40.253 14.0656C40.3732 14.1073 40.4806 14.1781 40.5656 14.2717C40.6507 14.3652 40.7106 14.4786 40.7401 14.6015L40.8001 14.8515C40.8871 15.1902 40.8769 15.5468 40.7709 15.8809C40.6648 16.2149 40.4671 16.5131 40.2001 16.7415C28.1201 27.0815 18.7701 1.26151 35.6601 1.63151C35.9439 1.63766 36.2201 1.72577 36.4559 1.88534C36.6917 2.04491 36.8772 2.2692 36.9901 2.53151L37.1301 2.86151C37.1808 2.97622 37.2042 3.10115 37.1985 3.22645C37.1927 3.35175 37.1579 3.474 37.0968 3.58355C37.0357 3.69311 36.95 3.78698 36.8465 3.85778C36.7429 3.92857 36.6244 3.97435 36.5001 3.99151C34.8501 4.21151 33.1901 3.79151 31.7701 4.51151C27.7601 6.53151 28.9301 12.6515 31.5001 15.2115Z" fill="#2C2B29"/>
<path d="M72.2301 6.49147C64.2001 1.31147 58.7901 20.7115 71.6601 17.7415C71.7457 17.7224 71.8345 17.7223 71.9201 17.7412C72.0058 17.7602 72.0862 17.7976 72.1558 17.851C72.2254 17.9044 72.2825 17.9724 72.323 18.0503C72.3634 18.1281 72.3863 18.2138 72.3901 18.3015L72.4101 18.7115C72.4242 19.0041 72.3369 19.2932 72.1624 19.5313C71.9879 19.7694 71.7367 19.9422 71.4501 20.0215C61.2301 22.8415 58.3201 10.5715 64.5601 4.95147C67.5401 2.2648 70.8468 2.25814 74.4801 4.93147C74.7689 5.14548 74.9889 5.44006 75.1132 5.77925C75.2375 6.11843 75.2607 6.48753 75.1801 6.84147L75.1101 7.14147C75.0859 7.25051 75.0363 7.3523 74.9654 7.43858C74.8944 7.52486 74.8042 7.59318 74.7019 7.638C74.5995 7.68282 74.4881 7.70287 74.3766 7.69652C74.2651 7.69017 74.1566 7.65761 74.0601 7.60147C73.4001 7.22147 72.7901 6.85147 72.2301 6.49147Z" fill="#2C2B29"/>
<path d="M17.39 15.2814C18.39 14.7281 19.65 14.1348 21.17 13.5014C21.63 13.3148 22.08 13.3314 22.52 13.5514C22.6787 13.6307 22.8126 13.7519 22.9072 13.9019C23.0018 14.0519 23.0534 14.225 23.0565 14.4024C23.0596 14.5797 23.014 14.7545 22.9247 14.9077C22.8354 15.0609 22.7058 15.1867 22.55 15.2714L18.64 17.3414C17.9867 17.6881 17.8367 18.1881 18.19 18.8414L19.49 21.2314C19.8767 21.9381 20.4333 22.1214 21.16 21.7814L27.04 19.0514C27.4333 18.8714 27.7833 18.9348 28.09 19.2414L28.44 19.5914C28.503 19.6548 28.5512 19.7313 28.5813 19.8152C28.6114 19.8991 28.6225 19.9884 28.6139 20.0766C28.6053 20.1647 28.5771 20.2495 28.5315 20.3248C28.4858 20.4 28.4238 20.4638 28.35 20.5114C26.02 22.0714 20.12 26.2314 18.08 23.1714C15.94 19.9514 14.0033 16.2214 12.27 11.9814C12.0488 11.4422 12.0415 10.839 12.2496 10.2946C12.4577 9.75018 12.8655 9.3056 13.39 9.05145L20.74 5.51145C20.8801 5.44302 21.041 5.4308 21.1897 5.47729C21.3385 5.52378 21.4638 5.62546 21.54 5.76145L21.8 6.23145C22.1533 6.86478 22.01 7.34478 21.37 7.67145L15.15 10.8314C14.9578 10.9307 14.8121 11.1009 14.7446 11.3051C14.6772 11.5092 14.6935 11.7308 14.79 11.9214L16.32 14.9514C16.56 15.4381 16.9167 15.5481 17.39 15.2814Z" fill="#FADA16"/>
<path d="M75.4501 20.9115C75.431 20.9489 75.4203 20.9901 75.4186 21.0322C75.417 21.0744 75.4244 21.1166 75.4404 21.1562C75.4564 21.1958 75.4807 21.2319 75.5117 21.2621C75.5426 21.2923 75.5796 21.3159 75.6201 21.3315C77.3201 21.9381 79.0068 22.5915 80.6801 23.2915C80.6921 23.2984 80.7245 23.3289 80.7717 23.378C80.819 23.4271 80.8784 23.4918 80.9401 23.5615C81.1134 23.7615 81.1901 24.0348 81.1701 24.3815C81.1616 24.4983 81.1292 24.6121 81.0751 24.716C81.021 24.8199 80.9463 24.9117 80.8555 24.9857C80.7646 25.0596 80.6597 25.1143 80.547 25.1462C80.4343 25.1782 80.3162 25.1868 80.2001 25.1715C77.7268 24.8381 75.4334 23.9915 73.3201 22.6315C73.009 22.4324 72.7838 22.1243 72.6893 21.7686C72.5948 21.4128 72.6379 21.0354 72.8101 20.7115L79.6701 7.78147C80.0301 7.1148 80.5401 6.96813 81.2001 7.34147L81.5601 7.54147C81.7245 7.63428 81.8465 7.78717 81.9006 7.96803C81.9546 8.14889 81.9366 8.34366 81.8501 8.51147L75.4501 20.9115Z" fill="#40A858"/>
<path d="M11.6501 22.6515C11.6392 22.6769 11.6339 22.7044 11.6347 22.7321C11.6354 22.7598 11.6423 22.787 11.6546 22.8117C11.667 22.8365 11.6847 22.8583 11.7063 22.8755C11.728 22.8927 11.7532 22.905 11.7801 22.9115L17.3801 24.5215C17.4993 24.5556 17.6099 24.6145 17.7048 24.6944C17.7998 24.7742 17.8771 24.8734 17.9317 24.9854C17.9863 25.0974 18.017 25.2199 18.0219 25.3449C18.0268 25.4699 18.0058 25.5948 17.9601 25.7115L17.8401 26.0315C17.5201 26.8448 16.9435 27.1182 16.1101 26.8515L10.1701 24.9615C9.82346 24.8482 9.51012 24.9082 9.23012 25.1415L7.59012 26.5015C7.48089 26.5931 7.4115 26.7236 7.39657 26.8653C7.38165 27.0071 7.42236 27.1492 7.51012 27.2615L10.1801 30.5815C10.6601 31.1748 10.6268 31.7415 10.0801 32.2815L9.88012 32.4815C9.79876 32.5623 9.70155 32.6253 9.59446 32.6668C9.48738 32.7082 9.37269 32.7272 9.25746 32.7225C9.14224 32.7178 9.02891 32.6896 8.92446 32.6395C8.82001 32.5895 8.72665 32.5187 8.65012 32.4315C4.21679 27.2582 1.53679 23.8915 0.610124 22.3315C-1.02988 19.5615 0.910124 16.9415 3.19012 15.3515C8.26012 11.8015 14.1801 17.1915 11.6501 22.6515ZM2.25012 20.4315L5.19012 24.2515C5.33215 24.433 5.54037 24.5507 5.7691 24.5788C5.99783 24.6069 6.22837 24.5432 6.41012 24.4015L8.57012 22.7415C8.91413 22.4757 9.20668 22.1502 9.43105 21.7837C9.65543 21.4172 9.80724 21.0168 9.87781 20.6055C9.94839 20.1941 9.93634 19.7798 9.84237 19.3862C9.7484 18.9926 9.57433 18.6274 9.33012 18.3115L9.03012 17.9315C8.7859 17.6154 8.47626 17.3549 8.11889 17.1647C7.76152 16.9746 7.36343 16.8585 6.94738 16.8232C6.53133 16.7879 6.10546 16.8341 5.69413 16.959C5.2828 17.084 4.89405 17.2853 4.55012 17.5515L2.40012 19.2115C2.21864 19.3535 2.10092 19.5617 2.0728 19.7905C2.04467 20.0192 2.10845 20.2497 2.25012 20.4315Z" fill="#2C2B29"/>
<path d="M98.9101 19.1615V21.3215C96.7567 20.3948 94.6801 18.9915 92.6801 17.1115C92.5666 17.0043 92.4314 16.9228 92.2835 16.8723C92.1356 16.8218 91.9784 16.8035 91.8223 16.8187C91.6662 16.8338 91.5149 16.882 91.3783 16.9601C91.2417 17.0382 91.123 17.1443 91.0301 17.2715L89.4601 19.4215C89.0601 19.9748 89.1201 20.4715 89.6401 20.9115L92.7501 23.4815C92.8593 23.5742 92.9485 23.6881 93.0125 23.8163C93.0764 23.9445 93.1137 24.0843 93.1221 24.2273C93.1306 24.3703 93.1099 24.5135 93.0614 24.6483C93.0129 24.7831 92.9376 24.9066 92.8401 25.0115L92.5701 25.3015C92.4403 25.4412 92.2638 25.5285 92.074 25.5469C91.8843 25.5653 91.6943 25.5136 91.5401 25.4015L87.8701 22.7115C87.2901 22.2848 86.8001 22.3682 86.4001 22.9615L84.8001 25.3315C84.6241 25.5938 84.5522 25.9123 84.5984 26.2248C84.6447 26.5373 84.8057 26.8213 85.0501 27.0215L90.2201 31.2415C90.3755 31.3674 90.4789 31.5463 90.5103 31.7439C90.5417 31.9415 90.4989 32.1436 90.3901 32.3115L90.2301 32.5515C89.8501 33.1448 89.3634 33.2448 88.7701 32.8515C87.1301 31.7582 85.4301 30.4115 83.6701 28.8115C82.1367 27.4248 81.7867 26.0415 82.6201 24.6615C84.5867 21.3882 87.0201 18.1382 89.9201 14.9115C90.3211 14.4644 90.8776 14.1868 91.4772 14.1349C92.0768 14.0829 92.6747 14.2604 93.1501 14.6315L98.9101 19.1615Z" fill="#2C2B29"/>
</svg>
