<?xml version="1.0" encoding="UTF-8" standalone="no"?>
<!DOCTYPE svg PUBLIC "-//W3C//DTD SVG 1.1//EN" "http://www.w3.org/Graphics/SVG/1.1/DTD/svg11.dtd">
<svg xmlns="http://www.w3.org/2000/svg" version="1.1" viewBox="0.00 0.00 100.00 117.00">
<g stroke-width="2.00" fill="none" stroke-linecap="butt">
<path stroke="#7bc66d" vector-effect="non-scaling-stroke" d="
  M 66.52 65.96
  L 66.68 65.65
  Q 66.87 65.30 67.21 65.08
  L 74.29 60.64
  Q 74.56 60.46 74.33 60.24
  L 74.03 59.96
  Q 73.89 59.83 73.72 59.94
  L 66.86 64.41
  Q 66.53 64.62 66.18 64.46
  Q 65.93 64.34 65.83 64.48"
/>
<path stroke="#7bc66d" vector-effect="non-scaling-stroke" d="
  M 65.38 63.83
  L 72.41 58.59
  A 0.19 0.19 0.0 0 0 72.21 58.27
  L 64.63 62.57"
/>
<path stroke="#80b44c" vector-effect="non-scaling-stroke" d="
  M 64.18 61.71
  Q 64.34 61.02 64.97 60.69
  Q 68.59 58.75 71.99 56.51
  Q 72.25 56.34 72.20 56.04
  L 72.07 55.25
  Q 72.00 54.81 71.64 55.08
  L 63.26 61.30"
/>
<path stroke="#80b44c" vector-effect="non-scaling-stroke" d="
  M 50.41 51.86
  Q 49.45 49.28 46.92 46.42
  Q 46.25 45.67 46.59 46.62
  C 47.21 48.38 48.09 49.88 47.79 51.87
  Q 47.35 54.71 46.43 57.88"
/>
<path stroke="#7bc66d" vector-effect="non-scaling-stroke" d="
  M 45.74 58.92
  Q 44.30 60.23 42.77 63.00
  Q 41.88 64.61 40.29 63.80"
/>
<path stroke="#d8ecac" vector-effect="non-scaling-stroke" d="
  M 40.29 63.80
  Q 41.41 63.73 40.98 62.53
  A 0.92 0.52 29.3 0 0 40.87 62.35
  Q 34.96 55.11 25.39 55.18
  A 0.37 0.36 -8.9 0 0 25.04 55.65
  L 25.15 56.05
  A 0.87 0.86 -10.0 0 0 26.06 56.68
  Q 35.82 55.87 39.82 63.71"
/>
<path stroke="#7bc66d" vector-effect="non-scaling-stroke" d="
  M 39.82 63.71
  Q 39.05 63.83 38.75 63.75
  Q 30.50 61.48 23.59 55.59"
/>
<path stroke="#9dce97" vector-effect="non-scaling-stroke" d="
  M 40.29 63.80
  L 39.82 63.71"
/>
<path stroke="#d8ecac" vector-effect="non-scaling-stroke" d="
  M 31.27 78.53
  L 19.27 68.40
  A 1.58 1.58 0.0 0 0 18.47 68.05
  Q 16.04 67.71 13.94 69.46"
/>
<path stroke="#7bc66d" vector-effect="non-scaling-stroke" d="
  M 13.94 69.46
  Q 14.85 66.85 16.36 65.60"
/>
<path stroke="#d8ecac" vector-effect="non-scaling-stroke" d="
  M 36.28 90.78
  Q 35.69 90.51 35.29 92.30"
/>
<path stroke="#fae776" vector-effect="non-scaling-stroke" d="
  M 35.29 92.30
  L 29.43 103.58"
/>
<path stroke="#9dce97" vector-effect="non-scaling-stroke" d="
  M 29.43 103.58
  L 25.55 111.37
  Q 25.42 111.64 25.71 111.65
  L 30.70 111.78
  Q 30.94 111.79 30.97 111.55
  Q 31.56 106.76 31.54 104.26
  Q 31.54 103.68 30.76 103.69"
/>
<path stroke="#fae776" vector-effect="non-scaling-stroke" d="
  M 30.76 103.69
  Q 30.57 103.17 30.82 102.81
  Q 34.10 98.20 36.71 92.67"
/>
<path stroke="#d8ecac" vector-effect="non-scaling-stroke" d="
  M 36.71 92.67
  Q 39.54 92.46 42.97 93.29
  C 45.21 93.83 45.19 97.33 45.67 98.84"
/>
<path stroke="#9dce97" vector-effect="non-scaling-stroke" d="
  M 20.92 111.01
  L 22.04 107.07"
/>
<path stroke="#fae776" vector-effect="non-scaling-stroke" d="
  M 22.04 107.07
  Q 23.69 105.04 23.95 102.75
  A 1.14 1.11 30.3 0 0 23.73 101.95
  L 19.33 96.18
  A 0.59 0.59 0.0 0 0 18.32 96.30
  L 16.97 99.40"
/>
<path stroke="#9dce97" vector-effect="non-scaling-stroke" d="
  M 16.97 99.40
  Q 16.08 101.53 15.05 101.86"
/>
<path stroke="#9dce97" vector-effect="non-scaling-stroke" d="
  M 13.94 69.46
  Q 13.53 70.27 12.76 70.98"
/>
<path stroke="#9dc137" vector-effect="non-scaling-stroke" d="
  M 22.04 107.07
  Q 22.10 103.90 20.04 103.43
  Q 19.53 103.31 19.35 102.82
  C 19.00 101.87 19.31 100.60 18.79 99.97
  Q 18.23 99.31 16.97 99.40"
/>
<path stroke="#d8df4c" vector-effect="non-scaling-stroke" d="
  M 36.71 92.67
  Q 35.97 92.78 35.29 92.30"
/>
<path stroke="#9dc137" vector-effect="non-scaling-stroke" d="
  M 30.76 103.69
  Q 30.34 104.09 29.43 103.58"
/>
<path stroke="#9dce97" vector-effect="non-scaling-stroke" d="
  M 90.25 71.04
  Q 80.23 67.29 69.99 73.52"
/>
<path stroke="#9dc137" vector-effect="non-scaling-stroke" d="
  M 92.63 72.61
  L 92.37 76.62
  Q 92.34 77.15 91.82 77.05
  Q 82.98 75.32 74.53 78.25
  A 0.64 0.63 -15.2 0 0 74.11 78.97
  L 74.34 80.26
  Q 74.45 80.82 75.00 80.68
  Q 83.46 78.54 92.06 80.13
  Q 92.62 80.23 92.67 80.79
  L 93.22 87.43"
/>
<path stroke="#7bc66d" vector-effect="non-scaling-stroke" d="
  M 82.04 112.52
  L 66.42 115.79"
/>
<path stroke="#9dce97" vector-effect="non-scaling-stroke" d="
  M 62.53 115.29
  C 66.55 107.38 68.22 99.65 61.92 92.30"
/>
<path stroke="#7bc66d" vector-effect="non-scaling-stroke" d="
  M 61.92 92.30
  Q 61.86 91.57 61.04 91.41"
/>
<path stroke="#9dc137" vector-effect="non-scaling-stroke" d="
  M 66.26 90.46
  L 72.55 90.65"
/>
<path stroke="#459637" vector-effect="non-scaling-stroke" d="
  M 72.55 90.65
  Q 73.76 90.49 74.01 92.41
  Q 74.12 93.30 75.02 93.26
  L 92.06 92.39
  Q 92.66 92.36 92.80 91.78
  Q 92.88 91.45 92.66 91.14
  Q 92.38 90.74 91.92 90.87
  C 88.65 91.73 84.07 90.82 80.61 90.67
  Q 80.26 90.66 79.94 90.50
  Q 79.43 90.25 79.02 90.51
  Q 78.69 90.73 78.36 90.50
  Q 76.07 88.90 73.19 89.97"
/>
<path stroke="#9dc137" vector-effect="non-scaling-stroke" d="
  M 73.19 89.97
  L 70.06 77.33"
/>
<path stroke="#a2af16" vector-effect="non-scaling-stroke" d="
  M 73.19 89.97
  Q 73.86 90.55 72.55 90.65"
/>
<path stroke="#d8ecac" vector-effect="non-scaling-stroke" d="
  M 61.92 92.30
  Q 60.76 91.86 60.47 92.36
  Q 60.28 92.70 60.56 93.11
  Q 60.80 93.44 61.24 93.64"
/>
<path stroke="#7bc66d" vector-effect="non-scaling-stroke" d="
  M 61.24 93.64
  Q 58.90 95.77 58.19 98.62
  A 0.26 0.25 -21.9 0 0 58.65 98.81
  Q 59.61 97.33 60.44 95.48
  Q 60.86 94.54 61.79 94.34"
/>
<path stroke="#d8ecac" vector-effect="non-scaling-stroke" d="
  M 61.79 94.34
  Q 67.60 103.50 62.09 112.26"
/>
<path stroke="#7bc66d" vector-effect="non-scaling-stroke" d="
  M 62.09 112.26
  C 59.66 111.21 58.87 108.13 57.93 105.91
  A 0.28 0.27 -20.9 0 0 57.59 105.76
  L 57.33 105.87
  Q 57.07 105.96 57.20 106.20
  L 61.04 113.79"
/>
<path stroke="#d8ecac" vector-effect="non-scaling-stroke" d="
  M 61.04 113.79
  Q 60.60 113.93 60.47 114.81"
/>
<path stroke="#9dce97" vector-effect="non-scaling-stroke" d="
  M 61.04 113.79
  Q 61.88 113.43 62.09 112.26"
/>
<path stroke="#9dce97" vector-effect="non-scaling-stroke" d="
  M 61.79 94.34
  L 61.24 93.64"
/>
<path stroke="#7bc66d" vector-effect="non-scaling-stroke" d="
  M 67.37 40.67
  Q 67.88 40.52 67.48 40.16
  L 67.17 39.89
  Q 67.06 39.80 66.93 39.84
  Q 57.98 42.80 50.93 49.07
  Q 50.82 49.17 50.92 49.28
  L 51.11 49.51
  A 0.23 0.23 0.0 0 0 51.44 49.53
  Q 58.43 43.36 67.37 40.67"
/>
<path stroke="#7bc66d" vector-effect="non-scaling-stroke" d="
  M 70.68 44.06
  Q 61.74 47.60 54.10 53.40
  A 0.47 0.46 65.3 0 0 53.93 53.88
  L 54.04 54.35
  Q 54.18 54.90 54.61 54.52
  Q 61.91 48.06 71.08 44.69
  Q 71.25 44.63 71.16 44.47
  L 70.99 44.17
  Q 70.88 43.98 70.68 44.06"
/>
<path stroke="#7bc66d" vector-effect="non-scaling-stroke" d="
  M 28.81 50.21
  C 36.01 51.34 39.01 54.14 43.71 58.25
  Q 43.90 58.41 44.06 58.22
  L 44.25 58.01
  A 0.36 0.35 43.8 0 0 44.23 57.53
  Q 37.91 51.02 28.90 49.46
  Q 28.63 49.41 28.62 49.69
  L 28.61 49.97
  Q 28.60 50.17 28.81 50.21"
/>
<path stroke="#cfd030" vector-effect="non-scaling-stroke" d="
  M 48.75 72.09
  Q 48.82 72.90 49.22 73.76"
/>
<path stroke="#cfdd8f" vector-effect="non-scaling-stroke" d="
  M 49.22 73.76
  Q 49.28 74.02 49.12 74.07"
/>
<path stroke="#77a530" vector-effect="non-scaling-stroke" d="
  M 49.12 74.07
  Q 48.84 73.08 47.57 74.87"
/>
<path stroke="#cfd030" vector-effect="non-scaling-stroke" d="
  M 47.57 74.87
  Q 46.05 74.95 44.26 76.93"
/>
<path stroke="#cfdd8f" vector-effect="non-scaling-stroke" d="
  M 44.26 76.93
  Q 40.97 76.14 39.88 82.17
  A 1.33 1.32 -83.5 0 0 41.12 83.73
  L 44.96 83.92
  Q 45.47 83.94 45.59 84.44
  Q 45.66 84.74 45.60 84.84
  Q 44.70 86.67 46.53 85.76
  L 50.44 83.79"
/>
<path stroke="#cfd030" vector-effect="non-scaling-stroke" d="
  M 50.44 83.79
  Q 50.25 85.84 52.70 85.01
  C 54.76 84.30 57.03 84.77 59.05 84.91
  A 1.78 1.77 -75.7 0 0 60.81 83.86
  Q 61.56 82.15 60.36 81.99"
/>
<path stroke="#cfdd8f" vector-effect="non-scaling-stroke" d="
  M 60.36 81.99
  L 58.22 78.22
  Q 57.99 77.81 58.31 77.46
  L 58.71 77.03
  Q 59.12 76.59 58.66 76.21
  L 55.46 73.48
  Q 53.60 71.89 53.76 74.34
  Q 53.90 76.46 53.46 78.51
  A 0.63 0.62 86.4 0 0 54.28 79.24
  L 55.17 78.92
  Q 55.73 78.72 56.02 79.24
  L 56.56 80.20
  Q 56.84 80.71 56.26 80.72
  L 53.57 80.78"
/>
<path stroke="#cfd030" vector-effect="non-scaling-stroke" d="
  M 53.57 80.78
  Q 53.13 79.17 52.36 78.06"
/>
<path stroke="#77a530" vector-effect="non-scaling-stroke" d="
  M 52.36 78.06
  Q 52.92 78.30 52.71 76.74"
/>
<path stroke="#cfd030" vector-effect="non-scaling-stroke" d="
  M 52.71 76.74
  Q 53.16 75.49 52.95 73.90
  Q 52.89 73.42 52.62 73.03
  Q 52.17 72.39 52.21 71.66"
/>
<path stroke="#cfdd8f" vector-effect="non-scaling-stroke" d="
  M 52.21 71.66
  Q 53.38 72.32 54.19 71.67
  A 0.52 0.52 0.0 0 0 54.31 71.00
  L 51.31 65.97
  A 1.69 1.69 0.0 0 0 48.31 66.15
  Q 47.52 67.95 45.96 69.20
  Q 45.57 69.52 45.19 69.17
  Q 44.98 68.98 44.69 68.90
  Q 44.17 68.77 44.11 69.31
  L 43.48 75.31
  A 0.53 0.53 0.0 0 0 44.25 75.84
  Q 47.14 74.40 48.75 72.09"
/>
<path stroke="#fae776" vector-effect="non-scaling-stroke" d="
  M 52.21 71.66
  L 50.43 68.17
  Q 50.03 67.37 49.68 68.20
  Q 49.13 69.50 48.15 70.49
  A 0.25 0.25 0.0 0 0 48.27 70.91
  L 48.78 71.03
  A 0.43 0.43 0.0 0 1 49.03 71.72
  L 48.75 72.09"
/>
<path stroke="#a2af16" vector-effect="non-scaling-stroke" d="
  M 52.71 76.74
  Q 51.99 76.93 51.61 76.50
  Q 51.26 76.11 51.45 75.62
  L 52.08 74.05
  Q 52.35 73.34 51.67 73.66
  Q 50.86 74.04 50.31 75.10"
/>
<path stroke="#fae776" vector-effect="non-scaling-stroke" d="
  M 50.31 75.10
  Q 50.15 73.59 49.22 73.76"
/>
<path stroke="#a2af16" vector-effect="non-scaling-stroke" d="
  M 52.36 78.06
  Q 51.04 77.81 50.07 78.82
  A 0.61 0.61 0.0 0 1 49.21 78.84
  Q 48.47 78.15 47.51 77.93
  Q 46.91 77.80 47.05 77.21
  L 47.57 74.87"
/>
<path stroke="#a2bc76" vector-effect="non-scaling-stroke" d="
  M 49.12 74.07
  Q 47.75 76.38 49.57 77.77
  Q 50.82 78.73 50.56 77.17
  Q 50.54 77.05 50.21 77.10
  Q 49.56 77.21 49.78 76.59
  L 50.31 75.10"
/>
<path stroke="#fae776" vector-effect="non-scaling-stroke" d="
  M 50.44 83.79
  Q 51.52 83.38 51.95 82.78
  Q 52.25 82.35 51.84 82.03
  Q 48.86 79.69 46.02 78.84
  Q 45.45 78.67 45.28 79.14
  Q 45.15 79.51 45.45 79.76
  Q 46.01 80.22 45.87 80.84
  Q 45.77 81.29 45.32 81.25
  L 43.35 81.11
  A 0.60 0.59 21.7 0 1 42.93 80.14
  Q 44.20 78.60 44.26 76.93"
/>
<path stroke="#fae776" vector-effect="non-scaling-stroke" d="
  M 60.36 81.99
  Q 58.19 84.64 53.53 83.58
  Q 53.07 83.48 52.95 83.03
  Q 52.44 81.16 53.57 80.78"
/>
<path stroke="#fae776" vector-effect="non-scaling-stroke" d="
  M 32.20 86.12
  L 32.74 85.56
  A 0.16 0.16 0.0 0 0 32.74 85.34
  L 32.65 85.24
  A 20.97 0.53 44.2 0 0 17.24 71.00
  L 17.22 71.03
  A 20.97 0.53 44.2 0 0 31.88 86.03
  L 31.97 86.12
  A 0.16 0.16 0.0 0 0 32.20 86.12"
/>
<path stroke="#fae776" vector-effect="non-scaling-stroke" d="
  M 27.58 86.83
  C 28.27 85.79 28.19 84.54 27.37 83.50
  Q 23.52 78.61 18.64 74.66
  Q 18.15 74.26 18.53 74.77
  L 18.84 75.18
  Q 19.18 75.63 18.63 75.74
  Q 18.42 75.78 18.21 75.82
  A 0.33 0.33 0.0 0 1 17.83 75.61
  L 17.01 73.22
  A 0.39 0.38 -37.4 0 0 16.33 73.13
  L 15.38 74.47
  Q 14.98 75.04 15.32 75.63
  Q 15.99 76.81 17.10 77.49
  A 1.45 1.44 3.3 0 1 17.63 78.08
  Q 18.02 78.92 18.91 78.37
  Q 19.67 77.91 20.57 77.58
  A 0.34 0.34 0.0 0 1 20.94 78.12
  Q 19.89 79.32 20.29 80.69
  A 0.21 0.21 0.0 0 0 20.68 80.71
  L 21.25 79.33
  A 0.68 0.67 20.5 0 1 22.10 78.95
  L 22.54 79.10
  A 0.41 0.40 31.4 0 1 22.71 79.77
  Q 22.02 80.47 21.62 81.33
  Q 21.52 81.53 21.60 81.74
  Q 21.71 82.05 22.08 81.83
  Q 22.32 81.69 22.42 81.95
  C 23.51 84.92 26.63 85.68 27.09 87.79
  Q 27.11 87.86 27.12 87.88
  Q 27.21 87.97 27.30 88.05
  Q 27.38 88.13 27.38 88.00
  L 27.38 87.51
  Q 27.38 87.14 27.58 86.83"
/>
<path stroke="#fae776" vector-effect="non-scaling-stroke" d="
  M 13.51 76.56
  A 0.15 0.15 0.0 0 0 13.50 76.77
  L 28.33 92.62
  A 0.15 0.15 0.0 0 0 28.54 92.62
  L 28.89 92.28
  A 0.15 0.15 0.0 0 0 28.90 92.07
  L 13.94 76.35
  A 0.15 0.15 0.0 0 0 13.73 76.34
  L 13.51 76.56"
/>
<path stroke="#9dce97" vector-effect="non-scaling-stroke" d="
  M 9.99 86.76
  Q 9.90 87.50 10.14 87.82
  Q 11.88 90.11 13.65 92.32
  A 0.35 0.35 0.0 0 0 14.22 92.28
  Q 14.37 92.03 14.34 91.91"
/>
<path stroke="#fae776" vector-effect="non-scaling-stroke" d="
  M 14.34 91.91
  Q 16.73 89.28 17.89 86.44
  Q 18.29 85.44 17.59 84.64
  L 13.40 79.84
  A 0.74 0.73 -54.1 0 0 12.17 80.04
  Q 11.01 82.73 9.88 85.48
  Q 9.71 85.88 9.99 86.76"
/>
<path stroke="#9dc137" vector-effect="non-scaling-stroke" d="
  M 14.34 91.91
  L 14.33 88.54
  Q 14.32 88.02 14.69 87.65
  Q 17.05 85.25 14.31 83.46
  A 1.11 1.10 -64.2 0 0 12.65 84.04
  L 12.30 85.15
  Q 12.16 85.60 11.74 85.82
  L 9.99 86.76"
/>
<path stroke="#fae776" vector-effect="non-scaling-stroke" d="
  M 28.49 88.11
  Q 27.84 88.42 27.93 89.04
  Q 28.04 89.73 28.74 89.63
  Q 29.36 89.53 29.62 88.72
  Q 29.98 87.61 30.63 86.70
  Q 30.96 86.24 30.47 85.96
  L 29.86 85.61
  Q 29.15 85.20 29.11 86.03
  L 29.04 87.29
  Q 29.01 87.87 28.49 88.11"
/>
<path stroke="#fae776" vector-effect="non-scaling-stroke" d="
  M 20.2467 87.7412
  A 0.38 0.38 0.0 0 0 19.7095 87.7281
  L 19.6661 87.7695
  A 0.38 0.38 0.0 0 0 19.6529 88.3067
  L 26.6733 95.6788
  A 0.38 0.38 0.0 0 0 27.2105 95.6919
  L 27.2539 95.6505
  A 0.38 0.38 0.0 0 0 27.2671 95.1133
  L 20.2467 87.7412"
/>
<path stroke="#fae776" vector-effect="non-scaling-stroke" d="
  M 18.52 91.56
  A 0.12 0.12 0.0 0 0 18.52 91.72
  L 24.89 98.36
  A 0.12 0.12 0.0 0 0 25.06 98.36
  L 25.21 98.21
  A 0.12 0.12 0.0 0 0 25.21 98.05
  L 18.98 91.27
  A 0.12 0.12 0.0 0 0 18.81 91.27
  L 18.52 91.56"
/>
<path stroke="#fae776" vector-effect="non-scaling-stroke" d="
  M 38.9939 96.2443
  A 0.30 0.30 0.0 0 0 38.7189 95.9212
  L 38.6192 95.9132
  A 0.30 0.30 0.0 0 0 38.2961 96.1882
  L 37.4861 106.2557
  A 0.30 0.30 0.0 0 0 37.7611 106.5788
  L 37.8608 106.5868
  A 0.30 0.30 0.0 0 0 38.1839 106.3118
  L 38.9939 96.2443"
/>
<path stroke="#7bc66d" vector-effect="non-scaling-stroke" d="
  M 66.42 114.72
  C 69.72 106.62 70.91 100.22 65.80 92.61
  A 0.29 0.29 0.0 0 0 65.41 92.52
  L 65.20 92.65
  Q 65.19 92.65 65.24 92.75
  Q 70.91 103.43 65.57 114.29
  Q 65.43 114.58 65.73 114.72
  L 66.06 114.86
  A 0.27 0.26 23.0 0 0 66.42 114.72"
/>
<path stroke="#fae776" vector-effect="non-scaling-stroke" d="
  M 25.68 83.00
  Q 25.87 82.88 25.90 82.67
  Q 25.98 82.14 25.48 81.97
  L 24.55 81.65
  A 0.68 0.68 0.0 0 0 23.66 82.40
  Q 23.78 83.19 24.33 83.75
  A 0.44 0.44 0.0 0 0 24.99 83.71
  Q 25.23 83.41 25.51 83.14
  Q 25.59 83.06 25.68 83.00"
/>
<path stroke="#fae776" vector-effect="non-scaling-stroke" d="
  M 25.66 84.10
  Q 25.48 84.23 25.40 84.44
  A 0.26 0.26 0.0 0 0 25.65 84.79
  Q 26.66 84.75 26.95 84.10
  A 0.63 0.48 78.3 0 0 26.11 83.37
  L 25.86 83.88
  A 0.68 0.58 -7.0 0 1 25.66 84.10"
/>
<path stroke="#7bc66d" vector-effect="non-scaling-stroke" d="
  M 61.77 101.21
  C 62.41 102.75 62.41 105.57 59.96 105.40
  Q 58.26 105.28 59.65 106.27
  Q 60.78 107.07 61.41 106.37
  Q 64.25 103.24 61.55 99.97
  Q 60.61 98.83 59.68 99.34
  Q 59.25 99.57 59.63 99.88
  L 59.90 100.11
  A 0.49 0.49 0.0 0 1 59.85 100.91
  Q 58.78 101.59 58.95 102.97
  A 0.83 0.83 0.0 0 1 58.35 103.86
  L 57.79 104.01
  A 0.93 0.92 -7.2 0 1 56.61 103.10
  Q 56.63 101.90 57.10 100.85
  A 0.64 0.63 25.4 0 1 57.96 100.55
  L 58.65 100.89
  Q 58.91 101.02 58.92 100.72
  L 58.93 100.30
  A 0.40 0.40 0.0 0 0 58.29 99.96
  Q 57.83 100.30 57.52 99.98
  Q 56.11 98.53 55.90 100.23
  L 55.52 103.33
  A 1.65 1.65 0.0 0 0 57.86 105.02
  L 60.50 103.77
  A 0.85 0.85 0.0 0 0 60.98 102.87
  Q 60.84 102.00 60.42 101.22
  Q 60.28 100.96 60.57 100.95
  L 61.32 100.92
  A 0.48 0.47 77.2 0 1 61.77 101.21"
/>
<path stroke="#9dc137" vector-effect="non-scaling-stroke" d="
  M 20.22 100.86
  Q 19.72 100.81 19.92 101.28
  Q 20.28 102.12 21.22 101.97
  Q 21.92 101.86 21.40 101.38
  Q 20.91 100.93 20.22 100.86"
/>
</g>
<path fill="#2c2b29" d="
  M 53.10 8.64
  C 41.31 3.81 42.48 26.03 54.30 18.88
  A 0.66 0.65 75.6 0 1 55.29 19.47
  L 55.27 20.18
  Q 55.22 21.44 54.05 21.89
  C 38.27 27.93 38.71 0.83 53.27 6.13
  Q 54.41 6.55 54.21 7.74
  L 54.16 8.06
  A 0.78 0.77 -73.6 0 1 53.10 8.64
  Z"
/>
<rect fill="#2c2b29" x="-1.20" y="-8.50" transform="translate(58.83,14.73) rotate(7.4)" width="2.40" height="17.00" rx="1.16"/>
<path fill="#2c2b29" d="
  M 32.59 20.65
  C 35.46 23.51 38.18 21.49 40.62 19.62
  A 0.77 0.76 -25.7 0 1 41.83 20.04
  L 41.89 20.29
  A 1.88 1.87 -27.5 0 1 41.29 22.18
  C 29.21 32.52 19.86 6.70 36.75 7.07
  A 1.49 1.48 78.8 0 1 38.08 7.97
  L 38.22 8.30
  A 0.81 0.81 0.0 0 1 37.59 9.43
  C 35.94 9.65 34.28 9.23 32.86 9.95
  C 28.85 11.97 30.02 18.09 32.59 20.65
  Z"
/>
<path fill="#2c2b29" d="
  M 73.32 11.93
  C 65.29 6.75 59.88 26.15 72.75 23.18
  A 0.60 0.60 0.0 0 1 73.48 23.74
  L 73.50 24.15
  A 1.31 1.29 -9.2 0 1 72.54 25.46
  C 62.32 28.28 59.41 16.01 65.65 10.39
  Q 70.12 6.36 75.57 10.37
  A 1.87 1.85 -65.4 0 1 76.27 12.28
  L 76.20 12.58
  A 0.71 0.71 0.0 0 1 75.15 13.04
  Q 74.16 12.47 73.32 11.93
  Z"
/>
<path fill="#fada16" d="
  M 18.48 20.72
  Q 19.98 19.89 22.26 18.94
  Q 22.95 18.66 23.61 18.99
  A 0.97 0.97 0.0 0 1 23.64 20.71
  L 19.73 22.78
  Q 18.75 23.30 19.28 24.28
  L 20.58 26.67
  Q 21.16 27.73 22.25 27.22
  L 28.13 24.49
  Q 28.72 24.22 29.18 24.68
  L 29.53 25.03
  A 0.60 0.59 50.8 0 1 29.44 25.95
  C 27.11 27.51 21.21 31.67 19.17 28.61
  Q 15.96 23.78 13.36 17.42
  A 2.29 2.29 0.0 0 1 14.48 14.49
  L 21.83 10.95
  A 0.61 0.61 0.0 0 1 22.63 11.20
  L 22.89 11.67
  Q 23.42 12.62 22.46 13.11
  L 16.24 16.27
  A 0.82 0.81 -26.9 0 0 15.88 17.36
  L 17.41 20.39
  Q 17.77 21.12 18.48 20.72
  Z"
/>
<path fill="#40a858" d="
  M 76.54 26.35
  A 0.31 0.30 23.5 0 0 76.71 26.77
  Q 79.26 27.68 81.77 28.73
  A 0.41 0.02 48.7 0 1 82.03 29.00
  Q 82.29 29.30 82.26 29.82
  A 0.86 0.86 0.0 0 1 81.29 30.61
  Q 77.58 30.11 74.41 28.07
  A 1.47 1.46 30.3 0 1 73.90 26.15
  L 80.76 13.22
  Q 81.30 12.22 82.29 12.78
  L 82.65 12.98
  A 0.73 0.73 0.0 0 1 82.94 13.95
  L 76.54 26.35
  Z"
/>
<path fill="#2c2b29" d="
  M 12.74 28.09
  A 0.19 0.19 0.0 0 0 12.87 28.35
  L 18.47 29.96
  A 0.90 0.89 -71.3 0 1 19.05 31.15
  L 18.93 31.47
  Q 18.45 32.69 17.20 32.29
  L 11.26 30.40
  Q 10.74 30.23 10.32 30.58
  L 8.68 31.94
  A 0.55 0.55 0.0 0 0 8.60 32.70
  L 11.27 36.02
  Q 11.99 36.91 11.17 37.72
  L 10.97 37.92
  A 0.85 0.84 47.3 0 1 9.74 37.87
  Q 3.09 30.11 1.70 27.77
  C 0.06 25.00 2.00 22.38 4.28 20.79
  C 9.35 17.24 15.27 22.63 12.74 28.09
  Z
  M 3.34 25.87
  L 6.28 29.69
  A 0.87 0.87 0.0 0 0 7.50 29.84
  L 9.66 28.18
  A 3.31 3.04 -37.7 0 0 10.42 23.75
  L 10.12 23.37
  A 3.31 3.04 -37.7 0 0 5.64 22.99
  L 3.49 24.65
  A 0.87 0.87 0.0 0 0 3.34 25.87
  Z"
/>
<path fill="#2c2b29" d="
  M 100.00 24.60
  L 100.00 26.76
  Q 96.77 25.37 93.77 22.55
  A 1.11 1.10 -50.4 0 0 92.12 22.71
  L 90.55 24.86
  Q 89.95 25.69 90.73 26.35
  L 93.84 28.92
  A 1.06 1.06 0.0 0 1 93.93 30.45
  L 93.66 30.74
  A 0.78 0.78 0.0 0 1 92.63 30.84
  L 88.96 28.15
  Q 88.09 27.51 87.49 28.40
  L 85.89 30.77
  A 1.27 1.27 0.0 0 0 86.14 32.46
  L 91.31 36.68
  A 0.81 0.81 0.0 0 1 91.48 37.75
  L 91.32 37.99
  Q 90.75 38.88 89.86 38.29
  Q 87.40 36.65 84.76 34.25
  Q 82.46 32.17 83.71 30.10
  Q 86.66 25.19 91.01 20.35
  A 2.38 2.37 40.0 0 1 94.24 20.07
  L 100.00 24.60
  Z"
/>
<path fill="#b6e482" d="
  M 66.52 65.96
  L 66.68 65.65
  Q 66.87 65.30 67.21 65.08
  L 74.29 60.64
  Q 74.56 60.46 74.33 60.24
  L 74.03 59.96
  Q 73.89 59.83 73.72 59.94
  L 66.86 64.41
  Q 66.53 64.62 66.18 64.46
  Q 65.93 64.34 65.83 64.48
  Q 65.61 64.15 65.38 63.83
  L 72.41 58.59
  A 0.19 0.19 0.0 0 0 72.21 58.27
  L 64.63 62.57
  L 64.18 61.71
  Q 64.34 61.02 64.97 60.69
  Q 68.59 58.75 71.99 56.51
  Q 72.25 56.34 72.20 56.04
  L 72.07 55.25
  Q 72.00 54.81 71.64 55.08
  L 63.26 61.30
  L 56.34 60.49
  Q 55.83 60.43 55.56 59.99
  L 50.41 51.86
  Q 49.45 49.28 46.92 46.42
  Q 46.25 45.67 46.59 46.62
  C 47.21 48.38 48.09 49.88 47.79 51.87
  Q 47.35 54.71 46.43 57.88
  L 45.74 58.92
  Q 44.30 60.23 42.77 63.00
  Q 41.88 64.61 40.29 63.80
  Q 41.41 63.73 40.98 62.53
  A 0.92 0.52 29.3 0 0 40.87 62.35
  Q 34.96 55.11 25.39 55.18
  A 0.37 0.36 -8.9 0 0 25.04 55.65
  L 25.15 56.05
  A 0.87 0.86 -10.0 0 0 26.06 56.68
  Q 35.82 55.87 39.82 63.71
  Q 39.05 63.83 38.75 63.75
  Q 30.50 61.48 23.59 55.59
  L 33.95 37.05
  A 0.82 0.81 12.2 0 1 34.58 36.65
  L 64.23 34.26
  Q 64.81 34.21 65.19 34.64
  Q 70.66 40.80 74.80 47.89
  Q 75.05 48.32 74.94 48.81
  L 73.55 55.32
  Q 73.44 55.84 73.68 56.32
  L 76.07 60.97
  A 0.80 0.80 0.0 0 1 75.77 62.03
  Q 71.86 64.36 67.86 66.64
  Q 67.10 67.07 66.52 65.96
  Z
  M 67.37 40.67
  Q 67.88 40.52 67.48 40.16
  L 67.17 39.89
  Q 67.06 39.80 66.93 39.84
  Q 57.98 42.80 50.93 49.07
  Q 50.82 49.17 50.92 49.28
  L 51.11 49.51
  A 0.23 0.23 0.0 0 0 51.44 49.53
  Q 58.43 43.36 67.37 40.67
  Z
  M 70.68 44.06
  Q 61.74 47.60 54.10 53.40
  A 0.47 0.46 65.3 0 0 53.93 53.88
  L 54.04 54.35
  Q 54.18 54.90 54.61 54.52
  Q 61.91 48.06 71.08 44.69
  Q 71.25 44.63 71.16 44.47
  L 70.99 44.17
  Q 70.88 43.98 70.68 44.06
  Z
  M 28.81 50.21
  C 36.01 51.34 39.01 54.14 43.71 58.25
  Q 43.90 58.41 44.06 58.22
  L 44.25 58.01
  A 0.36 0.35 43.8 0 0 44.23 57.53
  Q 37.91 51.02 28.90 49.46
  Q 28.63 49.41 28.62 49.69
  L 28.61 49.97
  Q 28.60 50.17 28.81 50.21
  Z"
/>
<path fill="#40a858" d="
  M 67.37 40.67
  Q 58.43 43.36 51.44 49.53
  A 0.23 0.23 0.0 0 1 51.11 49.51
  L 50.92 49.28
  Q 50.82 49.17 50.93 49.07
  Q 57.98 42.80 66.93 39.84
  Q 67.06 39.80 67.17 39.89
  L 67.48 40.16
  Q 67.88 40.52 67.37 40.67
  Z"
/>
<path fill="#40a858" d="
  M 70.68 44.06
  Q 70.88 43.98 70.99 44.17
  L 71.16 44.47
  Q 71.25 44.63 71.08 44.69
  Q 61.91 48.06 54.61 54.52
  Q 54.18 54.90 54.04 54.35
  L 53.93 53.88
  A 0.47 0.46 65.3 0 1 54.10 53.40
  Q 61.74 47.60 70.68 44.06
  Z"
/>
<path fill="#4a8416" d="
  M 50.41 51.86
  L 46.43 57.88
  Q 47.35 54.71 47.79 51.87
  C 48.09 49.88 47.21 48.38 46.59 46.62
  Q 46.25 45.67 46.92 46.42
  Q 49.45 49.28 50.41 51.86
  Z"
/>
<path fill="#40a858" d="
  M 28.81 50.21
  Q 28.60 50.17 28.61 49.97
  L 28.62 49.69
  Q 28.63 49.41 28.90 49.46
  Q 37.91 51.02 44.23 57.53
  A 0.36 0.35 43.8 0 1 44.25 58.01
  L 44.06 58.22
  Q 43.90 58.41 43.71 58.25
  C 39.01 54.14 36.01 51.34 28.81 50.21
  Z"
/>
<path fill="#faf4d5" d="
  M 40.29 63.80
  L 39.82 63.71
  Q 35.82 55.87 26.06 56.68
  A 0.87 0.86 -10.0 0 1 25.15 56.05
  L 25.04 55.65
  A 0.37 0.36 -8.9 0 1 25.39 55.18
  Q 34.96 55.11 40.87 62.35
  A 0.92 0.52 29.3 0 1 40.98 62.53
  Q 41.41 63.73 40.29 63.80
  Z"
/>
<path fill="#4a8416" d="
  M 64.18 61.71
  L 63.26 61.30
  L 71.64 55.08
  Q 72.00 54.81 72.07 55.25
  L 72.20 56.04
  Q 72.25 56.34 71.99 56.51
  Q 68.59 58.75 64.97 60.69
  Q 64.34 61.02 64.18 61.71
  Z"
/>
<path fill="#40a858" d="
  M 23.59 55.59
  Q 30.50 61.48 38.75 63.75
  Q 39.05 63.83 39.82 63.71
  L 40.29 63.80
  Q 41.88 64.61 42.77 63.00
  Q 44.30 60.23 45.74 58.92
  L 42.32 65.12
  Q 42.04 65.64 41.45 65.55
  Q 36.14 64.78 29.73 61.01
  Q 24.72 58.05 23.59 55.59
  Z"
/>
<path fill="#40a858" d="
  M 65.38 63.83
  Q 63.87 63.77 64.63 62.57
  L 72.21 58.27
  A 0.19 0.19 0.0 0 1 72.41 58.59
  L 65.38 63.83
  Z"
/>
<path fill="#40a858" d="
  M 66.52 65.96
  L 65.90 65.64
  A 0.60 0.59 27.9 0 1 65.65 64.84
  L 65.83 64.48
  Q 65.93 64.34 66.18 64.46
  Q 66.53 64.62 66.86 64.41
  L 73.72 59.94
  Q 73.89 59.83 74.03 59.96
  L 74.33 60.24
  Q 74.56 60.46 74.29 60.64
  L 67.21 65.08
  Q 66.87 65.30 66.68 65.65
  L 66.52 65.96
  Z"
/>
<path fill="#a3c649" d="
  M 43.41 85.92
  C 41.15 85.69 37.89 86.41 37.56 83.03
  C 37.33 80.66 40.73 75.93 41.92 73.72
  C 42.74 72.21 42.82 70.82 43.12 69.14
  Q 43.21 68.64 43.68 68.44
  C 46.26 67.34 46.16 65.03 48.04 63.94
  C 53.74 60.62 56.19 73.73 59.81 75.75
  A 1.09 1.08 10.5 0 1 60.35 76.53
  Q 60.63 78.37 61.34 80.08
  C 64.62 88.00 54.83 85.89 50.70 85.97
  C 48.69 86.00 45.47 88.74 44.16 86.41
  Q 43.91 85.97 43.41 85.92
  Z
  M 48.75 72.09
  Q 48.82 72.90 49.22 73.76
  Q 49.28 74.02 49.12 74.07
  Q 48.84 73.08 47.57 74.87
  Q 46.05 74.95 44.26 76.93
  Q 40.97 76.14 39.88 82.17
  A 1.33 1.32 -83.5 0 0 41.12 83.73
  L 44.96 83.92
  Q 45.47 83.94 45.59 84.44
  Q 45.66 84.74 45.60 84.84
  Q 44.70 86.67 46.53 85.76
  L 50.44 83.79
  Q 50.25 85.84 52.70 85.01
  C 54.76 84.30 57.03 84.77 59.05 84.91
  A 1.78 1.77 -75.7 0 0 60.81 83.86
  Q 61.56 82.15 60.36 81.99
  L 58.22 78.22
  Q 57.99 77.81 58.31 77.46
  L 58.71 77.03
  Q 59.12 76.59 58.66 76.21
  L 55.46 73.48
  Q 53.60 71.89 53.76 74.34
  Q 53.90 76.46 53.46 78.51
  A 0.63 0.62 86.4 0 0 54.28 79.24
  L 55.17 78.92
  Q 55.73 78.72 56.02 79.24
  L 56.56 80.20
  Q 56.84 80.71 56.26 80.72
  L 53.57 80.78
  Q 53.13 79.17 52.36 78.06
  Q 52.92 78.30 52.71 76.74
  Q 53.16 75.49 52.95 73.90
  Q 52.89 73.42 52.62 73.03
  Q 52.17 72.39 52.21 71.66
  Q 53.38 72.32 54.19 71.67
  A 0.52 0.52 0.0 0 0 54.31 71.00
  L 51.31 65.97
  A 1.69 1.69 0.0 0 0 48.31 66.15
  Q 47.52 67.95 45.96 69.20
  Q 45.57 69.52 45.19 69.17
  Q 44.98 68.98 44.69 68.90
  Q 44.17 68.77 44.11 69.31
  L 43.48 75.31
  A 0.53 0.53 0.0 0 0 44.25 75.84
  Q 47.14 74.40 48.75 72.09
  Z"
/>
<path fill="#b6e482" d="
  M 31.27 78.53
  L 19.27 68.40
  A 1.58 1.58 0.0 0 0 18.47 68.05
  Q 16.04 67.71 13.94 69.46
  Q 14.85 66.85 16.36 65.60
  L 17.11 66.13
  Q 17.63 66.49 17.87 65.90
  L 18.33 64.73
  Q 18.59 64.08 19.05 64.60
  L 31.27 78.53
  Z"
/>
<path fill="#40a858" d="
  M 16.36 65.60
  Q 14.85 66.85 13.94 69.46
  Q 13.53 70.27 12.76 70.98
  L 15.14 65.37
  Q 15.36 64.84 15.86 65.12
  Q 16.14 65.29 16.36 65.60
  Z"
/>
<path fill="#faf4d5" d="
  M 52.21 71.66
  L 50.43 68.17
  Q 50.03 67.37 49.68 68.20
  Q 49.13 69.50 48.15 70.49
  A 0.25 0.25 0.0 0 0 48.27 70.91
  L 48.78 71.03
  A 0.43 0.43 0.0 0 1 49.03 71.72
  L 48.75 72.09
  Q 47.14 74.40 44.25 75.84
  A 0.53 0.53 0.0 0 1 43.48 75.31
  L 44.11 69.31
  Q 44.17 68.77 44.69 68.90
  Q 44.98 68.98 45.19 69.17
  Q 45.57 69.52 45.96 69.20
  Q 47.52 67.95 48.31 66.15
  A 1.69 1.69 0.0 0 1 51.31 65.97
  L 54.31 71.00
  A 0.52 0.52 0.0 0 1 54.19 71.67
  Q 53.38 72.32 52.21 71.66
  Z"
/>
<path fill="#fada16" d="
  M 52.21 71.66
  Q 52.17 72.39 52.62 73.03
  Q 52.89 73.42 52.95 73.90
  Q 53.16 75.49 52.71 76.74
  Q 51.99 76.93 51.61 76.50
  Q 51.26 76.11 51.45 75.62
  L 52.08 74.05
  Q 52.35 73.34 51.67 73.66
  Q 50.86 74.04 50.31 75.10
  Q 50.15 73.59 49.22 73.76
  Q 48.82 72.90 48.75 72.09
  L 49.03 71.72
  A 0.43 0.43 0.0 0 0 48.78 71.03
  L 48.27 70.91
  A 0.25 0.25 0.0 0 1 48.15 70.49
  Q 49.13 69.50 49.68 68.20
  Q 50.03 67.37 50.43 68.17
  L 52.21 71.66
  Z"
/>
<path fill="#faf4d5" d="
  M 31.27 78.53
  L 38.01 85.48
  Q 38.45 85.93 38.19 86.50
  L 36.28 90.78
  Q 35.69 90.51 35.29 92.30
  L 29.43 103.58
  L 25.55 111.37
  Q 25.42 111.64 25.71 111.65
  L 30.70 111.78
  Q 30.94 111.79 30.97 111.55
  Q 31.56 106.76 31.54 104.26
  Q 31.54 103.68 30.76 103.69
  Q 30.57 103.17 30.82 102.81
  Q 34.10 98.20 36.71 92.67
  Q 39.54 92.46 42.97 93.29
  C 45.21 93.83 45.19 97.33 45.67 98.84
  L 45.48 114.81
  Q 45.47 115.29 44.99 115.28
  L 23.72 114.64
  Q 23.29 114.63 23.06 114.27
  L 20.92 111.01
  L 22.04 107.07
  Q 23.69 105.04 23.95 102.75
  A 1.14 1.11 30.3 0 0 23.73 101.95
  L 19.33 96.18
  A 0.59 0.59 0.0 0 0 18.32 96.30
  L 16.97 99.40
  Q 16.08 101.53 15.05 101.86
  L 6.53 88.37
  A 1.32 1.31 39.4 0 1 6.41 87.17
  L 12.76 70.98
  Q 13.53 70.27 13.94 69.46
  Q 16.04 67.71 18.47 68.05
  A 1.58 1.58 0.0 0 1 19.27 68.40
  L 31.27 78.53
  Z
  M 32.20 86.12
  L 32.74 85.56
  A 0.16 0.16 0.0 0 0 32.74 85.34
  L 32.65 85.24
  A 20.97 0.53 44.2 0 0 17.24 71.00
  L 17.22 71.03
  A 20.97 0.53 44.2 0 0 31.88 86.03
  L 31.97 86.12
  A 0.16 0.16 0.0 0 0 32.20 86.12
  Z
  M 27.58 86.83
  C 28.27 85.79 28.19 84.54 27.37 83.50
  Q 23.52 78.61 18.64 74.66
  Q 18.15 74.26 18.53 74.77
  L 18.84 75.18
  Q 19.18 75.63 18.63 75.74
  Q 18.42 75.78 18.21 75.82
  A 0.33 0.33 0.0 0 1 17.83 75.61
  L 17.01 73.22
  A 0.39 0.38 -37.4 0 0 16.33 73.13
  L 15.38 74.47
  Q 14.98 75.04 15.32 75.63
  Q 15.99 76.81 17.10 77.49
  A 1.45 1.44 3.3 0 1 17.63 78.08
  Q 18.02 78.92 18.91 78.37
  Q 19.67 77.91 20.57 77.58
  A 0.34 0.34 0.0 0 1 20.94 78.12
  Q 19.89 79.32 20.29 80.69
  A 0.21 0.21 0.0 0 0 20.68 80.71
  L 21.25 79.33
  A 0.68 0.67 20.5 0 1 22.10 78.95
  L 22.54 79.10
  A 0.41 0.40 31.4 0 1 22.71 79.77
  Q 22.02 80.47 21.62 81.33
  Q 21.52 81.53 21.60 81.74
  Q 21.71 82.05 22.08 81.83
  Q 22.32 81.69 22.42 81.95
  C 23.51 84.92 26.63 85.68 27.09 87.79
  Q 27.11 87.86 27.12 87.88
  Q 27.21 87.97 27.30 88.05
  Q 27.38 88.13 27.38 88.00
  L 27.38 87.51
  Q 27.38 87.14 27.58 86.83
  Z
  M 13.51 76.56
  A 0.15 0.15 0.0 0 0 13.50 76.77
  L 28.33 92.62
  A 0.15 0.15 0.0 0 0 28.54 92.62
  L 28.89 92.28
  A 0.15 0.15 0.0 0 0 28.90 92.07
  L 13.94 76.35
  A 0.15 0.15 0.0 0 0 13.73 76.34
  L 13.51 76.56
  Z
  M 9.99 86.76
  Q 9.90 87.50 10.14 87.82
  Q 11.88 90.11 13.65 92.32
  A 0.35 0.35 0.0 0 0 14.22 92.28
  Q 14.37 92.03 14.34 91.91
  Q 16.73 89.28 17.89 86.44
  Q 18.29 85.44 17.59 84.64
  L 13.40 79.84
  A 0.74 0.73 -54.1 0 0 12.17 80.04
  Q 11.01 82.73 9.88 85.48
  Q 9.71 85.88 9.99 86.76
  Z
  M 28.49 88.11
  Q 27.84 88.42 27.93 89.04
  Q 28.04 89.73 28.74 89.63
  Q 29.36 89.53 29.62 88.72
  Q 29.98 87.61 30.63 86.70
  Q 30.96 86.24 30.47 85.96
  L 29.86 85.61
  Q 29.15 85.20 29.11 86.03
  L 29.04 87.29
  Q 29.01 87.87 28.49 88.11
  Z
  M 20.2467 87.7412
  A 0.38 0.38 0.0 0 0 19.7095 87.7281
  L 19.6661 87.7695
  A 0.38 0.38 0.0 0 0 19.6529 88.3067
  L 26.6733 95.6788
  A 0.38 0.38 0.0 0 0 27.2105 95.6919
  L 27.2539 95.6505
  A 0.38 0.38 0.0 0 0 27.2671 95.1133
  L 20.2467 87.7412
  Z
  M 18.52 91.56
  A 0.12 0.12 0.0 0 0 18.52 91.72
  L 24.89 98.36
  A 0.12 0.12 0.0 0 0 25.06 98.36
  L 25.21 98.21
  A 0.12 0.12 0.0 0 0 25.21 98.05
  L 18.98 91.27
  A 0.12 0.12 0.0 0 0 18.81 91.27
  L 18.52 91.56
  Z
  M 38.9939 96.2443
  A 0.30 0.30 0.0 0 0 38.7189 95.9212
  L 38.6192 95.9132
  A 0.30 0.30 0.0 0 0 38.2961 96.1882
  L 37.4861 106.2557
  A 0.30 0.30 0.0 0 0 37.7611 106.5788
  L 37.8608 106.5868
  A 0.30 0.30 0.0 0 0 38.1839 106.3118
  L 38.9939 96.2443
  Z"
/>
<path fill="#faf4d5" d="
  M 90.25 71.04
  Q 80.23 67.29 69.99 73.52
  Q 78.10 65.10 89.54 69.58
  Q 90.03 69.78 90.25 70.07
  Q 90.64 70.62 90.25 71.04
  Z"
/>
<path fill="#40a858" d="
  M 90.25 71.04
  Q 91.12 72.04 92.63 72.61
  L 92.37 76.62
  Q 92.34 77.15 91.82 77.05
  Q 82.98 75.32 74.53 78.25
  A 0.64 0.63 -15.2 0 0 74.11 78.97
  L 74.34 80.26
  Q 74.45 80.82 75.00 80.68
  Q 83.46 78.54 92.06 80.13
  Q 92.62 80.23 92.67 80.79
  L 93.22 87.43
  Q 93.59 88.79 93.57 90.58
  Q 93.55 92.03 92.77 93.59
  C 88.46 102.25 85.35 107.26 82.04 112.52
  L 66.42 115.79
  Q 64.23 117.06 62.53 115.29
  C 66.55 107.38 68.22 99.65 61.92 92.30
  Q 61.86 91.57 61.04 91.41
  Q 63.58 90.45 66.26 90.46
  L 72.55 90.65
  Q 73.76 90.49 74.01 92.41
  Q 74.12 93.30 75.02 93.26
  L 92.06 92.39
  Q 92.66 92.36 92.80 91.78
  Q 92.88 91.45 92.66 91.14
  Q 92.38 90.74 91.92 90.87
  C 88.65 91.73 84.07 90.82 80.61 90.67
  Q 80.26 90.66 79.94 90.50
  Q 79.43 90.25 79.02 90.51
  Q 78.69 90.73 78.36 90.50
  Q 76.07 88.90 73.19 89.97
  L 70.06 77.33
  Q 69.33 75.72 69.99 73.52
  Q 80.23 67.29 90.25 71.04
  Z
  M 66.42 114.72
  C 69.72 106.62 70.91 100.22 65.80 92.61
  A 0.29 0.29 0.0 0 0 65.41 92.52
  L 65.20 92.65
  Q 65.19 92.65 65.24 92.75
  Q 70.91 103.43 65.57 114.29
  Q 65.43 114.58 65.73 114.72
  L 66.06 114.86
  A 0.27 0.26 23.0 0 0 66.42 114.72
  Z"
/>
<path fill="#fada16" d="
  M 32.20 86.12
  A 0.16 0.16 0.0 0 1 31.97 86.12
  L 31.88 86.03
  A 20.97 0.53 44.2 0 1 17.22 71.03
  L 17.24 71.00
  A 20.97 0.53 44.2 0 1 32.65 85.24
  L 32.74 85.34
  A 0.16 0.16 0.0 0 1 32.74 85.56
  L 32.20 86.12
  Z"
/>
<path fill="#faf4d5" d="
  M 60.36 81.99
  Q 58.19 84.64 53.53 83.58
  Q 53.07 83.48 52.95 83.03
  Q 52.44 81.16 53.57 80.78
  L 56.26 80.72
  Q 56.84 80.71 56.56 80.20
  L 56.02 79.24
  Q 55.73 78.72 55.17 78.92
  L 54.28 79.24
  A 0.63 0.62 86.4 0 1 53.46 78.51
  Q 53.90 76.46 53.76 74.34
  Q 53.60 71.89 55.46 73.48
  L 58.66 76.21
  Q 59.12 76.59 58.71 77.03
  L 58.31 77.46
  Q 57.99 77.81 58.22 78.22
  L 60.36 81.99
  Z"
/>
<path fill="#fada16" d="
  M 92.63 72.61
  Q 93.88 80.07 93.22 87.43
  L 92.67 80.79
  Q 92.62 80.23 92.06 80.13
  Q 83.46 78.54 75.00 80.68
  Q 74.45 80.82 74.34 80.26
  L 74.11 78.97
  A 0.64 0.63 -15.2 0 1 74.53 78.25
  Q 82.98 75.32 91.82 77.05
  Q 92.34 77.15 92.37 76.62
  L 92.63 72.61
  Z"
/>
<path fill="#fada16" d="
  M 27.38 87.51
  L 27.38 88.00
  Q 27.38 88.13 27.30 88.05
  Q 27.21 87.97 27.12 87.88
  Q 27.11 87.86 27.09 87.79
  C 26.63 85.68 23.51 84.92 22.42 81.95
  Q 22.32 81.69 22.08 81.83
  Q 21.71 82.05 21.60 81.74
  Q 21.52 81.53 21.62 81.33
  Q 22.02 80.47 22.71 79.77
  A 0.41 0.40 31.4 0 0 22.54 79.10
  L 22.10 78.95
  A 0.68 0.67 20.5 0 0 21.25 79.33
  L 20.68 80.71
  A 0.21 0.21 0.0 0 1 20.29 80.69
  Q 19.89 79.32 20.94 78.12
  A 0.34 0.34 0.0 0 0 20.57 77.58
  Q 19.67 77.91 18.91 78.37
  Q 18.02 78.92 17.63 78.08
  A 1.45 1.44 3.3 0 0 17.10 77.49
  Q 15.99 76.81 15.32 75.63
  Q 14.98 75.04 15.38 74.47
  L 16.33 73.13
  A 0.39 0.38 -37.4 0 1 17.01 73.22
  L 17.83 75.61
  A 0.33 0.33 0.0 0 0 18.21 75.82
  Q 18.42 75.78 18.63 75.74
  Q 19.18 75.63 18.84 75.18
  L 18.53 74.77
  Q 18.15 74.26 18.64 74.66
  Q 23.52 78.61 27.37 83.50
  C 28.19 84.54 28.27 85.79 27.58 86.83
  Q 27.38 87.14 27.38 87.51
  Z
  M 25.68 83.00
  Q 25.87 82.88 25.90 82.67
  Q 25.98 82.14 25.48 81.97
  L 24.55 81.65
  A 0.68 0.68 0.0 0 0 23.66 82.40
  Q 23.78 83.19 24.33 83.75
  A 0.44 0.44 0.0 0 0 24.99 83.71
  Q 25.23 83.41 25.51 83.14
  Q 25.59 83.06 25.68 83.00
  Z
  M 25.66 84.10
  Q 25.48 84.23 25.40 84.44
  A 0.26 0.26 0.0 0 0 25.65 84.79
  Q 26.66 84.75 26.95 84.10
  A 0.63 0.48 78.3 0 0 26.11 83.37
  L 25.86 83.88
  A 0.68 0.58 -7.0 0 1 25.66 84.10
  Z"
/>
<path fill="#4a8416" d="
  M 52.71 76.74
  Q 52.92 78.30 52.36 78.06
  Q 51.04 77.81 50.07 78.82
  A 0.61 0.61 0.0 0 1 49.21 78.84
  Q 48.47 78.15 47.51 77.93
  Q 46.91 77.80 47.05 77.21
  L 47.57 74.87
  Q 48.84 73.08 49.12 74.07
  Q 47.75 76.38 49.57 77.77
  Q 50.82 78.73 50.56 77.17
  Q 50.54 77.05 50.21 77.10
  Q 49.56 77.21 49.78 76.59
  L 50.31 75.10
  Q 50.86 74.04 51.67 73.66
  Q 52.35 73.34 52.08 74.05
  L 51.45 75.62
  Q 51.26 76.11 51.61 76.50
  Q 51.99 76.93 52.71 76.74
  Z"
/>
<path fill="#faf4d5" d="
  M 49.22 73.76
  Q 50.15 73.59 50.31 75.10
  L 49.78 76.59
  Q 49.56 77.21 50.21 77.10
  Q 50.54 77.05 50.56 77.17
  Q 50.82 78.73 49.57 77.77
  Q 47.75 76.38 49.12 74.07
  Q 49.28 74.02 49.22 73.76
  Z"
/>
<path fill="#fada16" d="
  M 47.57 74.87
  L 47.05 77.21
  Q 46.91 77.80 47.51 77.93
  Q 48.47 78.15 49.21 78.84
  A 0.61 0.61 0.0 0 0 50.07 78.82
  Q 51.04 77.81 52.36 78.06
  Q 53.13 79.17 53.57 80.78
  Q 52.44 81.16 52.95 83.03
  Q 53.07 83.48 53.53 83.58
  Q 58.19 84.64 60.36 81.99
  Q 61.56 82.15 60.81 83.86
  A 1.78 1.77 -75.7 0 1 59.05 84.91
  C 57.03 84.77 54.76 84.30 52.70 85.01
  Q 50.25 85.84 50.44 83.79
  Q 51.52 83.38 51.95 82.78
  Q 52.25 82.35 51.84 82.03
  Q 48.86 79.69 46.02 78.84
  Q 45.45 78.67 45.28 79.14
  Q 45.15 79.51 45.45 79.76
  Q 46.01 80.22 45.87 80.84
  Q 45.77 81.29 45.32 81.25
  L 43.35 81.11
  A 0.60 0.59 21.7 0 1 42.93 80.14
  Q 44.20 78.60 44.26 76.93
  Q 46.05 74.95 47.57 74.87
  Z"
/>
<path fill="#fada16" d="
  M 13.51 76.56
  L 13.73 76.34
  A 0.15 0.15 0.0 0 1 13.94 76.35
  L 28.90 92.07
  A 0.15 0.15 0.0 0 1 28.89 92.28
  L 28.54 92.62
  A 0.15 0.15 0.0 0 1 28.33 92.62
  L 13.50 76.77
  A 0.15 0.15 0.0 0 1 13.51 76.56
  Z"
/>
<path fill="#faf4d5" d="
  M 44.26 76.93
  Q 44.20 78.60 42.93 80.14
  A 0.60 0.59 21.7 0 0 43.35 81.11
  L 45.32 81.25
  Q 45.77 81.29 45.87 80.84
  Q 46.01 80.22 45.45 79.76
  Q 45.15 79.51 45.28 79.14
  Q 45.45 78.67 46.02 78.84
  Q 48.86 79.69 51.84 82.03
  Q 52.25 82.35 51.95 82.78
  Q 51.52 83.38 50.44 83.79
  L 46.53 85.76
  Q 44.70 86.67 45.60 84.84
  Q 45.66 84.74 45.59 84.44
  Q 45.47 83.94 44.96 83.92
  L 41.12 83.73
  A 1.33 1.32 -83.5 0 1 39.88 82.17
  Q 40.97 76.14 44.26 76.93
  Z"
/>
<path fill="#fada16" d="
  M 70.06 77.33
  L 73.19 89.97
  Q 73.86 90.55 72.55 90.65
  L 66.26 90.46
  L 71.25 89.89
  Q 71.85 89.82 71.77 89.22
  L 70.06 77.33
  Z"
/>
<path fill="#fada16" d="
  M 14.34 91.91
  L 14.33 88.54
  Q 14.32 88.02 14.69 87.65
  Q 17.05 85.25 14.31 83.46
  A 1.11 1.10 -64.2 0 0 12.65 84.04
  L 12.30 85.15
  Q 12.16 85.60 11.74 85.82
  L 9.99 86.76
  Q 9.71 85.88 9.88 85.48
  Q 11.01 82.73 12.17 80.04
  A 0.74 0.73 -54.1 0 1 13.40 79.84
  L 17.59 84.64
  Q 18.29 85.44 17.89 86.44
  Q 16.73 89.28 14.34 91.91
  Z"
/>
<path fill="#faf4d5" d="
  M 25.51 83.14
  Q 25.23 83.41 24.99 83.71
  A 0.44 0.44 0.0 0 1 24.33 83.75
  Q 23.78 83.19 23.66 82.40
  A 0.68 0.68 0.0 0 1 24.55 81.65
  L 25.48 81.97
  Q 25.98 82.14 25.90 82.67
  Q 25.87 82.88 25.68 83.00
  Q 25.59 83.06 25.51 83.14
  Z"
/>
<path fill="#40a858" d="
  M 14.34 91.91
  Q 14.37 92.03 14.22 92.28
  A 0.35 0.35 0.0 0 1 13.65 92.32
  Q 11.88 90.11 10.14 87.82
  Q 9.90 87.50 9.99 86.76
  L 11.74 85.82
  Q 12.16 85.60 12.30 85.15
  L 12.65 84.04
  A 1.11 1.10 -64.2 0 1 14.31 83.46
  Q 17.05 85.25 14.69 87.65
  Q 14.32 88.02 14.33 88.54
  L 14.34 91.91
  Z"
/>
<path fill="#faf4d5" d="
  M 25.86 83.88
  L 26.11 83.37
  A 0.63 0.48 78.3 0 1 26.95 84.10
  Q 26.66 84.75 25.65 84.79
  A 0.26 0.26 0.0 0 1 25.40 84.44
  Q 25.48 84.23 25.66 84.10
  A 0.68 0.58 -7.0 0 0 25.86 83.88
  Z"
/>
<path fill="#fada16" d="
  M 29.04 87.29
  L 29.11 86.03
  Q 29.15 85.20 29.86 85.61
  L 30.47 85.96
  Q 30.96 86.24 30.63 86.70
  Q 29.98 87.61 29.62 88.72
  Q 29.36 89.53 28.74 89.63
  Q 28.04 89.73 27.93 89.04
  Q 27.84 88.42 28.49 88.11
  Q 29.01 87.87 29.04 87.29
  Z"
/>
<rect fill="#fada16" x="-0.41" y="-5.47" transform="translate(23.46,91.71) rotate(-43.6)" width="0.82" height="10.94" rx="0.38"/>
<path fill="#4a8416" d="
  M 72.55 90.65
  Q 73.86 90.55 73.19 89.97
  Q 76.07 88.90 78.36 90.50
  Q 78.69 90.73 79.02 90.51
  Q 79.43 90.25 79.94 90.50
  Q 80.26 90.66 80.61 90.67
  C 84.07 90.82 88.65 91.73 91.92 90.87
  Q 92.38 90.74 92.66 91.14
  Q 92.88 91.45 92.80 91.78
  Q 92.66 92.36 92.06 92.39
  L 75.02 93.26
  Q 74.12 93.30 74.01 92.41
  Q 73.76 90.49 72.55 90.65
  Z"
/>
<path fill="#b6e482" d="
  M 36.28 90.78
  L 43.87 91.52
  A 0.48 0.47 6.0 0 1 44.30 92.04
  Q 44.21 93.07 45.10 93.46
  Q 45.64 93.69 45.64 94.29
  L 45.67 98.84
  C 45.19 97.33 45.21 93.83 42.97 93.29
  Q 39.54 92.46 36.71 92.67
  Q 35.97 92.78 35.29 92.30
  Q 35.69 90.51 36.28 90.78
  Z"
/>
<path fill="#b6e482" d="
  M 61.04 91.41
  Q 61.86 91.57 61.92 92.30
  Q 60.76 91.86 60.47 92.36
  Q 60.28 92.70 60.56 93.11
  Q 60.80 93.44 61.24 93.64
  Q 58.90 95.77 58.19 98.62
  A 0.26 0.25 -21.9 0 0 58.65 98.81
  Q 59.61 97.33 60.44 95.48
  Q 60.86 94.54 61.79 94.34
  Q 67.60 103.50 62.09 112.26
  C 59.66 111.21 58.87 108.13 57.93 105.91
  A 0.28 0.27 -20.9 0 0 57.59 105.76
  L 57.33 105.87
  Q 57.07 105.96 57.20 106.20
  L 61.04 113.79
  Q 60.60 113.93 60.47 114.81
  C 53.78 107.00 51.92 99.93 59.19 91.43
  Q 59.83 90.69 61.04 91.41
  Z
  M 61.77 101.21
  C 62.41 102.75 62.41 105.57 59.96 105.40
  Q 58.26 105.28 59.65 106.27
  Q 60.78 107.07 61.41 106.37
  Q 64.25 103.24 61.55 99.97
  Q 60.61 98.83 59.68 99.34
  Q 59.25 99.57 59.63 99.88
  L 59.90 100.11
  A 0.49 0.49 0.0 0 1 59.85 100.91
  Q 58.78 101.59 58.95 102.97
  A 0.83 0.83 0.0 0 1 58.35 103.86
  L 57.79 104.01
  A 0.93 0.92 -7.2 0 1 56.61 103.10
  Q 56.63 101.90 57.10 100.85
  A 0.64 0.63 25.4 0 1 57.96 100.55
  L 58.65 100.89
  Q 58.91 101.02 58.92 100.72
  L 58.93 100.30
  A 0.40 0.40 0.0 0 0 58.29 99.96
  Q 57.83 100.30 57.52 99.98
  Q 56.11 98.53 55.90 100.23
  L 55.52 103.33
  A 1.65 1.65 0.0 0 0 57.86 105.02
  L 60.50 103.77
  A 0.85 0.85 0.0 0 0 60.98 102.87
  Q 60.84 102.00 60.42 101.22
  Q 60.28 100.96 60.57 100.95
  L 61.32 100.92
  A 0.48 0.47 77.2 0 1 61.77 101.21
  Z"
/>
<path fill="#fada16" d="
  M 18.52 91.56
  L 18.81 91.27
  A 0.12 0.12 0.0 0 1 18.98 91.27
  L 25.21 98.05
  A 0.12 0.12 0.0 0 1 25.21 98.21
  L 25.06 98.36
  A 0.12 0.12 0.0 0 1 24.89 98.36
  L 18.52 91.72
  A 0.12 0.12 0.0 0 1 18.52 91.56
  Z"
/>
<path fill="#faf4d5" d="
  M 61.92 92.30
  C 68.22 99.65 66.55 107.38 62.53 115.29
  Q 60.97 115.43 60.47 114.81
  Q 60.60 113.93 61.04 113.79
  Q 61.88 113.43 62.09 112.26
  Q 67.60 103.50 61.79 94.34
  L 61.24 93.64
  Q 60.80 93.44 60.56 93.11
  Q 60.28 92.70 60.47 92.36
  Q 60.76 91.86 61.92 92.30
  Z"
/>
<path fill="#fada16" d="
  M 35.29 92.30
  Q 35.97 92.78 36.71 92.67
  Q 34.10 98.20 30.82 102.81
  Q 30.57 103.17 30.76 103.69
  Q 30.34 104.09 29.43 103.58
  L 35.29 92.30
  Z"
/>
<path fill="#b6e482" d="
  M 65.80 92.61
  C 70.91 100.22 69.72 106.62 66.42 114.72
  A 0.27 0.26 23.0 0 1 66.06 114.86
  L 65.73 114.72
  Q 65.43 114.58 65.57 114.29
  Q 70.91 103.43 65.24 92.75
  Q 65.19 92.65 65.20 92.65
  L 65.41 92.52
  A 0.29 0.29 0.0 0 1 65.80 92.61
  Z"
/>
<path fill="#40a858" d="
  M 61.24 93.64
  L 61.79 94.34
  Q 60.86 94.54 60.44 95.48
  Q 59.61 97.33 58.65 98.81
  A 0.26 0.25 -21.9 0 1 58.19 98.62
  Q 58.90 95.77 61.24 93.64
  Z"
/>
<rect fill="#fada16" x="-0.35" y="-5.35" transform="translate(38.24,101.25) rotate(4.6)" width="0.70" height="10.70" rx="0.30"/>
<path fill="#fada16" d="
  M 22.04 107.07
  Q 22.10 103.90 20.04 103.43
  Q 19.53 103.31 19.35 102.82
  C 19.00 101.87 19.31 100.60 18.79 99.97
  Q 18.23 99.31 16.97 99.40
  L 18.32 96.30
  A 0.59 0.59 0.0 0 1 19.33 96.18
  L 23.73 101.95
  A 1.14 1.11 30.3 0 1 23.95 102.75
  Q 23.69 105.04 22.04 107.07
  Z
  M 20.22 100.86
  Q 19.72 100.81 19.92 101.28
  Q 20.28 102.12 21.22 101.97
  Q 21.92 101.86 21.40 101.38
  Q 20.91 100.93 20.22 100.86
  Z"
/>
<path fill="#40a858" d="
  M 61.77 101.21
  A 0.48 0.47 77.2 0 0 61.32 100.92
  L 60.57 100.95
  Q 60.28 100.96 60.42 101.22
  Q 60.84 102.00 60.98 102.87
  A 0.85 0.85 0.0 0 1 60.50 103.77
  L 57.86 105.02
  A 1.65 1.65 0.0 0 1 55.52 103.33
  L 55.90 100.23
  Q 56.11 98.53 57.52 99.98
  Q 57.83 100.30 58.29 99.96
  A 0.40 0.40 0.0 0 1 58.93 100.30
  L 58.92 100.72
  Q 58.91 101.02 58.65 100.89
  L 57.96 100.55
  A 0.64 0.63 25.4 0 0 57.10 100.85
  Q 56.63 101.90 56.61 103.10
  A 0.93 0.92 -7.2 0 0 57.79 104.01
  L 58.35 103.86
  A 0.83 0.83 0.0 0 0 58.95 102.97
  Q 58.78 101.59 59.85 100.91
  A 0.49 0.49 0.0 0 0 59.90 100.11
  L 59.63 99.88
  Q 59.25 99.57 59.68 99.34
  Q 60.61 98.83 61.55 99.97
  Q 64.25 103.24 61.41 106.37
  Q 60.78 107.07 59.65 106.27
  Q 58.26 105.28 59.96 105.40
  C 62.41 105.57 62.41 102.75 61.77 101.21
  Z"
/>
<path fill="#40a858" d="
  M 16.97 99.40
  Q 18.23 99.31 18.79 99.97
  C 19.31 100.60 19.00 101.87 19.35 102.82
  Q 19.53 103.31 20.04 103.43
  Q 22.10 103.90 22.04 107.07
  L 20.92 111.01
  L 15.05 101.86
  Q 16.08 101.53 16.97 99.40
  Z"
/>
<path fill="#40a858" d="
  M 20.22 100.86
  Q 20.91 100.93 21.40 101.38
  Q 21.92 101.86 21.22 101.97
  Q 20.28 102.12 19.92 101.28
  Q 19.72 100.81 20.22 100.86
  Z"
/>
<path fill="#40a858" d="
  M 29.43 103.58
  Q 30.34 104.09 30.76 103.69
  Q 31.54 103.68 31.54 104.26
  Q 31.56 106.76 30.97 111.55
  Q 30.94 111.79 30.70 111.78
  L 25.71 111.65
  Q 25.42 111.64 25.55 111.37
  L 29.43 103.58
  Z"
/>
<path fill="#40a858" d="
  M 62.09 112.26
  Q 61.88 113.43 61.04 113.79
  L 57.20 106.20
  Q 57.07 105.96 57.33 105.87
  L 57.59 105.76
  A 0.28 0.27 -20.9 0 1 57.93 105.91
  C 58.87 108.13 59.66 111.21 62.09 112.26
  Z"
/>
<path fill="#b6e482" d="
  M 82.04 112.52
  Q 74.65 115.05 66.42 115.79
  L 82.04 112.52
  Z"
/>
</svg>
